0
SECTION
2
HEADER
9
$INSUNITS
70
4
9
$ACADVER
1
AC1014
9
$HANDSEED
5
FFFF
0
ENDSEC
0
SECTION
2
TABLES
0
TABLE
2
VPORT
5
8
100
AcDbSymbolTable
0
ENDTAB
0
TABLE
2
LTYPE
5
5
100
AcDbSymbolTable
0
LTYPE
5
14
100
AcDbSymbolTableRecord
100
AcDbLinetypeTableRecord
2
BYBLOCK
70
0
0
LTYPE
5
15
100
AcDbSymbolTableRecord
100
AcDbLinetypeTableRecord
2
BYLAYER
70
0
0
ENDTAB
0
TABLE
2
LAYER
5
2
100
AcDbSymbolTable
70
2
0
LAYER
5
50
100
AcDbSymbolTableRecord
100
AcDbLayerTableRecord
2
0
70
0
6
CONTINUOUS
0
ENDTAB
0
TABLE
2
STYLE
5
3
100
AcDbSymbolTable
70
1
0
STYLE
5
11
100
AcDbSymbolTableRecord
100
AcDbTextStyleTableRecord
2
STANDARD
70
0
0
ENDTAB
0
TABLE
2
VIEW
5
6
100
AcDbSymbolTable
70
0
0
ENDTAB
0
TABLE
2
UCS
5
7
100
AcDbSymbolTable
70
0
0
ENDTAB
0
TABLE
2
APPID
5
9
100
AcDbSymbolTable
70
2
0
APPID
5
12
100
AcDbSymbolTableRecord
100
AcDbRegAppTableRecord
2
ACAD
70
0
0
ENDTAB
0
TABLE
2
DIMSTYLE
5
A
100
AcDbSymbolTable
70
1
0
ENDTAB
0
TABLE
2
BLOCK_RECORD
5
1
100
AcDbSymbolTable
70
1
0
BLOCK_RECORD
5
1F
100
AcDbSymbolTableRecord
100
AcDbBlockTableRecord
2
*MODEL_SPACE
0
BLOCK_RECORD
5
1B
100
AcDbSymbolTableRecord
100
AcDbBlockTableRecord
2
*PAPER_SPACE
0
ENDTAB
0
ENDSEC
0
SECTION
2
BLOCKS
0
BLOCK
5
20
100
AcDbEntity
100
AcDbBlockBegin
2
*MODEL_SPACE
0
ENDBLK
5
21
100
AcDbEntity
100
AcDbBlockEnd
0
BLOCK
5
1C
100
AcDbEntity
100
AcDbBlockBegin
2
*PAPER_SPACE
0
ENDBLK
5
1D
100
AcDbEntity
100
AcDbBlockEnd
0
ENDSEC
0
SECTION
2
ENTITIES
0
LWPOLYLINE
5
100
100
AcDbEntity
8
0
100
AcDbPolyline
90
4
70
1
43
0.0
10
-161.9603740957771
20
90.204223458479774
10
-156.9603740957771
20
90.204223458479774
10
-156.9603740957771
20
85.204223458479774
10
-161.9603740957771
20
85.204223458479774
0
LWPOLYLINE
5
101
100
AcDbEntity
8
0
100
AcDbPolyline
90
4
70
1
43
0.0
10
-151.9603740957771
20
85.204223458479774
10
-151.9603740957771
20
90.204223458479774
10
-146.9603740957771
20
90.204223458479774
10
-146.9603740957771
20
85.204223458479774
0
LWPOLYLINE
5
102
100
AcDbEntity
8
0
100
AcDbPolyline
90
4
70
1
43
0.0
10
-141.9603740957771
20
85.204223458479774
10
-141.9603740957771
20
90.204223458479774
10
-136.9603740957771
20
90.204223458479774
10
-136.9603740957771
20
85.204223458479774
0
LWPOLYLINE
5
103
100
AcDbEntity
8
0
100
AcDbPolyline
90
4
70
1
43
0.0
10
-131.9603740957771
20
85.204223458479774
10
-131.9603740957771
20
90.204223458479774
10
-126.9603740957771
20
90.204223458479774
10
-126.9603740957771
20
85.204223458479774
0
LWPOLYLINE
5
104
100
AcDbEntity
8
0
100
AcDbPolyline
90
4
70
1
43
0.0
10
-121.9603740957771
20
85.204223458479774
10
-121.9603740957771
20
90.204223458479774
10
-116.9603740957771
20
90.204223458479774
10
-116.9603740957771
20
85.204223458479774
0
LWPOLYLINE
5
105
100
AcDbEntity
8
0
100
AcDbPolyline
90
4
70
1
43
0.0
10
-111.9603740957771
20
85.204223458479774
10
-111.9603740957771
20
90.204223458479774
10
-106.9603740957771
20
90.204223458479774
10
-106.9603740957771
20
85.204223458479774
0
LWPOLYLINE
5
106
100
AcDbEntity
8
0
100
AcDbPolyline
90
4
70
1
43
0.0
10
-101.9603740957771
20
85.204223458479774
10
-101.9603740957771
20
90.204223458479774
10
-96.960374095777098
20
90.204223458479774
10
-96.960374095777098
20
85.204223458479774
0
LWPOLYLINE
5
107
100
AcDbEntity
8
0
100
AcDbPolyline
90
4
70
1
43
0.0
10
-91.960374095777098
20
85.204223458479774
10
-91.960374095777098
20
90.204223458479774
10
-86.960374095777098
20
90.204223458479774
10
-86.960374095777098
20
85.204223458479774
0
LWPOLYLINE
5
108
100
AcDbEntity
8
0
100
AcDbPolyline
90
4
70
1
43
0.0
10
-81.960374095777098
20
85.204223458479774
10
-81.960374095777098
20
90.204223458479774
10
-76.960374095777098
20
90.204223458479774
10
-76.960374095777098
20
85.204223458479774
0
LWPOLYLINE
5
109
100
AcDbEntity
8
0
100
AcDbPolyline
90
4
70
1
43
0.0
10
-71.960374095777098
20
85.204223458479774
10
-71.960374095777098
20
90.204223458479774
10
-66.960374095777098
20
90.204223458479774
10
-66.960374095777098
20
85.204223458479774
0
LWPOLYLINE
5
110
100
AcDbEntity
8
0
100
AcDbPolyline
90
4
70
1
43
0.0
10
-61.960374095777091
20
85.204223458479774
10
-61.960374095777091
20
90.204223458479774
10
-56.960374095777091
20
90.204223458479774
10
-56.960374095777091
20
85.204223458479774
0
LWPOLYLINE
5
111
100
AcDbEntity
8
0
100
AcDbPolyline
90
4
70
1
43
0.0
10
-51.960374095777091
20
85.204223458479774
10
-51.960374095777091
20
90.204223458479774
10
-46.960374095777091
20
90.204223458479774
10
-46.960374095777091
20
85.204223458479774
0
LWPOLYLINE
5
112
100
AcDbEntity
8
0
100
AcDbPolyline
90
4
70
1
43
0.0
10
-41.960374095777091
20
85.204223458479774
10
-41.960374095777091
20
90.204223458479774
10
-36.960374095777091
20
90.204223458479774
10
-36.960374095777091
20
85.204223458479774
0
LWPOLYLINE
5
113
100
AcDbEntity
8
0
100
AcDbPolyline
90
4
70
1
43
0.0
10
-31.960374095777091
20
85.204223458479774
10
-31.960374095777091
20
90.204223458479774
10
-26.960374095777091
20
90.204223458479774
10
-26.960374095777091
20
85.204223458479774
0
LWPOLYLINE
5
114
100
AcDbEntity
8
0
100
AcDbPolyline
90
4
70
1
43
0.0
10
-21.960374095777091
20
85.204223458479774
10
-21.960374095777091
20
90.204223458479774
10
-16.960374095777091
20
90.204223458479774
10
-16.960374095777091
20
85.204223458479774
0
LWPOLYLINE
5
115
100
AcDbEntity
8
0
100
AcDbPolyline
90
4
70
1
43
0.0
10
-11.960374095777091
20
85.204223458479774
10
-11.960374095777091
20
90.204223458479774
10
-6.960374095777091
20
90.204223458479774
10
-6.960374095777091
20
85.204223458479774
0
LWPOLYLINE
5
116
100
AcDbEntity
8
0
100
AcDbPolyline
90
4
70
1
43
0.0
10
-1.960374095777091
20
85.204223458479774
10
-1.960374095777091
20
90.204223458479774
10
3.039625904222909
20
90.204223458479774
10
3.039625904222909
20
85.204223458479774
0
LWPOLYLINE
5
117
100
AcDbEntity
8
0
100
AcDbPolyline
90
4
70
1
43
0.0
10
8.039625904222909
20
85.204223458479774
10
8.039625904222909
20
90.204223458479774
10
13.039625904222909
20
90.204223458479774
10
13.039625904222909
20
85.204223458479774
0
LWPOLYLINE
5
118
100
AcDbEntity
8
0
100
AcDbPolyline
90
4
70
1
43
0.0
10
18.039625904222909
20
85.204223458479774
10
18.039625904222909
20
90.204223458479774
10
23.039625904222909
20
90.204223458479774
10
23.039625904222909
20
85.204223458479774
0
LWPOLYLINE
5
119
100
AcDbEntity
8
0
100
AcDbPolyline
90
4
70
1
43
0.0
10
28.039625904222909
20
85.204223458479774
10
28.039625904222909
20
90.204223458479774
10
33.039625904222909
20
90.204223458479774
10
33.039625904222909
20
85.204223458479774
0
LWPOLYLINE
5
120
100
AcDbEntity
8
0
100
AcDbPolyline
90
4
70
1
43
0.0
10
38.039625904222909
20
85.204223458479774
10
38.039625904222909
20
90.204223458479774
10
43.039625904222909
20
90.204223458479774
10
43.039625904222909
20
85.204223458479774
0
LWPOLYLINE
5
121
100
AcDbEntity
8
0
100
AcDbPolyline
90
4
70
1
43
0.0
10
48.039625904222909
20
85.204223458479774
10
48.039625904222909
20
90.204223458479774
10
53.039625904222909
20
90.204223458479774
10
53.039625904222909
20
85.204223458479774
0
LWPOLYLINE
5
122
100
AcDbEntity
8
0
100
AcDbPolyline
90
4
70
1
43
0.0
10
58.039625904222909
20
85.204223458479774
10
58.039625904222909
20
90.204223458479774
10
63.039625904222909
20
90.204223458479774
10
63.039625904222909
20
85.204223458479774
0
LWPOLYLINE
5
123
100
AcDbEntity
8
0
100
AcDbPolyline
90
4
70
1
43
0.0
10
68.039625904222902
20
85.204223458479774
10
68.039625904222902
20
90.204223458479774
10
73.039625904222902
20
90.204223458479774
10
73.039625904222902
20
85.204223458479774
0
LWPOLYLINE
5
124
100
AcDbEntity
8
0
100
AcDbPolyline
90
4
70
1
43
0.0
10
78.039625904222902
20
85.204223458479774
10
78.039625904222902
20
90.204223458479774
10
83.039625904222902
20
90.204223458479774
10
83.039625904222902
20
85.204223458479774
0
LWPOLYLINE
5
125
100
AcDbEntity
8
0
100
AcDbPolyline
90
4
70
1
43
0.0
10
88.039625904222902
20
85.204223458479774
10
88.039625904222902
20
90.204223458479774
10
93.039625904222902
20
90.204223458479774
10
93.039625904222902
20
85.204223458479774
0
LWPOLYLINE
5
126
100
AcDbEntity
8
0
100
AcDbPolyline
90
4
70
1
43
0.0
10
98.039625904222902
20
85.204223458479774
10
98.039625904222902
20
90.204223458479774
10
103.0396259042229
20
90.204223458479774
10
103.0396259042229
20
85.204223458479774
0
LWPOLYLINE
5
127
100
AcDbEntity
8
0
100
AcDbPolyline
90
4
70
1
43
0.0
10
108.0396259042229
20
85.204223458479774
10
108.0396259042229
20
90.204223458479774
10
113.0396259042229
20
90.204223458479774
10
113.0396259042229
20
85.204223458479774
0
LWPOLYLINE
5
128
100
AcDbEntity
8
0
100
AcDbPolyline
90
4
70
1
43
0.0
10
118.0396259042229
20
85.204223458479774
10
118.0396259042229
20
90.204223458479774
10
123.0396259042229
20
90.204223458479774
10
123.0396259042229
20
85.204223458479774
0
LWPOLYLINE
5
129
100
AcDbEntity
8
0
100
AcDbPolyline
90
4
70
1
43
0.0
10
128.0396259042229
20
85.204223458479774
10
128.0396259042229
20
90.204223458479774
10
133.0396259042229
20
90.204223458479774
10
133.0396259042229
20
85.204223458479774
0
LWPOLYLINE
5
130
100
AcDbEntity
8
0
100
AcDbPolyline
90
4
70
1
43
0.0
10
-161.9603740957771
20
75.204223458479774
10
-161.9603740957771
20
80.204223458479774
10
-156.9603740957771
20
80.204223458479774
10
-156.9603740957771
20
75.204223458479774
0
LWPOLYLINE
5
131
100
AcDbEntity
8
0
100
AcDbPolyline
90
4
70
1
43
0.0
10
-151.9603740957771
20
75.204223458479774
10
-151.9603740957771
20
80.204223458479774
10
-146.9603740957771
20
80.204223458479774
10
-146.9603740957771
20
75.204223458479774
0
LWPOLYLINE
5
132
100
AcDbEntity
8
0
100
AcDbPolyline
90
4
70
1
43
0.0
10
-141.9603740957771
20
75.204223458479774
10
-141.9603740957771
20
80.204223458479774
10
-136.9603740957771
20
80.204223458479774
10
-136.9603740957771
20
75.204223458479774
0
LWPOLYLINE
5
133
100
AcDbEntity
8
0
100
AcDbPolyline
90
4
70
1
43
0.0
10
-131.9603740957771
20
75.204223458479774
10
-131.9603740957771
20
80.204223458479774
10
-126.9603740957771
20
80.204223458479774
10
-126.9603740957771
20
75.204223458479774
0
LWPOLYLINE
5
134
100
AcDbEntity
8
0
100
AcDbPolyline
90
4
70
1
43
0.0
10
-121.9603740957771
20
75.204223458479774
10
-121.9603740957771
20
80.204223458479774
10
-116.9603740957771
20
80.204223458479774
10
-116.9603740957771
20
75.204223458479774
0
LWPOLYLINE
5
135
100
AcDbEntity
8
0
100
AcDbPolyline
90
4
70
1
43
0.0
10
-111.9603740957771
20
75.204223458479774
10
-111.9603740957771
20
80.204223458479774
10
-106.9603740957771
20
80.204223458479774
10
-106.9603740957771
20
75.204223458479774
0
LWPOLYLINE
5
136
100
AcDbEntity
8
0
100
AcDbPolyline
90
4
70
1
43
0.0
10
-101.9603740957771
20
75.204223458479774
10
-101.9603740957771
20
80.204223458479774
10
-96.960374095777098
20
80.204223458479774
10
-96.960374095777098
20
75.204223458479774
0
LWPOLYLINE
5
137
100
AcDbEntity
8
0
100
AcDbPolyline
90
4
70
1
43
0.0
10
-91.960374095777098
20
75.204223458479774
10
-91.960374095777098
20
80.204223458479774
10
-86.960374095777098
20
80.204223458479774
10
-86.960374095777098
20
75.204223458479774
0
LWPOLYLINE
5
138
100
AcDbEntity
8
0
100
AcDbPolyline
90
4
70
1
43
0.0
10
-81.960374095777098
20
75.204223458479774
10
-81.960374095777098
20
80.204223458479774
10
-76.960374095777098
20
80.204223458479774
10
-76.960374095777098
20
75.204223458479774
0
LWPOLYLINE
5
139
100
AcDbEntity
8
0
100
AcDbPolyline
90
4
70
1
43
0.0
10
-71.960374095777098
20
75.204223458479774
10
-71.960374095777098
20
80.204223458479774
10
-66.960374095777098
20
80.204223458479774
10
-66.960374095777098
20
75.204223458479774
0
LWPOLYLINE
5
140
100
AcDbEntity
8
0
100
AcDbPolyline
90
4
70
1
43
0.0
10
-61.960374095777091
20
75.204223458479774
10
-61.960374095777091
20
80.204223458479774
10
-56.960374095777091
20
80.204223458479774
10
-56.960374095777091
20
75.204223458479774
0
LWPOLYLINE
5
141
100
AcDbEntity
8
0
100
AcDbPolyline
90
4
70
1
43
0.0
10
-51.960374095777091
20
75.204223458479774
10
-51.960374095777091
20
80.204223458479774
10
-46.960374095777091
20
80.204223458479774
10
-46.960374095777091
20
75.204223458479774
0
LWPOLYLINE
5
142
100
AcDbEntity
8
0
100
AcDbPolyline
90
4
70
1
43
0.0
10
-41.960374095777091
20
75.204223458479774
10
-41.960374095777091
20
80.204223458479774
10
-36.960374095777091
20
80.204223458479774
10
-36.960374095777091
20
75.204223458479774
0
LWPOLYLINE
5
143
100
AcDbEntity
8
0
100
AcDbPolyline
90
4
70
1
43
0.0
10
-31.960374095777091
20
75.204223458479774
10
-31.960374095777091
20
80.204223458479774
10
-26.960374095777091
20
80.204223458479774
10
-26.960374095777091
20
75.204223458479774
0
LWPOLYLINE
5
144
100
AcDbEntity
8
0
100
AcDbPolyline
90
4
70
1
43
0.0
10
-21.960374095777091
20
75.204223458479774
10
-21.960374095777091
20
80.204223458479774
10
-16.960374095777091
20
80.204223458479774
10
-16.960374095777091
20
75.204223458479774
0
LWPOLYLINE
5
145
100
AcDbEntity
8
0
100
AcDbPolyline
90
4
70
1
43
0.0
10
-11.960374095777091
20
75.204223458479774
10
-11.960374095777091
20
80.204223458479774
10
-6.960374095777091
20
80.204223458479774
10
-6.960374095777091
20
75.204223458479774
0
LWPOLYLINE
5
146
100
AcDbEntity
8
0
100
AcDbPolyline
90
4
70
1
43
0.0
10
-1.960374095777091
20
75.204223458479774
10
-1.960374095777091
20
80.204223458479774
10
3.039625904222909
20
80.204223458479774
10
3.039625904222909
20
75.204223458479774
0
LWPOLYLINE
5
147
100
AcDbEntity
8
0
100
AcDbPolyline
90
4
70
1
43
0.0
10
8.039625904222909
20
75.204223458479774
10
8.039625904222909
20
80.204223458479774
10
13.039625904222909
20
80.204223458479774
10
13.039625904222909
20
75.204223458479774
0
LWPOLYLINE
5
148
100
AcDbEntity
8
0
100
AcDbPolyline
90
4
70
1
43
0.0
10
18.039625904222909
20
75.204223458479774
10
18.039625904222909
20
80.204223458479774
10
23.039625904222909
20
80.204223458479774
10
23.039625904222909
20
75.204223458479774
0
LWPOLYLINE
5
149
100
AcDbEntity
8
0
100
AcDbPolyline
90
4
70
1
43
0.0
10
28.039625904222909
20
75.204223458479774
10
28.039625904222909
20
80.204223458479774
10
33.039625904222909
20
80.204223458479774
10
33.039625904222909
20
75.204223458479774
0
LWPOLYLINE
5
150
100
AcDbEntity
8
0
100
AcDbPolyline
90
4
70
1
43
0.0
10
38.039625904222909
20
75.204223458479774
10
38.039625904222909
20
80.204223458479774
10
43.039625904222909
20
80.204223458479774
10
43.039625904222909
20
75.204223458479774
0
LWPOLYLINE
5
151
100
AcDbEntity
8
0
100
AcDbPolyline
90
4
70
1
43
0.0
10
48.039625904222909
20
75.204223458479774
10
48.039625904222909
20
80.204223458479774
10
53.039625904222909
20
80.204223458479774
10
53.039625904222909
20
75.204223458479774
0
LWPOLYLINE
5
152
100
AcDbEntity
8
0
100
AcDbPolyline
90
4
70
1
43
0.0
10
58.039625904222909
20
75.204223458479774
10
58.039625904222909
20
80.204223458479774
10
63.039625904222909
20
80.204223458479774
10
63.039625904222909
20
75.204223458479774
0
LWPOLYLINE
5
153
100
AcDbEntity
8
0
100
AcDbPolyline
90
4
70
1
43
0.0
10
68.039625904222902
20
75.204223458479774
10
68.039625904222902
20
80.204223458479774
10
73.039625904222902
20
80.204223458479774
10
73.039625904222902
20
75.204223458479774
0
LWPOLYLINE
5
154
100
AcDbEntity
8
0
100
AcDbPolyline
90
4
70
1
43
0.0
10
78.039625904222902
20
75.204223458479774
10
78.039625904222902
20
80.204223458479774
10
83.039625904222902
20
80.204223458479774
10
83.039625904222902
20
75.204223458479774
0
LWPOLYLINE
5
155
100
AcDbEntity
8
0
100
AcDbPolyline
90
4
70
1
43
0.0
10
88.039625904222902
20
75.204223458479774
10
88.039625904222902
20
80.204223458479774
10
93.039625904222902
20
80.204223458479774
10
93.039625904222902
20
75.204223458479774
0
LWPOLYLINE
5
156
100
AcDbEntity
8
0
100
AcDbPolyline
90
4
70
1
43
0.0
10
98.039625904222902
20
75.204223458479774
10
98.039625904222902
20
80.204223458479774
10
103.0396259042229
20
80.204223458479774
10
103.0396259042229
20
75.204223458479774
0
LWPOLYLINE
5
157
100
AcDbEntity
8
0
100
AcDbPolyline
90
4
70
1
43
0.0
10
108.0396259042229
20
75.204223458479774
10
108.0396259042229
20
80.204223458479774
10
113.0396259042229
20
80.204223458479774
10
113.0396259042229
20
75.204223458479774
0
LWPOLYLINE
5
158
100
AcDbEntity
8
0
100
AcDbPolyline
90
4
70
1
43
0.0
10
118.0396259042229
20
75.204223458479774
10
118.0396259042229
20
80.204223458479774
10
123.0396259042229
20
80.204223458479774
10
123.0396259042229
20
75.204223458479774
0
LWPOLYLINE
5
159
100
AcDbEntity
8
0
100
AcDbPolyline
90
4
70
1
43
0.0
10
128.0396259042229
20
75.204223458479774
10
128.0396259042229
20
80.204223458479774
10
133.0396259042229
20
80.204223458479774
10
133.0396259042229
20
75.204223458479774
0
LWPOLYLINE
5
160
100
AcDbEntity
8
0
100
AcDbPolyline
90
4
70
1
43
0.0
10
-161.9603740957771
20
65.204223458479774
10
-161.9603740957771
20
70.204223458479774
10
-156.9603740957771
20
70.204223458479774
10
-156.9603740957771
20
65.204223458479774
0
LWPOLYLINE
5
161
100
AcDbEntity
8
0
100
AcDbPolyline
90
4
70
1
43
0.0
10
-151.9603740957771
20
65.204223458479774
10
-151.9603740957771
20
70.204223458479774
10
-146.9603740957771
20
70.204223458479774
10
-146.9603740957771
20
65.204223458479774
0
LWPOLYLINE
5
162
100
AcDbEntity
8
0
100
AcDbPolyline
90
4
70
1
43
0.0
10
-141.9603740957771
20
65.204223458479774
10
-141.9603740957771
20
70.204223458479774
10
-136.9603740957771
20
70.204223458479774
10
-136.9603740957771
20
65.204223458479774
0
LWPOLYLINE
5
163
100
AcDbEntity
8
0
100
AcDbPolyline
90
4
70
1
43
0.0
10
-131.9603740957771
20
65.204223458479774
10
-131.9603740957771
20
70.204223458479774
10
-126.9603740957771
20
70.204223458479774
10
-126.9603740957771
20
65.204223458479774
0
LWPOLYLINE
5
164
100
AcDbEntity
8
0
100
AcDbPolyline
90
4
70
1
43
0.0
10
-121.9603740957771
20
65.204223458479774
10
-121.9603740957771
20
70.204223458479774
10
-116.9603740957771
20
70.204223458479774
10
-116.9603740957771
20
65.204223458479774
0
LWPOLYLINE
5
165
100
AcDbEntity
8
0
100
AcDbPolyline
90
4
70
1
43
0.0
10
-111.9603740957771
20
65.204223458479774
10
-111.9603740957771
20
70.204223458479774
10
-106.9603740957771
20
70.204223458479774
10
-106.9603740957771
20
65.204223458479774
0
LWPOLYLINE
5
166
100
AcDbEntity
8
0
100
AcDbPolyline
90
4
70
1
43
0.0
10
-101.9603740957771
20
65.204223458479774
10
-101.9603740957771
20
70.204223458479774
10
-96.960374095777098
20
70.204223458479774
10
-96.960374095777098
20
65.204223458479774
0
LWPOLYLINE
5
167
100
AcDbEntity
8
0
100
AcDbPolyline
90
4
70
1
43
0.0
10
-91.960374095777098
20
65.204223458479774
10
-91.960374095777098
20
70.204223458479774
10
-86.960374095777098
20
70.204223458479774
10
-86.960374095777098
20
65.204223458479774
0
LWPOLYLINE
5
168
100
AcDbEntity
8
0
100
AcDbPolyline
90
4
70
1
43
0.0
10
-81.960374095777098
20
65.204223458479774
10
-81.960374095777098
20
70.204223458479774
10
-76.960374095777098
20
70.204223458479774
10
-76.960374095777098
20
65.204223458479774
0
LWPOLYLINE
5
169
100
AcDbEntity
8
0
100
AcDbPolyline
90
4
70
1
43
0.0
10
-71.960374095777098
20
65.204223458479774
10
-71.960374095777098
20
70.204223458479774
10
-66.960374095777098
20
70.204223458479774
10
-66.960374095777098
20
65.204223458479774
0
LWPOLYLINE
5
170
100
AcDbEntity
8
0
100
AcDbPolyline
90
4
70
1
43
0.0
10
-61.960374095777091
20
65.204223458479774
10
-61.960374095777091
20
70.204223458479774
10
-56.960374095777091
20
70.204223458479774
10
-56.960374095777091
20
65.204223458479774
0
LWPOLYLINE
5
171
100
AcDbEntity
8
0
100
AcDbPolyline
90
4
70
1
43
0.0
10
-51.960374095777091
20
65.204223458479774
10
-51.960374095777091
20
70.204223458479774
10
-46.960374095777091
20
70.204223458479774
10
-46.960374095777091
20
65.204223458479774
0
LWPOLYLINE
5
172
100
AcDbEntity
8
0
100
AcDbPolyline
90
4
70
1
43
0.0
10
-41.960374095777091
20
65.204223458479774
10
-41.960374095777091
20
70.204223458479774
10
-36.960374095777091
20
70.204223458479774
10
-36.960374095777091
20
65.204223458479774
0
LWPOLYLINE
5
173
100
AcDbEntity
8
0
100
AcDbPolyline
90
4
70
1
43
0.0
10
-31.960374095777091
20
65.204223458479774
10
-31.960374095777091
20
70.204223458479774
10
-26.960374095777091
20
70.204223458479774
10
-26.960374095777091
20
65.204223458479774
0
LWPOLYLINE
5
174
100
AcDbEntity
8
0
100
AcDbPolyline
90
4
70
1
43
0.0
10
-21.960374095777091
20
65.204223458479774
10
-21.960374095777091
20
70.204223458479774
10
-16.960374095777091
20
70.204223458479774
10
-16.960374095777091
20
65.204223458479774
0
LWPOLYLINE
5
175
100
AcDbEntity
8
0
100
AcDbPolyline
90
4
70
1
43
0.0
10
-11.960374095777091
20
65.204223458479774
10
-11.960374095777091
20
70.204223458479774
10
-6.960374095777091
20
70.204223458479774
10
-6.960374095777091
20
65.204223458479774
0
LWPOLYLINE
5
176
100
AcDbEntity
8
0
100
AcDbPolyline
90
4
70
1
43
0.0
10
-1.960374095777091
20
65.204223458479774
10
-1.960374095777091
20
70.204223458479774
10
3.039625904222909
20
70.204223458479774
10
3.039625904222909
20
65.204223458479774
0
LWPOLYLINE
5
177
100
AcDbEntity
8
0
100
AcDbPolyline
90
4
70
1
43
0.0
10
8.039625904222909
20
65.204223458479774
10
8.039625904222909
20
70.204223458479774
10
13.039625904222909
20
70.204223458479774
10
13.039625904222909
20
65.204223458479774
0
LWPOLYLINE
5
178
100
AcDbEntity
8
0
100
AcDbPolyline
90
4
70
1
43
0.0
10
18.039625904222909
20
65.204223458479774
10
18.039625904222909
20
70.204223458479774
10
23.039625904222909
20
70.204223458479774
10
23.039625904222909
20
65.204223458479774
0
LWPOLYLINE
5
179
100
AcDbEntity
8
0
100
AcDbPolyline
90
4
70
1
43
0.0
10
28.039625904222909
20
65.204223458479774
10
28.039625904222909
20
70.204223458479774
10
33.039625904222909
20
70.204223458479774
10
33.039625904222909
20
65.204223458479774
0
LWPOLYLINE
5
180
100
AcDbEntity
8
0
100
AcDbPolyline
90
4
70
1
43
0.0
10
38.039625904222909
20
65.204223458479774
10
38.039625904222909
20
70.204223458479774
10
43.039625904222909
20
70.204223458479774
10
43.039625904222909
20
65.204223458479774
0
LWPOLYLINE
5
181
100
AcDbEntity
8
0
100
AcDbPolyline
90
4
70
1
43
0.0
10
48.039625904222909
20
65.204223458479774
10
48.039625904222909
20
70.204223458479774
10
53.039625904222909
20
70.204223458479774
10
53.039625904222909
20
65.204223458479774
0
LWPOLYLINE
5
182
100
AcDbEntity
8
0
100
AcDbPolyline
90
4
70
1
43
0.0
10
58.039625904222909
20
65.204223458479774
10
58.039625904222909
20
70.204223458479774
10
63.039625904222909
20
70.204223458479774
10
63.039625904222909
20
65.204223458479774
0
LWPOLYLINE
5
183
100
AcDbEntity
8
0
100
AcDbPolyline
90
4
70
1
43
0.0
10
68.039625904222902
20
65.204223458479774
10
68.039625904222902
20
70.204223458479774
10
73.039625904222902
20
70.204223458479774
10
73.039625904222902
20
65.204223458479774
0
LWPOLYLINE
5
184
100
AcDbEntity
8
0
100
AcDbPolyline
90
4
70
1
43
0.0
10
78.039625904222902
20
65.204223458479774
10
78.039625904222902
20
70.204223458479774
10
83.039625904222902
20
70.204223458479774
10
83.039625904222902
20
65.204223458479774
0
LWPOLYLINE
5
185
100
AcDbEntity
8
0
100
AcDbPolyline
90
4
70
1
43
0.0
10
88.039625904222902
20
65.204223458479774
10
88.039625904222902
20
70.204223458479774
10
93.039625904222902
20
70.204223458479774
10
93.039625904222902
20
65.204223458479774
0
LWPOLYLINE
5
186
100
AcDbEntity
8
0
100
AcDbPolyline
90
4
70
1
43
0.0
10
98.039625904222902
20
65.204223458479774
10
98.039625904222902
20
70.204223458479774
10
103.0396259042229
20
70.204223458479774
10
103.0396259042229
20
65.204223458479774
0
LWPOLYLINE
5
187
100
AcDbEntity
8
0
100
AcDbPolyline
90
4
70
1
43
0.0
10
108.0396259042229
20
65.204223458479774
10
108.0396259042229
20
70.204223458479774
10
113.0396259042229
20
70.204223458479774
10
113.0396259042229
20
65.204223458479774
0
LWPOLYLINE
5
188
100
AcDbEntity
8
0
100
AcDbPolyline
90
4
70
1
43
0.0
10
118.0396259042229
20
65.204223458479774
10
118.0396259042229
20
70.204223458479774
10
123.0396259042229
20
70.204223458479774
10
123.0396259042229
20
65.204223458479774
0
LWPOLYLINE
5
189
100
AcDbEntity
8
0
100
AcDbPolyline
90
4
70
1
43
0.0
10
128.0396259042229
20
65.204223458479774
10
128.0396259042229
20
70.204223458479774
10
133.0396259042229
20
70.204223458479774
10
133.0396259042229
20
65.204223458479774
0
LWPOLYLINE
5
190
100
AcDbEntity
8
0
100
AcDbPolyline
90
4
70
1
43
0.0
10
-161.9603740957771
20
55.204223458479774
10
-161.9603740957771
20
60.204223458479774
10
-156.9603740957771
20
60.204223458479774
10
-156.9603740957771
20
55.204223458479774
0
LWPOLYLINE
5
191
100
AcDbEntity
8
0
100
AcDbPolyline
90
4
70
1
43
0.0
10
-151.9603740957771
20
55.204223458479774
10
-151.9603740957771
20
60.204223458479774
10
-146.9603740957771
20
60.204223458479774
10
-146.9603740957771
20
55.204223458479774
0
LWPOLYLINE
5
192
100
AcDbEntity
8
0
100
AcDbPolyline
90
4
70
1
43
0.0
10
-141.9603740957771
20
55.204223458479774
10
-141.9603740957771
20
60.204223458479774
10
-136.9603740957771
20
60.204223458479774
10
-136.9603740957771
20
55.204223458479774
0
LWPOLYLINE
5
193
100
AcDbEntity
8
0
100
AcDbPolyline
90
4
70
1
43
0.0
10
-131.9603740957771
20
55.204223458479774
10
-131.9603740957771
20
60.204223458479774
10
-126.9603740957771
20
60.204223458479774
10
-126.9603740957771
20
55.204223458479774
0
LWPOLYLINE
5
194
100
AcDbEntity
8
0
100
AcDbPolyline
90
4
70
1
43
0.0
10
-121.9603740957771
20
55.204223458479774
10
-121.9603740957771
20
60.204223458479774
10
-116.9603740957771
20
60.204223458479774
10
-116.9603740957771
20
55.204223458479774
0
LWPOLYLINE
5
195
100
AcDbEntity
8
0
100
AcDbPolyline
90
4
70
1
43
0.0
10
-111.9603740957771
20
55.204223458479774
10
-111.9603740957771
20
60.204223458479774
10
-106.9603740957771
20
60.204223458479774
10
-106.9603740957771
20
55.204223458479774
0
LWPOLYLINE
5
196
100
AcDbEntity
8
0
100
AcDbPolyline
90
4
70
1
43
0.0
10
-101.9603740957771
20
55.204223458479774
10
-101.9603740957771
20
60.204223458479774
10
-96.960374095777098
20
60.204223458479774
10
-96.960374095777098
20
55.204223458479774
0
LWPOLYLINE
5
197
100
AcDbEntity
8
0
100
AcDbPolyline
90
4
70
1
43
0.0
10
-91.960374095777098
20
55.204223458479774
10
-91.960374095777098
20
60.204223458479774
10
-86.960374095777098
20
60.204223458479774
10
-86.960374095777098
20
55.204223458479774
0
LWPOLYLINE
5
198
100
AcDbEntity
8
0
100
AcDbPolyline
90
4
70
1
43
0.0
10
-81.960374095777098
20
55.204223458479774
10
-81.960374095777098
20
60.204223458479774
10
-76.960374095777098
20
60.204223458479774
10
-76.960374095777098
20
55.204223458479774
0
LWPOLYLINE
5
199
100
AcDbEntity
8
0
100
AcDbPolyline
90
4
70
1
43
0.0
10
-71.960374095777098
20
55.204223458479774
10
-71.960374095777098
20
60.204223458479774
10
-66.960374095777098
20
60.204223458479774
10
-66.960374095777098
20
55.204223458479774
0
LWPOLYLINE
5
200
100
AcDbEntity
8
0
100
AcDbPolyline
90
4
70
1
43
0.0
10
-61.960374095777091
20
55.204223458479774
10
-61.960374095777091
20
60.204223458479774
10
-56.960374095777091
20
60.204223458479774
10
-56.960374095777091
20
55.204223458479774
0
LWPOLYLINE
5
201
100
AcDbEntity
8
0
100
AcDbPolyline
90
4
70
1
43
0.0
10
-51.960374095777091
20
55.204223458479774
10
-51.960374095777091
20
60.204223458479774
10
-46.960374095777091
20
60.204223458479774
10
-46.960374095777091
20
55.204223458479774
0
LWPOLYLINE
5
202
100
AcDbEntity
8
0
100
AcDbPolyline
90
4
70
1
43
0.0
10
-41.960374095777091
20
55.204223458479774
10
-41.960374095777091
20
60.204223458479774
10
-36.960374095777091
20
60.204223458479774
10
-36.960374095777091
20
55.204223458479774
0
LWPOLYLINE
5
203
100
AcDbEntity
8
0
100
AcDbPolyline
90
4
70
1
43
0.0
10
-31.960374095777091
20
55.204223458479774
10
-31.960374095777091
20
60.204223458479774
10
-26.960374095777091
20
60.204223458479774
10
-26.960374095777091
20
55.204223458479774
0
LWPOLYLINE
5
204
100
AcDbEntity
8
0
100
AcDbPolyline
90
4
70
1
43
0.0
10
-21.960374095777091
20
55.204223458479774
10
-21.960374095777091
20
60.204223458479774
10
-16.960374095777091
20
60.204223458479774
10
-16.960374095777091
20
55.204223458479774
0
LWPOLYLINE
5
205
100
AcDbEntity
8
0
100
AcDbPolyline
90
4
70
1
43
0.0
10
-11.960374095777091
20
55.204223458479774
10
-11.960374095777091
20
60.204223458479774
10
-6.960374095777091
20
60.204223458479774
10
-6.960374095777091
20
55.204223458479774
0
LWPOLYLINE
5
206
100
AcDbEntity
8
0
100
AcDbPolyline
90
4
70
1
43
0.0
10
-1.960374095777091
20
55.204223458479774
10
-1.960374095777091
20
60.204223458479774
10
3.039625904222909
20
60.204223458479774
10
3.039625904222909
20
55.204223458479774
0
LWPOLYLINE
5
207
100
AcDbEntity
8
0
100
AcDbPolyline
90
4
70
1
43
0.0
10
8.039625904222909
20
55.204223458479774
10
8.039625904222909
20
60.204223458479774
10
13.039625904222909
20
60.204223458479774
10
13.039625904222909
20
55.204223458479774
0
LWPOLYLINE
5
208
100
AcDbEntity
8
0
100
AcDbPolyline
90
4
70
1
43
0.0
10
18.039625904222909
20
55.204223458479774
10
18.039625904222909
20
60.204223458479774
10
23.039625904222909
20
60.204223458479774
10
23.039625904222909
20
55.204223458479774
0
LWPOLYLINE
5
209
100
AcDbEntity
8
0
100
AcDbPolyline
90
4
70
1
43
0.0
10
28.039625904222909
20
55.204223458479774
10
28.039625904222909
20
60.204223458479774
10
33.039625904222909
20
60.204223458479774
10
33.039625904222909
20
55.204223458479774
0
LWPOLYLINE
5
210
100
AcDbEntity
8
0
100
AcDbPolyline
90
4
70
1
43
0.0
10
38.039625904222909
20
55.204223458479774
10
38.039625904222909
20
60.204223458479774
10
43.039625904222909
20
60.204223458479774
10
43.039625904222909
20
55.204223458479774
0
LWPOLYLINE
5
211
100
AcDbEntity
8
0
100
AcDbPolyline
90
4
70
1
43
0.0
10
48.039625904222909
20
55.204223458479774
10
48.039625904222909
20
60.204223458479774
10
53.039625904222909
20
60.204223458479774
10
53.039625904222909
20
55.204223458479774
0
LWPOLYLINE
5
212
100
AcDbEntity
8
0
100
AcDbPolyline
90
4
70
1
43
0.0
10
58.039625904222909
20
55.204223458479774
10
58.039625904222909
20
60.204223458479774
10
63.039625904222909
20
60.204223458479774
10
63.039625904222909
20
55.204223458479774
0
LWPOLYLINE
5
213
100
AcDbEntity
8
0
100
AcDbPolyline
90
4
70
1
43
0.0
10
68.039625904222902
20
55.204223458479774
10
68.039625904222902
20
60.204223458479774
10
73.039625904222902
20
60.204223458479774
10
73.039625904222902
20
55.204223458479774
0
LWPOLYLINE
5
214
100
AcDbEntity
8
0
100
AcDbPolyline
90
4
70
1
43
0.0
10
78.039625904222902
20
55.204223458479774
10
78.039625904222902
20
60.204223458479774
10
83.039625904222902
20
60.204223458479774
10
83.039625904222902
20
55.204223458479774
0
LWPOLYLINE
5
215
100
AcDbEntity
8
0
100
AcDbPolyline
90
4
70
1
43
0.0
10
88.039625904222902
20
55.204223458479774
10
88.039625904222902
20
60.204223458479774
10
93.039625904222902
20
60.204223458479774
10
93.039625904222902
20
55.204223458479774
0
LWPOLYLINE
5
216
100
AcDbEntity
8
0
100
AcDbPolyline
90
4
70
1
43
0.0
10
98.039625904222902
20
55.204223458479774
10
98.039625904222902
20
60.204223458479774
10
103.0396259042229
20
60.204223458479774
10
103.0396259042229
20
55.204223458479774
0
LWPOLYLINE
5
217
100
AcDbEntity
8
0
100
AcDbPolyline
90
4
70
1
43
0.0
10
108.0396259042229
20
55.204223458479774
10
108.0396259042229
20
60.204223458479774
10
113.0396259042229
20
60.204223458479774
10
113.0396259042229
20
55.204223458479774
0
LWPOLYLINE
5
218
100
AcDbEntity
8
0
100
AcDbPolyline
90
4
70
1
43
0.0
10
118.0396259042229
20
55.204223458479774
10
118.0396259042229
20
60.204223458479774
10
123.0396259042229
20
60.204223458479774
10
123.0396259042229
20
55.204223458479774
0
LWPOLYLINE
5
219
100
AcDbEntity
8
0
100
AcDbPolyline
90
4
70
1
43
0.0
10
128.0396259042229
20
55.204223458479774
10
128.0396259042229
20
60.204223458479774
10
133.0396259042229
20
60.204223458479774
10
133.0396259042229
20
55.204223458479774
0
LWPOLYLINE
5
220
100
AcDbEntity
8
0
100
AcDbPolyline
90
4
70
1
43
0.0
10
-161.9603740957771
20
45.204223458479774
10
-161.9603740957771
20
50.204223458479774
10
-156.9603740957771
20
50.204223458479774
10
-156.9603740957771
20
45.204223458479774
0
LWPOLYLINE
5
221
100
AcDbEntity
8
0
100
AcDbPolyline
90
4
70
1
43
0.0
10
-151.9603740957771
20
45.204223458479774
10
-151.9603740957771
20
50.204223458479774
10
-146.9603740957771
20
50.204223458479774
10
-146.9603740957771
20
45.204223458479774
0
LWPOLYLINE
5
222
100
AcDbEntity
8
0
100
AcDbPolyline
90
4
70
1
43
0.0
10
-141.9603740957771
20
45.204223458479774
10
-141.9603740957771
20
50.204223458479774
10
-136.9603740957771
20
50.204223458479774
10
-136.9603740957771
20
45.204223458479774
0
LWPOLYLINE
5
223
100
AcDbEntity
8
0
100
AcDbPolyline
90
4
70
1
43
0.0
10
-131.9603740957771
20
45.204223458479774
10
-131.9603740957771
20
50.204223458479774
10
-126.9603740957771
20
50.204223458479774
10
-126.9603740957771
20
45.204223458479774
0
LWPOLYLINE
5
224
100
AcDbEntity
8
0
100
AcDbPolyline
90
4
70
1
43
0.0
10
-121.9603740957771
20
45.204223458479774
10
-121.9603740957771
20
50.204223458479774
10
-116.9603740957771
20
50.204223458479774
10
-116.9603740957771
20
45.204223458479774
0
LWPOLYLINE
5
225
100
AcDbEntity
8
0
100
AcDbPolyline
90
4
70
1
43
0.0
10
-111.9603740957771
20
45.204223458479774
10
-111.9603740957771
20
50.204223458479774
10
-106.9603740957771
20
50.204223458479774
10
-106.9603740957771
20
45.204223458479774
0
LWPOLYLINE
5
226
100
AcDbEntity
8
0
100
AcDbPolyline
90
4
70
1
43
0.0
10
-101.9603740957771
20
45.204223458479774
10
-101.9603740957771
20
50.204223458479774
10
-96.960374095777098
20
50.204223458479774
10
-96.960374095777098
20
45.204223458479774
0
LWPOLYLINE
5
227
100
AcDbEntity
8
0
100
AcDbPolyline
90
4
70
1
43
0.0
10
-91.960374095777098
20
45.204223458479774
10
-91.960374095777098
20
50.204223458479774
10
-86.960374095777098
20
50.204223458479774
10
-86.960374095777098
20
45.204223458479774
0
LWPOLYLINE
5
228
100
AcDbEntity
8
0
100
AcDbPolyline
90
4
70
1
43
0.0
10
-81.960374095777098
20
45.204223458479774
10
-81.960374095777098
20
50.204223458479774
10
-76.960374095777098
20
50.204223458479774
10
-76.960374095777098
20
45.204223458479774
0
LWPOLYLINE
5
229
100
AcDbEntity
8
0
100
AcDbPolyline
90
4
70
1
43
0.0
10
-71.960374095777098
20
45.204223458479774
10
-71.960374095777098
20
50.204223458479774
10
-66.960374095777098
20
50.204223458479774
10
-66.960374095777098
20
45.204223458479774
0
LWPOLYLINE
5
230
100
AcDbEntity
8
0
100
AcDbPolyline
90
4
70
1
43
0.0
10
-61.960374095777091
20
45.204223458479774
10
-61.960374095777091
20
50.204223458479774
10
-56.960374095777091
20
50.204223458479774
10
-56.960374095777091
20
45.204223458479774
0
LWPOLYLINE
5
231
100
AcDbEntity
8
0
100
AcDbPolyline
90
4
70
1
43
0.0
10
-51.960374095777091
20
45.204223458479774
10
-51.960374095777091
20
50.204223458479774
10
-46.960374095777091
20
50.204223458479774
10
-46.960374095777091
20
45.204223458479774
0
LWPOLYLINE
5
232
100
AcDbEntity
8
0
100
AcDbPolyline
90
4
70
1
43
0.0
10
-41.960374095777091
20
45.204223458479774
10
-41.960374095777091
20
50.204223458479774
10
-36.960374095777091
20
50.204223458479774
10
-36.960374095777091
20
45.204223458479774
0
LWPOLYLINE
5
233
100
AcDbEntity
8
0
100
AcDbPolyline
90
4
70
1
43
0.0
10
-31.960374095777091
20
45.204223458479774
10
-31.960374095777091
20
50.204223458479774
10
-26.960374095777091
20
50.204223458479774
10
-26.960374095777091
20
45.204223458479774
0
LWPOLYLINE
5
234
100
AcDbEntity
8
0
100
AcDbPolyline
90
4
70
1
43
0.0
10
-21.960374095777091
20
45.204223458479774
10
-21.960374095777091
20
50.204223458479774
10
-16.960374095777091
20
50.204223458479774
10
-16.960374095777091
20
45.204223458479774
0
LWPOLYLINE
5
235
100
AcDbEntity
8
0
100
AcDbPolyline
90
4
70
1
43
0.0
10
-11.960374095777091
20
45.204223458479774
10
-11.960374095777091
20
50.204223458479774
10
-6.960374095777091
20
50.204223458479774
10
-6.960374095777091
20
45.204223458479774
0
LWPOLYLINE
5
236
100
AcDbEntity
8
0
100
AcDbPolyline
90
4
70
1
43
0.0
10
-1.960374095777091
20
45.204223458479774
10
-1.960374095777091
20
50.204223458479774
10
3.039625904222909
20
50.204223458479774
10
3.039625904222909
20
45.204223458479774
0
LWPOLYLINE
5
237
100
AcDbEntity
8
0
100
AcDbPolyline
90
4
70
1
43
0.0
10
8.039625904222909
20
45.204223458479774
10
8.039625904222909
20
50.204223458479774
10
13.039625904222909
20
50.204223458479774
10
13.039625904222909
20
45.204223458479774
0
LWPOLYLINE
5
238
100
AcDbEntity
8
0
100
AcDbPolyline
90
4
70
1
43
0.0
10
18.039625904222909
20
45.204223458479774
10
18.039625904222909
20
50.204223458479774
10
23.039625904222909
20
50.204223458479774
10
23.039625904222909
20
45.204223458479774
0
LWPOLYLINE
5
239
100
AcDbEntity
8
0
100
AcDbPolyline
90
4
70
1
43
0.0
10
28.039625904222909
20
45.204223458479774
10
28.039625904222909
20
50.204223458479774
10
33.039625904222909
20
50.204223458479774
10
33.039625904222909
20
45.204223458479774
0
LWPOLYLINE
5
240
100
AcDbEntity
8
0
100
AcDbPolyline
90
4
70
1
43
0.0
10
38.039625904222909
20
45.204223458479774
10
38.039625904222909
20
50.204223458479774
10
43.039625904222909
20
50.204223458479774
10
43.039625904222909
20
45.204223458479774
0
LWPOLYLINE
5
241
100
AcDbEntity
8
0
100
AcDbPolyline
90
4
70
1
43
0.0
10
48.039625904222909
20
45.204223458479774
10
48.039625904222909
20
50.204223458479774
10
53.039625904222909
20
50.204223458479774
10
53.039625904222909
20
45.204223458479774
0
LWPOLYLINE
5
242
100
AcDbEntity
8
0
100
AcDbPolyline
90
4
70
1
43
0.0
10
58.039625904222909
20
45.204223458479774
10
58.039625904222909
20
50.204223458479774
10
63.039625904222909
20
50.204223458479774
10
63.039625904222909
20
45.204223458479774
0
LWPOLYLINE
5
243
100
AcDbEntity
8
0
100
AcDbPolyline
90
4
70
1
43
0.0
10
68.039625904222902
20
45.204223458479774
10
68.039625904222902
20
50.204223458479774
10
73.039625904222902
20
50.204223458479774
10
73.039625904222902
20
45.204223458479774
0
LWPOLYLINE
5
244
100
AcDbEntity
8
0
100
AcDbPolyline
90
4
70
1
43
0.0
10
78.039625904222902
20
45.204223458479774
10
78.039625904222902
20
50.204223458479774
10
83.039625904222902
20
50.204223458479774
10
83.039625904222902
20
45.204223458479774
0
LWPOLYLINE
5
245
100
AcDbEntity
8
0
100
AcDbPolyline
90
4
70
1
43
0.0
10
88.039625904222902
20
45.204223458479774
10
88.039625904222902
20
50.204223458479774
10
93.039625904222902
20
50.204223458479774
10
93.039625904222902
20
45.204223458479774
0
LWPOLYLINE
5
246
100
AcDbEntity
8
0
100
AcDbPolyline
90
4
70
1
43
0.0
10
98.039625904222902
20
45.204223458479774
10
98.039625904222902
20
50.204223458479774
10
103.0396259042229
20
50.204223458479774
10
103.0396259042229
20
45.204223458479774
0
LWPOLYLINE
5
247
100
AcDbEntity
8
0
100
AcDbPolyline
90
4
70
1
43
0.0
10
108.0396259042229
20
45.204223458479774
10
108.0396259042229
20
50.204223458479774
10
113.0396259042229
20
50.204223458479774
10
113.0396259042229
20
45.204223458479774
0
LWPOLYLINE
5
248
100
AcDbEntity
8
0
100
AcDbPolyline
90
4
70
1
43
0.0
10
118.0396259042229
20
45.204223458479774
10
118.0396259042229
20
50.204223458479774
10
123.0396259042229
20
50.204223458479774
10
123.0396259042229
20
45.204223458479774
0
LWPOLYLINE
5
249
100
AcDbEntity
8
0
100
AcDbPolyline
90
4
70
1
43
0.0
10
128.0396259042229
20
45.204223458479774
10
128.0396259042229
20
50.204223458479774
10
133.0396259042229
20
50.204223458479774
10
133.0396259042229
20
45.204223458479774
0
LWPOLYLINE
5
250
100
AcDbEntity
8
0
100
AcDbPolyline
90
4
70
1
43
0.0
10
-161.9603740957771
20
35.204223458479774
10
-161.9603740957771
20
40.204223458479774
10
-156.9603740957771
20
40.204223458479774
10
-156.9603740957771
20
35.204223458479774
0
LWPOLYLINE
5
251
100
AcDbEntity
8
0
100
AcDbPolyline
90
4
70
1
43
0.0
10
-151.9603740957771
20
35.204223458479774
10
-151.9603740957771
20
40.204223458479774
10
-146.9603740957771
20
40.204223458479774
10
-146.9603740957771
20
35.204223458479774
0
LWPOLYLINE
5
252
100
AcDbEntity
8
0
100
AcDbPolyline
90
4
70
1
43
0.0
10
-141.9603740957771
20
35.204223458479774
10
-141.9603740957771
20
40.204223458479774
10
-136.9603740957771
20
40.204223458479774
10
-136.9603740957771
20
35.204223458479774
0
LWPOLYLINE
5
253
100
AcDbEntity
8
0
100
AcDbPolyline
90
4
70
1
43
0.0
10
-131.9603740957771
20
35.204223458479774
10
-131.9603740957771
20
40.204223458479774
10
-126.9603740957771
20
40.204223458479774
10
-126.9603740957771
20
35.204223458479774
0
LWPOLYLINE
5
254
100
AcDbEntity
8
0
100
AcDbPolyline
90
4
70
1
43
0.0
10
-121.9603740957771
20
35.204223458479774
10
-121.9603740957771
20
40.204223458479774
10
-116.9603740957771
20
40.204223458479774
10
-116.9603740957771
20
35.204223458479774
0
LWPOLYLINE
5
255
100
AcDbEntity
8
0
100
AcDbPolyline
90
4
70
1
43
0.0
10
-111.9603740957771
20
35.204223458479774
10
-111.9603740957771
20
40.204223458479774
10
-106.9603740957771
20
40.204223458479774
10
-106.9603740957771
20
35.204223458479774
0
LWPOLYLINE
5
256
100
AcDbEntity
8
0
100
AcDbPolyline
90
4
70
1
43
0.0
10
-101.9603740957771
20
35.204223458479774
10
-101.9603740957771
20
40.204223458479774
10
-96.960374095777098
20
40.204223458479774
10
-96.960374095777098
20
35.204223458479774
0
LWPOLYLINE
5
257
100
AcDbEntity
8
0
100
AcDbPolyline
90
4
70
1
43
0.0
10
-91.960374095777098
20
35.204223458479774
10
-91.960374095777098
20
40.204223458479774
10
-86.960374095777098
20
40.204223458479774
10
-86.960374095777098
20
35.204223458479774
0
LWPOLYLINE
5
258
100
AcDbEntity
8
0
100
AcDbPolyline
90
4
70
1
43
0.0
10
-81.960374095777098
20
35.204223458479774
10
-81.960374095777098
20
40.204223458479774
10
-76.960374095777098
20
40.204223458479774
10
-76.960374095777098
20
35.204223458479774
0
LWPOLYLINE
5
259
100
AcDbEntity
8
0
100
AcDbPolyline
90
4
70
1
43
0.0
10
-71.960374095777098
20
35.204223458479774
10
-71.960374095777098
20
40.204223458479774
10
-66.960374095777098
20
40.204223458479774
10
-66.960374095777098
20
35.204223458479774
0
LWPOLYLINE
5
260
100
AcDbEntity
8
0
100
AcDbPolyline
90
4
70
1
43
0.0
10
-61.960374095777091
20
35.204223458479774
10
-61.960374095777091
20
40.204223458479774
10
-56.960374095777091
20
40.204223458479774
10
-56.960374095777091
20
35.204223458479774
0
LWPOLYLINE
5
261
100
AcDbEntity
8
0
100
AcDbPolyline
90
4
70
1
43
0.0
10
-51.960374095777091
20
35.204223458479774
10
-51.960374095777091
20
40.204223458479774
10
-46.960374095777091
20
40.204223458479774
10
-46.960374095777091
20
35.204223458479774
0
LWPOLYLINE
5
262
100
AcDbEntity
8
0
100
AcDbPolyline
90
4
70
1
43
0.0
10
-41.960374095777091
20
35.204223458479774
10
-41.960374095777091
20
40.204223458479774
10
-36.960374095777091
20
40.204223458479774
10
-36.960374095777091
20
35.204223458479774
0
LWPOLYLINE
5
263
100
AcDbEntity
8
0
100
AcDbPolyline
90
4
70
1
43
0.0
10
-31.960374095777091
20
35.204223458479774
10
-31.960374095777091
20
40.204223458479774
10
-26.960374095777091
20
40.204223458479774
10
-26.960374095777091
20
35.204223458479774
0
LWPOLYLINE
5
264
100
AcDbEntity
8
0
100
AcDbPolyline
90
4
70
1
43
0.0
10
-21.960374095777091
20
35.204223458479774
10
-21.960374095777091
20
40.204223458479774
10
-16.960374095777091
20
40.204223458479774
10
-16.960374095777091
20
35.204223458479774
0
LWPOLYLINE
5
265
100
AcDbEntity
8
0
100
AcDbPolyline
90
4
70
1
43
0.0
10
-11.960374095777091
20
35.204223458479774
10
-11.960374095777091
20
40.204223458479774
10
-6.960374095777091
20
40.204223458479774
10
-6.960374095777091
20
35.204223458479774
0
LWPOLYLINE
5
266
100
AcDbEntity
8
0
100
AcDbPolyline
90
4
70
1
43
0.0
10
-1.960374095777091
20
35.204223458479774
10
-1.960374095777091
20
40.204223458479774
10
3.039625904222909
20
40.204223458479774
10
3.039625904222909
20
35.204223458479774
0
LWPOLYLINE
5
267
100
AcDbEntity
8
0
100
AcDbPolyline
90
4
70
1
43
0.0
10
8.039625904222909
20
35.204223458479774
10
8.039625904222909
20
40.204223458479774
10
13.039625904222909
20
40.204223458479774
10
13.039625904222909
20
35.204223458479774
0
LWPOLYLINE
5
268
100
AcDbEntity
8
0
100
AcDbPolyline
90
4
70
1
43
0.0
10
18.039625904222909
20
35.204223458479774
10
18.039625904222909
20
40.204223458479774
10
23.039625904222909
20
40.204223458479774
10
23.039625904222909
20
35.204223458479774
0
LWPOLYLINE
5
269
100
AcDbEntity
8
0
100
AcDbPolyline
90
4
70
1
43
0.0
10
28.039625904222909
20
35.204223458479774
10
28.039625904222909
20
40.204223458479774
10
33.039625904222909
20
40.204223458479774
10
33.039625904222909
20
35.204223458479774
0
LWPOLYLINE
5
270
100
AcDbEntity
8
0
100
AcDbPolyline
90
4
70
1
43
0.0
10
38.039625904222909
20
35.204223458479774
10
38.039625904222909
20
40.204223458479774
10
43.039625904222909
20
40.204223458479774
10
43.039625904222909
20
35.204223458479774
0
LWPOLYLINE
5
271
100
AcDbEntity
8
0
100
AcDbPolyline
90
4
70
1
43
0.0
10
48.039625904222909
20
35.204223458479774
10
48.039625904222909
20
40.204223458479774
10
53.039625904222909
20
40.204223458479774
10
53.039625904222909
20
35.204223458479774
0
LWPOLYLINE
5
272
100
AcDbEntity
8
0
100
AcDbPolyline
90
4
70
1
43
0.0
10
58.039625904222909
20
35.204223458479774
10
58.039625904222909
20
40.204223458479774
10
63.039625904222909
20
40.204223458479774
10
63.039625904222909
20
35.204223458479774
0
LWPOLYLINE
5
273
100
AcDbEntity
8
0
100
AcDbPolyline
90
4
70
1
43
0.0
10
68.039625904222902
20
35.204223458479774
10
68.039625904222902
20
40.204223458479774
10
73.039625904222902
20
40.204223458479774
10
73.039625904222902
20
35.204223458479774
0
LWPOLYLINE
5
274
100
AcDbEntity
8
0
100
AcDbPolyline
90
4
70
1
43
0.0
10
78.039625904222902
20
35.204223458479774
10
78.039625904222902
20
40.204223458479774
10
83.039625904222902
20
40.204223458479774
10
83.039625904222902
20
35.204223458479774
0
LWPOLYLINE
5
275
100
AcDbEntity
8
0
100
AcDbPolyline
90
4
70
1
43
0.0
10
88.039625904222902
20
35.204223458479774
10
88.039625904222902
20
40.204223458479774
10
93.039625904222902
20
40.204223458479774
10
93.039625904222902
20
35.204223458479774
0
LWPOLYLINE
5
276
100
AcDbEntity
8
0
100
AcDbPolyline
90
4
70
1
43
0.0
10
98.039625904222902
20
35.204223458479774
10
98.039625904222902
20
40.204223458479774
10
103.0396259042229
20
40.204223458479774
10
103.0396259042229
20
35.204223458479774
0
LWPOLYLINE
5
277
100
AcDbEntity
8
0
100
AcDbPolyline
90
4
70
1
43
0.0
10
108.0396259042229
20
35.204223458479774
10
108.0396259042229
20
40.204223458479774
10
113.0396259042229
20
40.204223458479774
10
113.0396259042229
20
35.204223458479774
0
LWPOLYLINE
5
278
100
AcDbEntity
8
0
100
AcDbPolyline
90
4
70
1
43
0.0
10
118.0396259042229
20
35.204223458479774
10
118.0396259042229
20
40.204223458479774
10
123.0396259042229
20
40.204223458479774
10
123.0396259042229
20
35.204223458479774
0
LWPOLYLINE
5
279
100
AcDbEntity
8
0
100
AcDbPolyline
90
4
70
1
43
0.0
10
128.0396259042229
20
35.204223458479774
10
128.0396259042229
20
40.204223458479774
10
133.0396259042229
20
40.204223458479774
10
133.0396259042229
20
35.204223458479774
0
LWPOLYLINE
5
280
100
AcDbEntity
8
0
100
AcDbPolyline
90
4
70
1
43
0.0
10
-161.9603740957771
20
25.204223458479778
10
-161.9603740957771
20
30.204223458479778
10
-156.9603740957771
20
30.204223458479778
10
-156.9603740957771
20
25.204223458479778
0
LWPOLYLINE
5
281
100
AcDbEntity
8
0
100
AcDbPolyline
90
4
70
1
43
0.0
10
-151.9603740957771
20
25.204223458479778
10
-151.9603740957771
20
30.204223458479778
10
-146.9603740957771
20
30.204223458479778
10
-146.9603740957771
20
25.204223458479778
0
LWPOLYLINE
5
282
100
AcDbEntity
8
0
100
AcDbPolyline
90
4
70
1
43
0.0
10
-141.9603740957771
20
25.204223458479778
10
-141.9603740957771
20
30.204223458479778
10
-136.9603740957771
20
30.204223458479778
10
-136.9603740957771
20
25.204223458479778
0
LWPOLYLINE
5
283
100
AcDbEntity
8
0
100
AcDbPolyline
90
4
70
1
43
0.0
10
-131.9603740957771
20
25.204223458479778
10
-131.9603740957771
20
30.204223458479778
10
-126.9603740957771
20
30.204223458479778
10
-126.9603740957771
20
25.204223458479778
0
LWPOLYLINE
5
284
100
AcDbEntity
8
0
100
AcDbPolyline
90
4
70
1
43
0.0
10
-121.9603740957771
20
25.204223458479778
10
-121.9603740957771
20
30.204223458479778
10
-116.9603740957771
20
30.204223458479778
10
-116.9603740957771
20
25.204223458479778
0
LWPOLYLINE
5
285
100
AcDbEntity
8
0
100
AcDbPolyline
90
4
70
1
43
0.0
10
-111.9603740957771
20
25.204223458479778
10
-111.9603740957771
20
30.204223458479778
10
-106.9603740957771
20
30.204223458479778
10
-106.9603740957771
20
25.204223458479778
0
LWPOLYLINE
5
286
100
AcDbEntity
8
0
100
AcDbPolyline
90
4
70
1
43
0.0
10
-101.9603740957771
20
25.204223458479778
10
-101.9603740957771
20
30.204223458479778
10
-96.960374095777098
20
30.204223458479778
10
-96.960374095777098
20
25.204223458479778
0
LWPOLYLINE
5
287
100
AcDbEntity
8
0
100
AcDbPolyline
90
4
70
1
43
0.0
10
-91.960374095777098
20
25.204223458479778
10
-91.960374095777098
20
30.204223458479778
10
-86.960374095777098
20
30.204223458479778
10
-86.960374095777098
20
25.204223458479778
0
LWPOLYLINE
5
288
100
AcDbEntity
8
0
100
AcDbPolyline
90
4
70
1
43
0.0
10
-81.960374095777098
20
25.204223458479778
10
-81.960374095777098
20
30.204223458479778
10
-76.960374095777098
20
30.204223458479778
10
-76.960374095777098
20
25.204223458479778
0
LWPOLYLINE
5
289
100
AcDbEntity
8
0
100
AcDbPolyline
90
4
70
1
43
0.0
10
-71.960374095777098
20
25.204223458479778
10
-71.960374095777098
20
30.204223458479778
10
-66.960374095777098
20
30.204223458479778
10
-66.960374095777098
20
25.204223458479778
0
LWPOLYLINE
5
290
100
AcDbEntity
8
0
100
AcDbPolyline
90
4
70
1
43
0.0
10
-61.960374095777091
20
25.204223458479778
10
-61.960374095777091
20
30.204223458479778
10
-56.960374095777091
20
30.204223458479778
10
-56.960374095777091
20
25.204223458479778
0
LWPOLYLINE
5
291
100
AcDbEntity
8
0
100
AcDbPolyline
90
4
70
1
43
0.0
10
-51.960374095777091
20
25.204223458479778
10
-51.960374095777091
20
30.204223458479778
10
-46.960374095777091
20
30.204223458479778
10
-46.960374095777091
20
25.204223458479778
0
LWPOLYLINE
5
292
100
AcDbEntity
8
0
100
AcDbPolyline
90
4
70
1
43
0.0
10
-41.960374095777091
20
25.204223458479778
10
-41.960374095777091
20
30.204223458479778
10
-36.960374095777091
20
30.204223458479778
10
-36.960374095777091
20
25.204223458479778
0
LWPOLYLINE
5
293
100
AcDbEntity
8
0
100
AcDbPolyline
90
4
70
1
43
0.0
10
-31.960374095777091
20
25.204223458479778
10
-31.960374095777091
20
30.204223458479778
10
-26.960374095777091
20
30.204223458479778
10
-26.960374095777091
20
25.204223458479778
0
LWPOLYLINE
5
294
100
AcDbEntity
8
0
100
AcDbPolyline
90
4
70
1
43
0.0
10
-21.960374095777091
20
25.204223458479778
10
-21.960374095777091
20
30.204223458479778
10
-16.960374095777091
20
30.204223458479778
10
-16.960374095777091
20
25.204223458479778
0
LWPOLYLINE
5
295
100
AcDbEntity
8
0
100
AcDbPolyline
90
4
70
1
43
0.0
10
-11.960374095777091
20
25.204223458479778
10
-11.960374095777091
20
30.204223458479778
10
-6.960374095777091
20
30.204223458479778
10
-6.960374095777091
20
25.204223458479778
0
LWPOLYLINE
5
296
100
AcDbEntity
8
0
100
AcDbPolyline
90
4
70
1
43
0.0
10
-1.960374095777091
20
25.204223458479778
10
-1.960374095777091
20
30.204223458479778
10
3.039625904222909
20
30.204223458479778
10
3.039625904222909
20
25.204223458479778
0
LWPOLYLINE
5
297
100
AcDbEntity
8
0
100
AcDbPolyline
90
4
70
1
43
0.0
10
8.039625904222909
20
25.204223458479778
10
8.039625904222909
20
30.204223458479778
10
13.039625904222909
20
30.204223458479778
10
13.039625904222909
20
25.204223458479778
0
LWPOLYLINE
5
298
100
AcDbEntity
8
0
100
AcDbPolyline
90
4
70
1
43
0.0
10
18.039625904222909
20
25.204223458479778
10
18.039625904222909
20
30.204223458479778
10
23.039625904222909
20
30.204223458479778
10
23.039625904222909
20
25.204223458479778
0
LWPOLYLINE
5
299
100
AcDbEntity
8
0
100
AcDbPolyline
90
4
70
1
43
0.0
10
28.039625904222909
20
25.204223458479778
10
28.039625904222909
20
30.204223458479778
10
33.039625904222909
20
30.204223458479778
10
33.039625904222909
20
25.204223458479778
0
LWPOLYLINE
5
300
100
AcDbEntity
8
0
100
AcDbPolyline
90
4
70
1
43
0.0
10
38.039625904222909
20
25.204223458479778
10
38.039625904222909
20
30.204223458479778
10
43.039625904222909
20
30.204223458479778
10
43.039625904222909
20
25.204223458479778
0
LWPOLYLINE
5
301
100
AcDbEntity
8
0
100
AcDbPolyline
90
4
70
1
43
0.0
10
48.039625904222909
20
25.204223458479778
10
48.039625904222909
20
30.204223458479778
10
53.039625904222909
20
30.204223458479778
10
53.039625904222909
20
25.204223458479778
0
LWPOLYLINE
5
302
100
AcDbEntity
8
0
100
AcDbPolyline
90
4
70
1
43
0.0
10
58.039625904222909
20
25.204223458479778
10
58.039625904222909
20
30.204223458479778
10
63.039625904222909
20
30.204223458479778
10
63.039625904222909
20
25.204223458479778
0
LWPOLYLINE
5
303
100
AcDbEntity
8
0
100
AcDbPolyline
90
4
70
1
43
0.0
10
68.039625904222902
20
25.204223458479778
10
68.039625904222902
20
30.204223458479778
10
73.039625904222902
20
30.204223458479778
10
73.039625904222902
20
25.204223458479778
0
LWPOLYLINE
5
304
100
AcDbEntity
8
0
100
AcDbPolyline
90
4
70
1
43
0.0
10
78.039625904222902
20
25.204223458479778
10
78.039625904222902
20
30.204223458479778
10
83.039625904222902
20
30.204223458479778
10
83.039625904222902
20
25.204223458479778
0
LWPOLYLINE
5
305
100
AcDbEntity
8
0
100
AcDbPolyline
90
4
70
1
43
0.0
10
88.039625904222902
20
25.204223458479778
10
88.039625904222902
20
30.204223458479778
10
93.039625904222902
20
30.204223458479778
10
93.039625904222902
20
25.204223458479778
0
LWPOLYLINE
5
306
100
AcDbEntity
8
0
100
AcDbPolyline
90
4
70
1
43
0.0
10
98.039625904222902
20
25.204223458479778
10
98.039625904222902
20
30.204223458479778
10
103.0396259042229
20
30.204223458479778
10
103.0396259042229
20
25.204223458479778
0
LWPOLYLINE
5
307
100
AcDbEntity
8
0
100
AcDbPolyline
90
4
70
1
43
0.0
10
108.0396259042229
20
25.204223458479778
10
108.0396259042229
20
30.204223458479778
10
113.0396259042229
20
30.204223458479778
10
113.0396259042229
20
25.204223458479778
0
LWPOLYLINE
5
308
100
AcDbEntity
8
0
100
AcDbPolyline
90
4
70
1
43
0.0
10
118.0396259042229
20
25.204223458479778
10
118.0396259042229
20
30.204223458479778
10
123.0396259042229
20
30.204223458479778
10
123.0396259042229
20
25.204223458479778
0
LWPOLYLINE
5
309
100
AcDbEntity
8
0
100
AcDbPolyline
90
4
70
1
43
0.0
10
128.0396259042229
20
25.204223458479778
10
128.0396259042229
20
30.204223458479778
10
133.0396259042229
20
30.204223458479778
10
133.0396259042229
20
25.204223458479778
0
LWPOLYLINE
5
310
100
AcDbEntity
8
0
100
AcDbPolyline
90
4
70
1
43
0.0
10
-161.9603740957771
20
15.204223458479778
10
-161.9603740957771
20
20.204223458479778
10
-156.9603740957771
20
20.204223458479778
10
-156.9603740957771
20
15.204223458479778
0
LWPOLYLINE
5
311
100
AcDbEntity
8
0
100
AcDbPolyline
90
4
70
1
43
0.0
10
-151.9603740957771
20
15.204223458479778
10
-151.9603740957771
20
20.204223458479778
10
-146.9603740957771
20
20.204223458479778
10
-146.9603740957771
20
15.204223458479778
0
LWPOLYLINE
5
312
100
AcDbEntity
8
0
100
AcDbPolyline
90
4
70
1
43
0.0
10
-141.9603740957771
20
15.204223458479778
10
-141.9603740957771
20
20.204223458479778
10
-136.9603740957771
20
20.204223458479778
10
-136.9603740957771
20
15.204223458479778
0
LWPOLYLINE
5
313
100
AcDbEntity
8
0
100
AcDbPolyline
90
4
70
1
43
0.0
10
-131.9603740957771
20
15.204223458479778
10
-131.9603740957771
20
20.204223458479778
10
-126.9603740957771
20
20.204223458479778
10
-126.9603740957771
20
15.204223458479778
0
LWPOLYLINE
5
314
100
AcDbEntity
8
0
100
AcDbPolyline
90
4
70
1
43
0.0
10
-121.9603740957771
20
15.204223458479778
10
-121.9603740957771
20
20.204223458479778
10
-116.9603740957771
20
20.204223458479778
10
-116.9603740957771
20
15.204223458479778
0
LWPOLYLINE
5
315
100
AcDbEntity
8
0
100
AcDbPolyline
90
4
70
1
43
0.0
10
-111.9603740957771
20
15.204223458479778
10
-111.9603740957771
20
20.204223458479778
10
-106.9603740957771
20
20.204223458479778
10
-106.9603740957771
20
15.204223458479778
0
LWPOLYLINE
5
316
100
AcDbEntity
8
0
100
AcDbPolyline
90
4
70
1
43
0.0
10
-101.9603740957771
20
15.204223458479778
10
-101.9603740957771
20
20.204223458479778
10
-96.960374095777098
20
20.204223458479778
10
-96.960374095777098
20
15.204223458479778
0
LWPOLYLINE
5
317
100
AcDbEntity
8
0
100
AcDbPolyline
90
4
70
1
43
0.0
10
-91.960374095777098
20
15.204223458479778
10
-91.960374095777098
20
20.204223458479778
10
-86.960374095777098
20
20.204223458479778
10
-86.960374095777098
20
15.204223458479778
0
LWPOLYLINE
5
318
100
AcDbEntity
8
0
100
AcDbPolyline
90
4
70
1
43
0.0
10
-81.960374095777098
20
15.204223458479778
10
-81.960374095777098
20
20.204223458479778
10
-76.960374095777098
20
20.204223458479778
10
-76.960374095777098
20
15.204223458479778
0
LWPOLYLINE
5
319
100
AcDbEntity
8
0
100
AcDbPolyline
90
4
70
1
43
0.0
10
-71.960374095777098
20
15.204223458479778
10
-71.960374095777098
20
20.204223458479778
10
-66.960374095777098
20
20.204223458479778
10
-66.960374095777098
20
15.204223458479778
0
LWPOLYLINE
5
320
100
AcDbEntity
8
0
100
AcDbPolyline
90
4
70
1
43
0.0
10
-61.960374095777091
20
15.204223458479778
10
-61.960374095777091
20
20.204223458479778
10
-56.960374095777091
20
20.204223458479778
10
-56.960374095777091
20
15.204223458479778
0
LWPOLYLINE
5
321
100
AcDbEntity
8
0
100
AcDbPolyline
90
4
70
1
43
0.0
10
-51.960374095777091
20
15.204223458479778
10
-51.960374095777091
20
20.204223458479778
10
-46.960374095777091
20
20.204223458479778
10
-46.960374095777091
20
15.204223458479778
0
LWPOLYLINE
5
322
100
AcDbEntity
8
0
100
AcDbPolyline
90
4
70
1
43
0.0
10
-41.960374095777091
20
15.204223458479778
10
-41.960374095777091
20
20.204223458479778
10
-36.960374095777091
20
20.204223458479778
10
-36.960374095777091
20
15.204223458479778
0
LWPOLYLINE
5
323
100
AcDbEntity
8
0
100
AcDbPolyline
90
4
70
1
43
0.0
10
-31.960374095777091
20
15.204223458479778
10
-31.960374095777091
20
20.204223458479778
10
-26.960374095777091
20
20.204223458479778
10
-26.960374095777091
20
15.204223458479778
0
LWPOLYLINE
5
324
100
AcDbEntity
8
0
100
AcDbPolyline
90
4
70
1
43
0.0
10
-21.960374095777091
20
15.204223458479778
10
-21.960374095777091
20
20.204223458479778
10
-16.960374095777091
20
20.204223458479778
10
-16.960374095777091
20
15.204223458479778
0
LWPOLYLINE
5
325
100
AcDbEntity
8
0
100
AcDbPolyline
90
4
70
1
43
0.0
10
-11.960374095777091
20
15.204223458479778
10
-11.960374095777091
20
20.204223458479778
10
-6.960374095777091
20
20.204223458479778
10
-6.960374095777091
20
15.204223458479778
0
LWPOLYLINE
5
326
100
AcDbEntity
8
0
100
AcDbPolyline
90
4
70
1
43
0.0
10
-1.960374095777091
20
15.204223458479778
10
-1.960374095777091
20
20.204223458479778
10
3.039625904222909
20
20.204223458479778
10
3.039625904222909
20
15.204223458479778
0
LWPOLYLINE
5
327
100
AcDbEntity
8
0
100
AcDbPolyline
90
4
70
1
43
0.0
10
8.039625904222909
20
15.204223458479778
10
8.039625904222909
20
20.204223458479778
10
13.039625904222909
20
20.204223458479778
10
13.039625904222909
20
15.204223458479778
0
LWPOLYLINE
5
328
100
AcDbEntity
8
0
100
AcDbPolyline
90
4
70
1
43
0.0
10
18.039625904222909
20
15.204223458479778
10
18.039625904222909
20
20.204223458479778
10
23.039625904222909
20
20.204223458479778
10
23.039625904222909
20
15.204223458479778
0
LWPOLYLINE
5
329
100
AcDbEntity
8
0
100
AcDbPolyline
90
4
70
1
43
0.0
10
28.039625904222909
20
15.204223458479778
10
28.039625904222909
20
20.204223458479778
10
33.039625904222909
20
20.204223458479778
10
33.039625904222909
20
15.204223458479778
0
LWPOLYLINE
5
330
100
AcDbEntity
8
0
100
AcDbPolyline
90
4
70
1
43
0.0
10
38.039625904222909
20
15.204223458479778
10
38.039625904222909
20
20.204223458479778
10
43.039625904222909
20
20.204223458479778
10
43.039625904222909
20
15.204223458479778
0
LWPOLYLINE
5
331
100
AcDbEntity
8
0
100
AcDbPolyline
90
4
70
1
43
0.0
10
48.039625904222909
20
15.204223458479778
10
48.039625904222909
20
20.204223458479778
10
53.039625904222909
20
20.204223458479778
10
53.039625904222909
20
15.204223458479778
0
LWPOLYLINE
5
332
100
AcDbEntity
8
0
100
AcDbPolyline
90
4
70
1
43
0.0
10
58.039625904222909
20
15.204223458479778
10
58.039625904222909
20
20.204223458479778
10
63.039625904222909
20
20.204223458479778
10
63.039625904222909
20
15.204223458479778
0
LWPOLYLINE
5
333
100
AcDbEntity
8
0
100
AcDbPolyline
90
4
70
1
43
0.0
10
68.039625904222902
20
15.204223458479778
10
68.039625904222902
20
20.204223458479778
10
73.039625904222902
20
20.204223458479778
10
73.039625904222902
20
15.204223458479778
0
LWPOLYLINE
5
334
100
AcDbEntity
8
0
100
AcDbPolyline
90
4
70
1
43
0.0
10
78.039625904222902
20
15.204223458479778
10
78.039625904222902
20
20.204223458479778
10
83.039625904222902
20
20.204223458479778
10
83.039625904222902
20
15.204223458479778
0
LWPOLYLINE
5
335
100
AcDbEntity
8
0
100
AcDbPolyline
90
4
70
1
43
0.0
10
88.039625904222902
20
15.204223458479778
10
88.039625904222902
20
20.204223458479778
10
93.039625904222902
20
20.204223458479778
10
93.039625904222902
20
15.204223458479778
0
LWPOLYLINE
5
336
100
AcDbEntity
8
0
100
AcDbPolyline
90
4
70
1
43
0.0
10
98.039625904222902
20
15.204223458479778
10
98.039625904222902
20
20.204223458479778
10
103.0396259042229
20
20.204223458479778
10
103.0396259042229
20
15.204223458479778
0
LWPOLYLINE
5
337
100
AcDbEntity
8
0
100
AcDbPolyline
90
4
70
1
43
0.0
10
108.0396259042229
20
15.204223458479778
10
108.0396259042229
20
20.204223458479778
10
113.0396259042229
20
20.204223458479778
10
113.0396259042229
20
15.204223458479778
0
LWPOLYLINE
5
338
100
AcDbEntity
8
0
100
AcDbPolyline
90
4
70
1
43
0.0
10
118.0396259042229
20
15.204223458479778
10
118.0396259042229
20
20.204223458479778
10
123.0396259042229
20
20.204223458479778
10
123.0396259042229
20
15.204223458479778
0
LWPOLYLINE
5
339
100
AcDbEntity
8
0
100
AcDbPolyline
90
4
70
1
43
0.0
10
128.0396259042229
20
15.204223458479778
10
128.0396259042229
20
20.204223458479778
10
133.0396259042229
20
20.204223458479778
10
133.0396259042229
20
15.204223458479778
0
LWPOLYLINE
5
340
100
AcDbEntity
8
0
100
AcDbPolyline
90
4
70
1
43
0.0
10
-161.9603740957771
20
5.2042234584797775
10
-161.9603740957771
20
10.204223458479778
10
-156.9603740957771
20
10.204223458479778
10
-156.9603740957771
20
5.2042234584797775
0
LWPOLYLINE
5
341
100
AcDbEntity
8
0
100
AcDbPolyline
90
4
70
1
43
0.0
10
-151.9603740957771
20
5.2042234584797775
10
-151.9603740957771
20
10.204223458479778
10
-146.9603740957771
20
10.204223458479778
10
-146.9603740957771
20
5.2042234584797775
0
LWPOLYLINE
5
342
100
AcDbEntity
8
0
100
AcDbPolyline
90
4
70
1
43
0.0
10
-141.9603740957771
20
5.2042234584797775
10
-141.9603740957771
20
10.204223458479778
10
-136.9603740957771
20
10.204223458479778
10
-136.9603740957771
20
5.2042234584797775
0
LWPOLYLINE
5
343
100
AcDbEntity
8
0
100
AcDbPolyline
90
4
70
1
43
0.0
10
-131.9603740957771
20
5.2042234584797775
10
-131.9603740957771
20
10.204223458479778
10
-126.9603740957771
20
10.204223458479778
10
-126.9603740957771
20
5.2042234584797775
0
LWPOLYLINE
5
344
100
AcDbEntity
8
0
100
AcDbPolyline
90
4
70
1
43
0.0
10
-121.9603740957771
20
5.2042234584797775
10
-121.9603740957771
20
10.204223458479778
10
-116.9603740957771
20
10.204223458479778
10
-116.9603740957771
20
5.2042234584797775
0
LWPOLYLINE
5
345
100
AcDbEntity
8
0
100
AcDbPolyline
90
4
70
1
43
0.0
10
-111.9603740957771
20
5.2042234584797775
10
-111.9603740957771
20
10.204223458479778
10
-106.9603740957771
20
10.204223458479778
10
-106.9603740957771
20
5.2042234584797775
0
LWPOLYLINE
5
346
100
AcDbEntity
8
0
100
AcDbPolyline
90
4
70
1
43
0.0
10
-101.9603740957771
20
5.2042234584797775
10
-101.9603740957771
20
10.204223458479778
10
-96.960374095777098
20
10.204223458479778
10
-96.960374095777098
20
5.2042234584797775
0
LWPOLYLINE
5
347
100
AcDbEntity
8
0
100
AcDbPolyline
90
4
70
1
43
0.0
10
-91.960374095777098
20
5.2042234584797775
10
-91.960374095777098
20
10.204223458479778
10
-86.960374095777098
20
10.204223458479778
10
-86.960374095777098
20
5.2042234584797775
0
LWPOLYLINE
5
348
100
AcDbEntity
8
0
100
AcDbPolyline
90
4
70
1
43
0.0
10
-81.960374095777098
20
5.2042234584797775
10
-81.960374095777098
20
10.204223458479778
10
-76.960374095777098
20
10.204223458479778
10
-76.960374095777098
20
5.2042234584797775
0
LWPOLYLINE
5
349
100
AcDbEntity
8
0
100
AcDbPolyline
90
4
70
1
43
0.0
10
-71.960374095777098
20
5.2042234584797775
10
-71.960374095777098
20
10.204223458479778
10
-66.960374095777098
20
10.204223458479778
10
-66.960374095777098
20
5.2042234584797775
0
LWPOLYLINE
5
350
100
AcDbEntity
8
0
100
AcDbPolyline
90
4
70
1
43
0.0
10
-61.960374095777091
20
5.2042234584797775
10
-61.960374095777091
20
10.204223458479778
10
-56.960374095777091
20
10.204223458479778
10
-56.960374095777091
20
5.2042234584797775
0
LWPOLYLINE
5
351
100
AcDbEntity
8
0
100
AcDbPolyline
90
4
70
1
43
0.0
10
-51.960374095777091
20
5.2042234584797775
10
-51.960374095777091
20
10.204223458479778
10
-46.960374095777091
20
10.204223458479778
10
-46.960374095777091
20
5.2042234584797775
0
LWPOLYLINE
5
352
100
AcDbEntity
8
0
100
AcDbPolyline
90
4
70
1
43
0.0
10
-41.960374095777091
20
5.2042234584797775
10
-41.960374095777091
20
10.204223458479778
10
-36.960374095777091
20
10.204223458479778
10
-36.960374095777091
20
5.2042234584797775
0
LWPOLYLINE
5
353
100
AcDbEntity
8
0
100
AcDbPolyline
90
4
70
1
43
0.0
10
-31.960374095777091
20
5.2042234584797775
10
-31.960374095777091
20
10.204223458479778
10
-26.960374095777091
20
10.204223458479778
10
-26.960374095777091
20
5.2042234584797775
0
LWPOLYLINE
5
354
100
AcDbEntity
8
0
100
AcDbPolyline
90
4
70
1
43
0.0
10
-21.960374095777091
20
5.2042234584797775
10
-21.960374095777091
20
10.204223458479778
10
-16.960374095777091
20
10.204223458479778
10
-16.960374095777091
20
5.2042234584797775
0
LWPOLYLINE
5
355
100
AcDbEntity
8
0
100
AcDbPolyline
90
4
70
1
43
0.0
10
-11.960374095777091
20
5.2042234584797775
10
-11.960374095777091
20
10.204223458479778
10
-6.960374095777091
20
10.204223458479778
10
-6.960374095777091
20
5.2042234584797775
0
LWPOLYLINE
5
356
100
AcDbEntity
8
0
100
AcDbPolyline
90
4
70
1
43
0.0
10
-1.960374095777091
20
5.2042234584797775
10
-1.960374095777091
20
10.204223458479778
10
3.039625904222909
20
10.204223458479778
10
3.039625904222909
20
5.2042234584797775
0
LWPOLYLINE
5
357
100
AcDbEntity
8
0
100
AcDbPolyline
90
4
70
1
43
0.0
10
8.039625904222909
20
5.2042234584797775
10
8.039625904222909
20
10.204223458479778
10
13.039625904222909
20
10.204223458479778
10
13.039625904222909
20
5.2042234584797775
0
LWPOLYLINE
5
358
100
AcDbEntity
8
0
100
AcDbPolyline
90
4
70
1
43
0.0
10
18.039625904222909
20
5.2042234584797775
10
18.039625904222909
20
10.204223458479778
10
23.039625904222909
20
10.204223458479778
10
23.039625904222909
20
5.2042234584797775
0
LWPOLYLINE
5
359
100
AcDbEntity
8
0
100
AcDbPolyline
90
4
70
1
43
0.0
10
28.039625904222909
20
5.2042234584797775
10
28.039625904222909
20
10.204223458479778
10
33.039625904222909
20
10.204223458479778
10
33.039625904222909
20
5.2042234584797775
0
LWPOLYLINE
5
360
100
AcDbEntity
8
0
100
AcDbPolyline
90
4
70
1
43
0.0
10
38.039625904222909
20
5.2042234584797775
10
38.039625904222909
20
10.204223458479778
10
43.039625904222909
20
10.204223458479778
10
43.039625904222909
20
5.2042234584797775
0
LWPOLYLINE
5
361
100
AcDbEntity
8
0
100
AcDbPolyline
90
4
70
1
43
0.0
10
48.039625904222909
20
5.2042234584797775
10
48.039625904222909
20
10.204223458479778
10
53.039625904222909
20
10.204223458479778
10
53.039625904222909
20
5.2042234584797775
0
LWPOLYLINE
5
362
100
AcDbEntity
8
0
100
AcDbPolyline
90
4
70
1
43
0.0
10
58.039625904222909
20
5.2042234584797775
10
58.039625904222909
20
10.204223458479778
10
63.039625904222909
20
10.204223458479778
10
63.039625904222909
20
5.2042234584797775
0
LWPOLYLINE
5
363
100
AcDbEntity
8
0
100
AcDbPolyline
90
4
70
1
43
0.0
10
68.039625904222902
20
5.2042234584797775
10
68.039625904222902
20
10.204223458479778
10
73.039625904222902
20
10.204223458479778
10
73.039625904222902
20
5.2042234584797775
0
LWPOLYLINE
5
364
100
AcDbEntity
8
0
100
AcDbPolyline
90
4
70
1
43
0.0
10
78.039625904222902
20
5.2042234584797775
10
78.039625904222902
20
10.204223458479778
10
83.039625904222902
20
10.204223458479778
10
83.039625904222902
20
5.2042234584797775
0
LWPOLYLINE
5
365
100
AcDbEntity
8
0
100
AcDbPolyline
90
4
70
1
43
0.0
10
88.039625904222902
20
5.2042234584797775
10
88.039625904222902
20
10.204223458479778
10
93.039625904222902
20
10.204223458479778
10
93.039625904222902
20
5.2042234584797775
0
LWPOLYLINE
5
366
100
AcDbEntity
8
0
100
AcDbPolyline
90
4
70
1
43
0.0
10
98.039625904222902
20
5.2042234584797775
10
98.039625904222902
20
10.204223458479778
10
103.0396259042229
20
10.204223458479778
10
103.0396259042229
20
5.2042234584797775
0
LWPOLYLINE
5
367
100
AcDbEntity
8
0
100
AcDbPolyline
90
4
70
1
43
0.0
10
108.0396259042229
20
5.2042234584797775
10
108.0396259042229
20
10.204223458479778
10
113.0396259042229
20
10.204223458479778
10
113.0396259042229
20
5.2042234584797775
0
LWPOLYLINE
5
368
100
AcDbEntity
8
0
100
AcDbPolyline
90
4
70
1
43
0.0
10
118.0396259042229
20
5.2042234584797775
10
118.0396259042229
20
10.204223458479778
10
123.0396259042229
20
10.204223458479778
10
123.0396259042229
20
5.2042234584797775
0
LWPOLYLINE
5
369
100
AcDbEntity
8
0
100
AcDbPolyline
90
4
70
1
43
0.0
10
128.0396259042229
20
5.2042234584797775
10
128.0396259042229
20
10.204223458479778
10
133.0396259042229
20
10.204223458479778
10
133.0396259042229
20
5.2042234584797775
0
LWPOLYLINE
5
370
100
AcDbEntity
8
0
100
AcDbPolyline
90
4
70
1
43
0.0
10
-161.9603740957771
20
-4.7957765415202225
10
-161.9603740957771
20
0.20422345847977752
10
-156.9603740957771
20
0.20422345847977752
10
-156.9603740957771
20
-4.7957765415202225
0
LWPOLYLINE
5
371
100
AcDbEntity
8
0
100
AcDbPolyline
90
4
70
1
43
0.0
10
-151.9603740957771
20
-4.7957765415202225
10
-151.9603740957771
20
0.20422345847977752
10
-146.9603740957771
20
0.20422345847977752
10
-146.9603740957771
20
-4.7957765415202225
0
LWPOLYLINE
5
372
100
AcDbEntity
8
0
100
AcDbPolyline
90
4
70
1
43
0.0
10
-141.9603740957771
20
-4.7957765415202225
10
-141.9603740957771
20
0.20422345847977752
10
-136.9603740957771
20
0.20422345847977752
10
-136.9603740957771
20
-4.7957765415202225
0
LWPOLYLINE
5
373
100
AcDbEntity
8
0
100
AcDbPolyline
90
4
70
1
43
0.0
10
-131.9603740957771
20
-4.7957765415202225
10
-131.9603740957771
20
0.20422345847977752
10
-126.9603740957771
20
0.20422345847977752
10
-126.9603740957771
20
-4.7957765415202225
0
LWPOLYLINE
5
374
100
AcDbEntity
8
0
100
AcDbPolyline
90
4
70
1
43
0.0
10
-121.9603740957771
20
-4.7957765415202225
10
-121.9603740957771
20
0.20422345847977752
10
-116.9603740957771
20
0.20422345847977752
10
-116.9603740957771
20
-4.7957765415202225
0
LWPOLYLINE
5
375
100
AcDbEntity
8
0
100
AcDbPolyline
90
4
70
1
43
0.0
10
-111.9603740957771
20
-4.7957765415202225
10
-111.9603740957771
20
0.20422345847977752
10
-106.9603740957771
20
0.20422345847977752
10
-106.9603740957771
20
-4.7957765415202225
0
LWPOLYLINE
5
376
100
AcDbEntity
8
0
100
AcDbPolyline
90
4
70
1
43
0.0
10
-101.9603740957771
20
-4.7957765415202225
10
-101.9603740957771
20
0.20422345847977752
10
-96.960374095777098
20
0.20422345847977752
10
-96.960374095777098
20
-4.7957765415202225
0
LWPOLYLINE
5
377
100
AcDbEntity
8
0
100
AcDbPolyline
90
4
70
1
43
0.0
10
-91.960374095777098
20
-4.7957765415202225
10
-91.960374095777098
20
0.20422345847977752
10
-86.960374095777098
20
0.20422345847977752
10
-86.960374095777098
20
-4.7957765415202225
0
LWPOLYLINE
5
378
100
AcDbEntity
8
0
100
AcDbPolyline
90
4
70
1
43
0.0
10
-81.960374095777098
20
-4.7957765415202225
10
-81.960374095777098
20
0.20422345847977752
10
-76.960374095777098
20
0.20422345847977752
10
-76.960374095777098
20
-4.7957765415202225
0
LWPOLYLINE
5
379
100
AcDbEntity
8
0
100
AcDbPolyline
90
4
70
1
43
0.0
10
-71.960374095777098
20
-4.7957765415202225
10
-71.960374095777098
20
0.20422345847977752
10
-66.960374095777098
20
0.20422345847977752
10
-66.960374095777098
20
-4.7957765415202225
0
LWPOLYLINE
5
380
100
AcDbEntity
8
0
100
AcDbPolyline
90
4
70
1
43
0.0
10
-61.960374095777091
20
-4.7957765415202225
10
-61.960374095777091
20
0.20422345847977752
10
-56.960374095777091
20
0.20422345847977752
10
-56.960374095777091
20
-4.7957765415202225
0
LWPOLYLINE
5
381
100
AcDbEntity
8
0
100
AcDbPolyline
90
4
70
1
43
0.0
10
-51.960374095777091
20
-4.7957765415202225
10
-51.960374095777091
20
0.20422345847977752
10
-46.960374095777091
20
0.20422345847977752
10
-46.960374095777091
20
-4.7957765415202225
0
LWPOLYLINE
5
382
100
AcDbEntity
8
0
100
AcDbPolyline
90
4
70
1
43
0.0
10
-41.960374095777091
20
-4.7957765415202225
10
-41.960374095777091
20
0.20422345847977752
10
-36.960374095777091
20
0.20422345847977752
10
-36.960374095777091
20
-4.7957765415202225
0
LWPOLYLINE
5
383
100
AcDbEntity
8
0
100
AcDbPolyline
90
4
70
1
43
0.0
10
-31.960374095777091
20
-4.7957765415202225
10
-31.960374095777091
20
0.20422345847977752
10
-26.960374095777091
20
0.20422345847977752
10
-26.960374095777091
20
-4.7957765415202225
0
LWPOLYLINE
5
384
100
AcDbEntity
8
0
100
AcDbPolyline
90
4
70
1
43
0.0
10
-21.960374095777091
20
-4.7957765415202225
10
-21.960374095777091
20
0.20422345847977752
10
-16.960374095777091
20
0.20422345847977752
10
-16.960374095777091
20
-4.7957765415202225
0
LWPOLYLINE
5
385
100
AcDbEntity
8
0
100
AcDbPolyline
90
4
70
1
43
0.0
10
-11.960374095777091
20
-4.7957765415202225
10
-11.960374095777091
20
0.20422345847977752
10
-6.960374095777091
20
0.20422345847977752
10
-6.960374095777091
20
-4.7957765415202225
0
LWPOLYLINE
5
386
100
AcDbEntity
8
0
100
AcDbPolyline
90
4
70
1
43
0.0
10
-1.960374095777091
20
-4.7957765415202225
10
-1.960374095777091
20
0.20422345847977752
10
3.039625904222909
20
0.20422345847977752
10
3.039625904222909
20
-4.7957765415202225
0
LWPOLYLINE
5
387
100
AcDbEntity
8
0
100
AcDbPolyline
90
4
70
1
43
0.0
10
8.039625904222909
20
-4.7957765415202225
10
8.039625904222909
20
0.20422345847977752
10
13.039625904222909
20
0.20422345847977752
10
13.039625904222909
20
-4.7957765415202225
0
LWPOLYLINE
5
388
100
AcDbEntity
8
0
100
AcDbPolyline
90
4
70
1
43
0.0
10
18.039625904222909
20
-4.7957765415202225
10
18.039625904222909
20
0.20422345847977752
10
23.039625904222909
20
0.20422345847977752
10
23.039625904222909
20
-4.7957765415202225
0
LWPOLYLINE
5
389
100
AcDbEntity
8
0
100
AcDbPolyline
90
4
70
1
43
0.0
10
28.039625904222909
20
-4.7957765415202225
10
28.039625904222909
20
0.20422345847977752
10
33.039625904222909
20
0.20422345847977752
10
33.039625904222909
20
-4.7957765415202225
0
LWPOLYLINE
5
390
100
AcDbEntity
8
0
100
AcDbPolyline
90
4
70
1
43
0.0
10
38.039625904222909
20
-4.7957765415202225
10
38.039625904222909
20
0.20422345847977752
10
43.039625904222909
20
0.20422345847977752
10
43.039625904222909
20
-4.7957765415202225
0
LWPOLYLINE
5
391
100
AcDbEntity
8
0
100
AcDbPolyline
90
4
70
1
43
0.0
10
48.039625904222909
20
-4.7957765415202225
10
48.039625904222909
20
0.20422345847977752
10
53.039625904222909
20
0.20422345847977752
10
53.039625904222909
20
-4.7957765415202225
0
LWPOLYLINE
5
392
100
AcDbEntity
8
0
100
AcDbPolyline
90
4
70
1
43
0.0
10
58.039625904222909
20
-4.7957765415202225
10
58.039625904222909
20
0.20422345847977752
10
63.039625904222909
20
0.20422345847977752
10
63.039625904222909
20
-4.7957765415202225
0
LWPOLYLINE
5
393
100
AcDbEntity
8
0
100
AcDbPolyline
90
4
70
1
43
0.0
10
68.039625904222902
20
-4.7957765415202225
10
68.039625904222902
20
0.20422345847977752
10
73.039625904222902
20
0.20422345847977752
10
73.039625904222902
20
-4.7957765415202225
0
LWPOLYLINE
5
394
100
AcDbEntity
8
0
100
AcDbPolyline
90
4
70
1
43
0.0
10
78.039625904222902
20
-4.7957765415202225
10
78.039625904222902
20
0.20422345847977752
10
83.039625904222902
20
0.20422345847977752
10
83.039625904222902
20
-4.7957765415202225
0
LWPOLYLINE
5
395
100
AcDbEntity
8
0
100
AcDbPolyline
90
4
70
1
43
0.0
10
88.039625904222902
20
-4.7957765415202225
10
88.039625904222902
20
0.20422345847977752
10
93.039625904222902
20
0.20422345847977752
10
93.039625904222902
20
-4.7957765415202225
0
LWPOLYLINE
5
396
100
AcDbEntity
8
0
100
AcDbPolyline
90
4
70
1
43
0.0
10
98.039625904222902
20
-4.7957765415202225
10
98.039625904222902
20
0.20422345847977752
10
103.0396259042229
20
0.20422345847977752
10
103.0396259042229
20
-4.7957765415202225
0
LWPOLYLINE
5
397
100
AcDbEntity
8
0
100
AcDbPolyline
90
4
70
1
43
0.0
10
108.0396259042229
20
-4.7957765415202225
10
108.0396259042229
20
0.20422345847977752
10
113.0396259042229
20
0.20422345847977752
10
113.0396259042229
20
-4.7957765415202225
0
LWPOLYLINE
5
398
100
AcDbEntity
8
0
100
AcDbPolyline
90
4
70
1
43
0.0
10
118.0396259042229
20
-4.7957765415202225
10
118.0396259042229
20
0.20422345847977752
10
123.0396259042229
20
0.20422345847977752
10
123.0396259042229
20
-4.7957765415202225
0
LWPOLYLINE
5
399
100
AcDbEntity
8
0
100
AcDbPolyline
90
4
70
1
43
0.0
10
128.0396259042229
20
-4.7957765415202225
10
128.0396259042229
20
0.20422345847977752
10
133.0396259042229
20
0.20422345847977752
10
133.0396259042229
20
-4.7957765415202225
0
LWPOLYLINE
5
400
100
AcDbEntity
8
0
100
AcDbPolyline
90
4
70
1
43
0.0
10
-161.9603740957771
20
-14.795776541520222
10
-161.9603740957771
20
-9.7957765415202225
10
-156.9603740957771
20
-9.7957765415202225
10
-156.9603740957771
20
-14.795776541520222
0
LWPOLYLINE
5
401
100
AcDbEntity
8
0
100
AcDbPolyline
90
4
70
1
43
0.0
10
-151.9603740957771
20
-14.795776541520222
10
-151.9603740957771
20
-9.7957765415202225
10
-146.9603740957771
20
-9.7957765415202225
10
-146.9603740957771
20
-14.795776541520222
0
LWPOLYLINE
5
402
100
AcDbEntity
8
0
100
AcDbPolyline
90
4
70
1
43
0.0
10
-141.9603740957771
20
-14.795776541520222
10
-141.9603740957771
20
-9.7957765415202225
10
-136.9603740957771
20
-9.7957765415202225
10
-136.9603740957771
20
-14.795776541520222
0
LWPOLYLINE
5
403
100
AcDbEntity
8
0
100
AcDbPolyline
90
4
70
1
43
0.0
10
-131.9603740957771
20
-14.795776541520222
10
-131.9603740957771
20
-9.7957765415202225
10
-126.9603740957771
20
-9.7957765415202225
10
-126.9603740957771
20
-14.795776541520222
0
LWPOLYLINE
5
404
100
AcDbEntity
8
0
100
AcDbPolyline
90
4
70
1
43
0.0
10
-121.9603740957771
20
-14.795776541520222
10
-121.9603740957771
20
-9.7957765415202225
10
-116.9603740957771
20
-9.7957765415202225
10
-116.9603740957771
20
-14.795776541520222
0
LWPOLYLINE
5
405
100
AcDbEntity
8
0
100
AcDbPolyline
90
4
70
1
43
0.0
10
-111.9603740957771
20
-14.795776541520222
10
-111.9603740957771
20
-9.7957765415202225
10
-106.9603740957771
20
-9.7957765415202225
10
-106.9603740957771
20
-14.795776541520222
0
LWPOLYLINE
5
406
100
AcDbEntity
8
0
100
AcDbPolyline
90
4
70
1
43
0.0
10
-101.9603740957771
20
-14.795776541520222
10
-101.9603740957771
20
-9.7957765415202225
10
-96.960374095777098
20
-9.7957765415202225
10
-96.960374095777098
20
-14.795776541520222
0
LWPOLYLINE
5
407
100
AcDbEntity
8
0
100
AcDbPolyline
90
4
70
1
43
0.0
10
-91.960374095777098
20
-14.795776541520222
10
-91.960374095777098
20
-9.7957765415202225
10
-86.960374095777098
20
-9.7957765415202225
10
-86.960374095777098
20
-14.795776541520222
0
LWPOLYLINE
5
408
100
AcDbEntity
8
0
100
AcDbPolyline
90
4
70
1
43
0.0
10
-81.960374095777098
20
-14.795776541520222
10
-81.960374095777098
20
-9.7957765415202225
10
-76.960374095777098
20
-9.7957765415202225
10
-76.960374095777098
20
-14.795776541520222
0
LWPOLYLINE
5
409
100
AcDbEntity
8
0
100
AcDbPolyline
90
4
70
1
43
0.0
10
-71.960374095777098
20
-14.795776541520222
10
-71.960374095777098
20
-9.7957765415202225
10
-66.960374095777098
20
-9.7957765415202225
10
-66.960374095777098
20
-14.795776541520222
0
LWPOLYLINE
5
410
100
AcDbEntity
8
0
100
AcDbPolyline
90
4
70
1
43
0.0
10
-61.960374095777091
20
-14.795776541520222
10
-61.960374095777091
20
-9.7957765415202225
10
-56.960374095777091
20
-9.7957765415202225
10
-56.960374095777091
20
-14.795776541520222
0
LWPOLYLINE
5
411
100
AcDbEntity
8
0
100
AcDbPolyline
90
4
70
1
43
0.0
10
-51.960374095777091
20
-14.795776541520222
10
-51.960374095777091
20
-9.7957765415202225
10
-46.960374095777091
20
-9.7957765415202225
10
-46.960374095777091
20
-14.795776541520222
0
LWPOLYLINE
5
412
100
AcDbEntity
8
0
100
AcDbPolyline
90
4
70
1
43
0.0
10
-41.960374095777091
20
-14.795776541520222
10
-41.960374095777091
20
-9.7957765415202225
10
-36.960374095777091
20
-9.7957765415202225
10
-36.960374095777091
20
-14.795776541520222
0
LWPOLYLINE
5
413
100
AcDbEntity
8
0
100
AcDbPolyline
90
4
70
1
43
0.0
10
-31.960374095777091
20
-14.795776541520222
10
-31.960374095777091
20
-9.7957765415202225
10
-26.960374095777091
20
-9.7957765415202225
10
-26.960374095777091
20
-14.795776541520222
0
LWPOLYLINE
5
414
100
AcDbEntity
8
0
100
AcDbPolyline
90
4
70
1
43
0.0
10
-21.960374095777091
20
-14.795776541520222
10
-21.960374095777091
20
-9.7957765415202225
10
-16.960374095777091
20
-9.7957765415202225
10
-16.960374095777091
20
-14.795776541520222
0
LWPOLYLINE
5
415
100
AcDbEntity
8
0
100
AcDbPolyline
90
4
70
1
43
0.0
10
-11.960374095777091
20
-14.795776541520222
10
-11.960374095777091
20
-9.7957765415202225
10
-6.960374095777091
20
-9.7957765415202225
10
-6.960374095777091
20
-14.795776541520222
0
LWPOLYLINE
5
416
100
AcDbEntity
8
0
100
AcDbPolyline
90
4
70
1
43
0.0
10
-1.960374095777091
20
-14.795776541520222
10
-1.960374095777091
20
-9.7957765415202225
10
3.039625904222909
20
-9.7957765415202225
10
3.039625904222909
20
-14.795776541520222
0
LWPOLYLINE
5
417
100
AcDbEntity
8
0
100
AcDbPolyline
90
4
70
1
43
0.0
10
8.039625904222909
20
-14.795776541520222
10
8.039625904222909
20
-9.7957765415202225
10
13.039625904222909
20
-9.7957765415202225
10
13.039625904222909
20
-14.795776541520222
0
LWPOLYLINE
5
418
100
AcDbEntity
8
0
100
AcDbPolyline
90
4
70
1
43
0.0
10
18.039625904222909
20
-14.795776541520222
10
18.039625904222909
20
-9.7957765415202225
10
23.039625904222909
20
-9.7957765415202225
10
23.039625904222909
20
-14.795776541520222
0
LWPOLYLINE
5
419
100
AcDbEntity
8
0
100
AcDbPolyline
90
4
70
1
43
0.0
10
28.039625904222909
20
-14.795776541520222
10
28.039625904222909
20
-9.7957765415202225
10
33.039625904222909
20
-9.7957765415202225
10
33.039625904222909
20
-14.795776541520222
0
LWPOLYLINE
5
420
100
AcDbEntity
8
0
100
AcDbPolyline
90
4
70
1
43
0.0
10
38.039625904222909
20
-14.795776541520222
10
38.039625904222909
20
-9.7957765415202225
10
43.039625904222909
20
-9.7957765415202225
10
43.039625904222909
20
-14.795776541520222
0
LWPOLYLINE
5
421
100
AcDbEntity
8
0
100
AcDbPolyline
90
4
70
1
43
0.0
10
48.039625904222909
20
-14.795776541520222
10
48.039625904222909
20
-9.7957765415202225
10
53.039625904222909
20
-9.7957765415202225
10
53.039625904222909
20
-14.795776541520222
0
LWPOLYLINE
5
422
100
AcDbEntity
8
0
100
AcDbPolyline
90
4
70
1
43
0.0
10
58.039625904222909
20
-14.795776541520222
10
58.039625904222909
20
-9.7957765415202225
10
63.039625904222909
20
-9.7957765415202225
10
63.039625904222909
20
-14.795776541520222
0
LWPOLYLINE
5
423
100
AcDbEntity
8
0
100
AcDbPolyline
90
4
70
1
43
0.0
10
68.039625904222902
20
-14.795776541520222
10
68.039625904222902
20
-9.7957765415202225
10
73.039625904222902
20
-9.7957765415202225
10
73.039625904222902
20
-14.795776541520222
0
LWPOLYLINE
5
424
100
AcDbEntity
8
0
100
AcDbPolyline
90
4
70
1
43
0.0
10
78.039625904222902
20
-14.795776541520222
10
78.039625904222902
20
-9.7957765415202225
10
83.039625904222902
20
-9.7957765415202225
10
83.039625904222902
20
-14.795776541520222
0
LWPOLYLINE
5
425
100
AcDbEntity
8
0
100
AcDbPolyline
90
4
70
1
43
0.0
10
88.039625904222902
20
-14.795776541520222
10
88.039625904222902
20
-9.7957765415202225
10
93.039625904222902
20
-9.7957765415202225
10
93.039625904222902
20
-14.795776541520222
0
LWPOLYLINE
5
426
100
AcDbEntity
8
0
100
AcDbPolyline
90
4
70
1
43
0.0
10
98.039625904222902
20
-14.795776541520222
10
98.039625904222902
20
-9.7957765415202225
10
103.0396259042229
20
-9.7957765415202225
10
103.0396259042229
20
-14.795776541520222
0
LWPOLYLINE
5
427
100
AcDbEntity
8
0
100
AcDbPolyline
90
4
70
1
43
0.0
10
108.0396259042229
20
-14.795776541520222
10
108.0396259042229
20
-9.7957765415202225
10
113.0396259042229
20
-9.7957765415202225
10
113.0396259042229
20
-14.795776541520222
0
LWPOLYLINE
5
428
100
AcDbEntity
8
0
100
AcDbPolyline
90
4
70
1
43
0.0
10
118.0396259042229
20
-14.795776541520222
10
118.0396259042229
20
-9.7957765415202225
10
123.0396259042229
20
-9.7957765415202225
10
123.0396259042229
20
-14.795776541520222
0
LWPOLYLINE
5
429
100
AcDbEntity
8
0
100
AcDbPolyline
90
4
70
1
43
0.0
10
128.0396259042229
20
-14.795776541520222
10
128.0396259042229
20
-9.7957765415202225
10
133.0396259042229
20
-9.7957765415202225
10
133.0396259042229
20
-14.795776541520222
0
LWPOLYLINE
5
430
100
AcDbEntity
8
0
100
AcDbPolyline
90
4
70
1
43
0.0
10
-161.9603740957771
20
-24.795776541520222
10
-161.9603740957771
20
-19.795776541520222
10
-156.9603740957771
20
-19.795776541520222
10
-156.9603740957771
20
-24.795776541520222
0
LWPOLYLINE
5
431
100
AcDbEntity
8
0
100
AcDbPolyline
90
4
70
1
43
0.0
10
-151.9603740957771
20
-24.795776541520222
10
-151.9603740957771
20
-19.795776541520222
10
-146.9603740957771
20
-19.795776541520222
10
-146.9603740957771
20
-24.795776541520222
0
LWPOLYLINE
5
432
100
AcDbEntity
8
0
100
AcDbPolyline
90
4
70
1
43
0.0
10
-141.9603740957771
20
-24.795776541520222
10
-141.9603740957771
20
-19.795776541520222
10
-136.9603740957771
20
-19.795776541520222
10
-136.9603740957771
20
-24.795776541520222
0
LWPOLYLINE
5
433
100
AcDbEntity
8
0
100
AcDbPolyline
90
4
70
1
43
0.0
10
-131.9603740957771
20
-24.795776541520222
10
-131.9603740957771
20
-19.795776541520222
10
-126.9603740957771
20
-19.795776541520222
10
-126.9603740957771
20
-24.795776541520222
0
LWPOLYLINE
5
434
100
AcDbEntity
8
0
100
AcDbPolyline
90
4
70
1
43
0.0
10
-121.9603740957771
20
-24.795776541520222
10
-121.9603740957771
20
-19.795776541520222
10
-116.9603740957771
20
-19.795776541520222
10
-116.9603740957771
20
-24.795776541520222
0
LWPOLYLINE
5
435
100
AcDbEntity
8
0
100
AcDbPolyline
90
4
70
1
43
0.0
10
-111.9603740957771
20
-24.795776541520222
10
-111.9603740957771
20
-19.795776541520222
10
-106.9603740957771
20
-19.795776541520222
10
-106.9603740957771
20
-24.795776541520222
0
LWPOLYLINE
5
436
100
AcDbEntity
8
0
100
AcDbPolyline
90
4
70
1
43
0.0
10
-101.9603740957771
20
-24.795776541520222
10
-101.9603740957771
20
-19.795776541520222
10
-96.960374095777098
20
-19.795776541520222
10
-96.960374095777098
20
-24.795776541520222
0
LWPOLYLINE
5
437
100
AcDbEntity
8
0
100
AcDbPolyline
90
4
70
1
43
0.0
10
-91.960374095777098
20
-24.795776541520222
10
-91.960374095777098
20
-19.795776541520222
10
-86.960374095777098
20
-19.795776541520222
10
-86.960374095777098
20
-24.795776541520222
0
LWPOLYLINE
5
438
100
AcDbEntity
8
0
100
AcDbPolyline
90
4
70
1
43
0.0
10
-81.960374095777098
20
-24.795776541520222
10
-81.960374095777098
20
-19.795776541520222
10
-76.960374095777098
20
-19.795776541520222
10
-76.960374095777098
20
-24.795776541520222
0
LWPOLYLINE
5
439
100
AcDbEntity
8
0
100
AcDbPolyline
90
4
70
1
43
0.0
10
-71.960374095777098
20
-24.795776541520222
10
-71.960374095777098
20
-19.795776541520222
10
-66.960374095777098
20
-19.795776541520222
10
-66.960374095777098
20
-24.795776541520222
0
LWPOLYLINE
5
440
100
AcDbEntity
8
0
100
AcDbPolyline
90
4
70
1
43
0.0
10
-61.960374095777091
20
-24.795776541520222
10
-61.960374095777091
20
-19.795776541520222
10
-56.960374095777091
20
-19.795776541520222
10
-56.960374095777091
20
-24.795776541520222
0
LWPOLYLINE
5
441
100
AcDbEntity
8
0
100
AcDbPolyline
90
4
70
1
43
0.0
10
-51.960374095777091
20
-24.795776541520222
10
-51.960374095777091
20
-19.795776541520222
10
-46.960374095777091
20
-19.795776541520222
10
-46.960374095777091
20
-24.795776541520222
0
LWPOLYLINE
5
442
100
AcDbEntity
8
0
100
AcDbPolyline
90
4
70
1
43
0.0
10
-41.960374095777091
20
-24.795776541520222
10
-41.960374095777091
20
-19.795776541520222
10
-36.960374095777091
20
-19.795776541520222
10
-36.960374095777091
20
-24.795776541520222
0
LWPOLYLINE
5
443
100
AcDbEntity
8
0
100
AcDbPolyline
90
4
70
1
43
0.0
10
-31.960374095777091
20
-24.795776541520222
10
-31.960374095777091
20
-19.795776541520222
10
-26.960374095777091
20
-19.795776541520222
10
-26.960374095777091
20
-24.795776541520222
0
LWPOLYLINE
5
444
100
AcDbEntity
8
0
100
AcDbPolyline
90
4
70
1
43
0.0
10
-21.960374095777091
20
-24.795776541520222
10
-21.960374095777091
20
-19.795776541520222
10
-16.960374095777091
20
-19.795776541520222
10
-16.960374095777091
20
-24.795776541520222
0
LWPOLYLINE
5
445
100
AcDbEntity
8
0
100
AcDbPolyline
90
4
70
1
43
0.0
10
-11.960374095777091
20
-24.795776541520222
10
-11.960374095777091
20
-19.795776541520222
10
-6.960374095777091
20
-19.795776541520222
10
-6.960374095777091
20
-24.795776541520222
0
LWPOLYLINE
5
446
100
AcDbEntity
8
0
100
AcDbPolyline
90
4
70
1
43
0.0
10
-1.960374095777091
20
-24.795776541520222
10
-1.960374095777091
20
-19.795776541520222
10
3.039625904222909
20
-19.795776541520222
10
3.039625904222909
20
-24.795776541520222
0
LWPOLYLINE
5
447
100
AcDbEntity
8
0
100
AcDbPolyline
90
4
70
1
43
0.0
10
8.039625904222909
20
-24.795776541520222
10
8.039625904222909
20
-19.795776541520222
10
13.039625904222909
20
-19.795776541520222
10
13.039625904222909
20
-24.795776541520222
0
LWPOLYLINE
5
448
100
AcDbEntity
8
0
100
AcDbPolyline
90
4
70
1
43
0.0
10
18.039625904222909
20
-24.795776541520222
10
18.039625904222909
20
-19.795776541520222
10
23.039625904222909
20
-19.795776541520222
10
23.039625904222909
20
-24.795776541520222
0
LWPOLYLINE
5
449
100
AcDbEntity
8
0
100
AcDbPolyline
90
4
70
1
43
0.0
10
28.039625904222909
20
-24.795776541520222
10
28.039625904222909
20
-19.795776541520222
10
33.039625904222909
20
-19.795776541520222
10
33.039625904222909
20
-24.795776541520222
0
LWPOLYLINE
5
450
100
AcDbEntity
8
0
100
AcDbPolyline
90
4
70
1
43
0.0
10
38.039625904222909
20
-24.795776541520222
10
38.039625904222909
20
-19.795776541520222
10
43.039625904222909
20
-19.795776541520222
10
43.039625904222909
20
-24.795776541520222
0
LWPOLYLINE
5
451
100
AcDbEntity
8
0
100
AcDbPolyline
90
4
70
1
43
0.0
10
48.039625904222909
20
-24.795776541520222
10
48.039625904222909
20
-19.795776541520222
10
53.039625904222909
20
-19.795776541520222
10
53.039625904222909
20
-24.795776541520222
0
LWPOLYLINE
5
452
100
AcDbEntity
8
0
100
AcDbPolyline
90
4
70
1
43
0.0
10
58.039625904222909
20
-24.795776541520222
10
58.039625904222909
20
-19.795776541520222
10
63.039625904222909
20
-19.795776541520222
10
63.039625904222909
20
-24.795776541520222
0
LWPOLYLINE
5
453
100
AcDbEntity
8
0
100
AcDbPolyline
90
4
70
1
43
0.0
10
68.039625904222902
20
-24.795776541520222
10
68.039625904222902
20
-19.795776541520222
10
73.039625904222902
20
-19.795776541520222
10
73.039625904222902
20
-24.795776541520222
0
LWPOLYLINE
5
454
100
AcDbEntity
8
0
100
AcDbPolyline
90
4
70
1
43
0.0
10
78.039625904222902
20
-24.795776541520222
10
78.039625904222902
20
-19.795776541520222
10
83.039625904222902
20
-19.795776541520222
10
83.039625904222902
20
-24.795776541520222
0
LWPOLYLINE
5
455
100
AcDbEntity
8
0
100
AcDbPolyline
90
4
70
1
43
0.0
10
88.039625904222902
20
-24.795776541520222
10
88.039625904222902
20
-19.795776541520222
10
93.039625904222902
20
-19.795776541520222
10
93.039625904222902
20
-24.795776541520222
0
LWPOLYLINE
5
456
100
AcDbEntity
8
0
100
AcDbPolyline
90
4
70
1
43
0.0
10
98.039625904222902
20
-24.795776541520222
10
98.039625904222902
20
-19.795776541520222
10
103.0396259042229
20
-19.795776541520222
10
103.0396259042229
20
-24.795776541520222
0
LWPOLYLINE
5
457
100
AcDbEntity
8
0
100
AcDbPolyline
90
4
70
1
43
0.0
10
108.0396259042229
20
-24.795776541520222
10
108.0396259042229
20
-19.795776541520222
10
113.0396259042229
20
-19.795776541520222
10
113.0396259042229
20
-24.795776541520222
0
LWPOLYLINE
5
458
100
AcDbEntity
8
0
100
AcDbPolyline
90
4
70
1
43
0.0
10
118.0396259042229
20
-24.795776541520222
10
118.0396259042229
20
-19.795776541520222
10
123.0396259042229
20
-19.795776541520222
10
123.0396259042229
20
-24.795776541520222
0
LWPOLYLINE
5
459
100
AcDbEntity
8
0
100
AcDbPolyline
90
4
70
1
43
0.0
10
128.0396259042229
20
-24.795776541520222
10
128.0396259042229
20
-19.795776541520222
10
133.0396259042229
20
-19.795776541520222
10
133.0396259042229
20
-24.795776541520222
0
LWPOLYLINE
5
460
100
AcDbEntity
8
0
100
AcDbPolyline
90
4
70
1
43
0.0
10
-161.9603740957771
20
-34.795776541520226
10
-161.9603740957771
20
-29.795776541520222
10
-156.9603740957771
20
-29.795776541520222
10
-156.9603740957771
20
-34.795776541520226
0
LWPOLYLINE
5
461
100
AcDbEntity
8
0
100
AcDbPolyline
90
4
70
1
43
0.0
10
-151.9603740957771
20
-34.795776541520226
10
-151.9603740957771
20
-29.795776541520222
10
-146.9603740957771
20
-29.795776541520222
10
-146.9603740957771
20
-34.795776541520226
0
LWPOLYLINE
5
462
100
AcDbEntity
8
0
100
AcDbPolyline
90
4
70
1
43
0.0
10
-141.9603740957771
20
-34.795776541520226
10
-141.9603740957771
20
-29.795776541520222
10
-136.9603740957771
20
-29.795776541520222
10
-136.9603740957771
20
-34.795776541520226
0
LWPOLYLINE
5
463
100
AcDbEntity
8
0
100
AcDbPolyline
90
4
70
1
43
0.0
10
-131.9603740957771
20
-34.795776541520226
10
-131.9603740957771
20
-29.795776541520222
10
-126.9603740957771
20
-29.795776541520222
10
-126.9603740957771
20
-34.795776541520226
0
LWPOLYLINE
5
464
100
AcDbEntity
8
0
100
AcDbPolyline
90
4
70
1
43
0.0
10
-121.9603740957771
20
-34.795776541520226
10
-121.9603740957771
20
-29.795776541520222
10
-116.9603740957771
20
-29.795776541520222
10
-116.9603740957771
20
-34.795776541520226
0
LWPOLYLINE
5
465
100
AcDbEntity
8
0
100
AcDbPolyline
90
4
70
1
43
0.0
10
-111.9603740957771
20
-34.795776541520226
10
-111.9603740957771
20
-29.795776541520222
10
-106.9603740957771
20
-29.795776541520222
10
-106.9603740957771
20
-34.795776541520226
0
LWPOLYLINE
5
466
100
AcDbEntity
8
0
100
AcDbPolyline
90
4
70
1
43
0.0
10
-101.9603740957771
20
-34.795776541520226
10
-101.9603740957771
20
-29.795776541520222
10
-96.960374095777098
20
-29.795776541520222
10
-96.960374095777098
20
-34.795776541520226
0
LWPOLYLINE
5
467
100
AcDbEntity
8
0
100
AcDbPolyline
90
4
70
1
43
0.0
10
-91.960374095777098
20
-34.795776541520226
10
-91.960374095777098
20
-29.795776541520222
10
-86.960374095777098
20
-29.795776541520222
10
-86.960374095777098
20
-34.795776541520226
0
LWPOLYLINE
5
468
100
AcDbEntity
8
0
100
AcDbPolyline
90
4
70
1
43
0.0
10
-81.960374095777098
20
-34.795776541520226
10
-81.960374095777098
20
-29.795776541520222
10
-76.960374095777098
20
-29.795776541520222
10
-76.960374095777098
20
-34.795776541520226
0
LWPOLYLINE
5
469
100
AcDbEntity
8
0
100
AcDbPolyline
90
4
70
1
43
0.0
10
-71.960374095777098
20
-34.795776541520226
10
-71.960374095777098
20
-29.795776541520222
10
-66.960374095777098
20
-29.795776541520222
10
-66.960374095777098
20
-34.795776541520226
0
LWPOLYLINE
5
470
100
AcDbEntity
8
0
100
AcDbPolyline
90
4
70
1
43
0.0
10
-61.960374095777091
20
-34.795776541520226
10
-61.960374095777091
20
-29.795776541520222
10
-56.960374095777091
20
-29.795776541520222
10
-56.960374095777091
20
-34.795776541520226
0
LWPOLYLINE
5
471
100
AcDbEntity
8
0
100
AcDbPolyline
90
4
70
1
43
0.0
10
-51.960374095777091
20
-34.795776541520226
10
-51.960374095777091
20
-29.795776541520222
10
-46.960374095777091
20
-29.795776541520222
10
-46.960374095777091
20
-34.795776541520226
0
LWPOLYLINE
5
472
100
AcDbEntity
8
0
100
AcDbPolyline
90
4
70
1
43
0.0
10
-41.960374095777091
20
-34.795776541520226
10
-41.960374095777091
20
-29.795776541520222
10
-36.960374095777091
20
-29.795776541520222
10
-36.960374095777091
20
-34.795776541520226
0
LWPOLYLINE
5
473
100
AcDbEntity
8
0
100
AcDbPolyline
90
4
70
1
43
0.0
10
-31.960374095777091
20
-34.795776541520226
10
-31.960374095777091
20
-29.795776541520222
10
-26.960374095777091
20
-29.795776541520222
10
-26.960374095777091
20
-34.795776541520226
0
LWPOLYLINE
5
474
100
AcDbEntity
8
0
100
AcDbPolyline
90
4
70
1
43
0.0
10
-21.960374095777091
20
-34.795776541520226
10
-21.960374095777091
20
-29.795776541520222
10
-16.960374095777091
20
-29.795776541520222
10
-16.960374095777091
20
-34.795776541520226
0
LWPOLYLINE
5
475
100
AcDbEntity
8
0
100
AcDbPolyline
90
4
70
1
43
0.0
10
-11.960374095777091
20
-34.795776541520226
10
-11.960374095777091
20
-29.795776541520222
10
-6.960374095777091
20
-29.795776541520222
10
-6.960374095777091
20
-34.795776541520226
0
LWPOLYLINE
5
476
100
AcDbEntity
8
0
100
AcDbPolyline
90
4
70
1
43
0.0
10
-1.960374095777091
20
-34.795776541520226
10
-1.960374095777091
20
-29.795776541520222
10
3.039625904222909
20
-29.795776541520222
10
3.039625904222909
20
-34.795776541520226
0
LWPOLYLINE
5
477
100
AcDbEntity
8
0
100
AcDbPolyline
90
4
70
1
43
0.0
10
8.039625904222909
20
-34.795776541520226
10
8.039625904222909
20
-29.795776541520222
10
13.039625904222909
20
-29.795776541520222
10
13.039625904222909
20
-34.795776541520226
0
LWPOLYLINE
5
478
100
AcDbEntity
8
0
100
AcDbPolyline
90
4
70
1
43
0.0
10
18.039625904222909
20
-34.795776541520226
10
18.039625904222909
20
-29.795776541520222
10
23.039625904222909
20
-29.795776541520222
10
23.039625904222909
20
-34.795776541520226
0
LWPOLYLINE
5
479
100
AcDbEntity
8
0
100
AcDbPolyline
90
4
70
1
43
0.0
10
28.039625904222909
20
-34.795776541520226
10
28.039625904222909
20
-29.795776541520222
10
33.039625904222909
20
-29.795776541520222
10
33.039625904222909
20
-34.795776541520226
0
LWPOLYLINE
5
480
100
AcDbEntity
8
0
100
AcDbPolyline
90
4
70
1
43
0.0
10
38.039625904222909
20
-34.795776541520226
10
38.039625904222909
20
-29.795776541520222
10
43.039625904222909
20
-29.795776541520222
10
43.039625904222909
20
-34.795776541520226
0
LWPOLYLINE
5
481
100
AcDbEntity
8
0
100
AcDbPolyline
90
4
70
1
43
0.0
10
48.039625904222909
20
-34.795776541520226
10
48.039625904222909
20
-29.795776541520222
10
53.039625904222909
20
-29.795776541520222
10
53.039625904222909
20
-34.795776541520226
0
LWPOLYLINE
5
482
100
AcDbEntity
8
0
100
AcDbPolyline
90
4
70
1
43
0.0
10
58.039625904222909
20
-34.795776541520226
10
58.039625904222909
20
-29.795776541520222
10
63.039625904222909
20
-29.795776541520222
10
63.039625904222909
20
-34.795776541520226
0
LWPOLYLINE
5
483
100
AcDbEntity
8
0
100
AcDbPolyline
90
4
70
1
43
0.0
10
68.039625904222902
20
-34.795776541520226
10
68.039625904222902
20
-29.795776541520222
10
73.039625904222902
20
-29.795776541520222
10
73.039625904222902
20
-34.795776541520226
0
LWPOLYLINE
5
484
100
AcDbEntity
8
0
100
AcDbPolyline
90
4
70
1
43
0.0
10
78.039625904222902
20
-34.795776541520226
10
78.039625904222902
20
-29.795776541520222
10
83.039625904222902
20
-29.795776541520222
10
83.039625904222902
20
-34.795776541520226
0
LWPOLYLINE
5
485
100
AcDbEntity
8
0
100
AcDbPolyline
90
4
70
1
43
0.0
10
88.039625904222902
20
-34.795776541520226
10
88.039625904222902
20
-29.795776541520222
10
93.039625904222902
20
-29.795776541520222
10
93.039625904222902
20
-34.795776541520226
0
LWPOLYLINE
5
486
100
AcDbEntity
8
0
100
AcDbPolyline
90
4
70
1
43
0.0
10
98.039625904222902
20
-34.795776541520226
10
98.039625904222902
20
-29.795776541520222
10
103.0396259042229
20
-29.795776541520222
10
103.0396259042229
20
-34.795776541520226
0
LWPOLYLINE
5
487
100
AcDbEntity
8
0
100
AcDbPolyline
90
4
70
1
43
0.0
10
108.0396259042229
20
-34.795776541520226
10
108.0396259042229
20
-29.795776541520222
10
113.0396259042229
20
-29.795776541520222
10
113.0396259042229
20
-34.795776541520226
0
LWPOLYLINE
5
488
100
AcDbEntity
8
0
100
AcDbPolyline
90
4
70
1
43
0.0
10
118.0396259042229
20
-34.795776541520226
10
118.0396259042229
20
-29.795776541520222
10
123.0396259042229
20
-29.795776541520222
10
123.0396259042229
20
-34.795776541520226
0
LWPOLYLINE
5
489
100
AcDbEntity
8
0
100
AcDbPolyline
90
4
70
1
43
0.0
10
128.0396259042229
20
-34.795776541520226
10
128.0396259042229
20
-29.795776541520222
10
133.0396259042229
20
-29.795776541520222
10
133.0396259042229
20
-34.795776541520226
0
LWPOLYLINE
5
490
100
AcDbEntity
8
0
100
AcDbPolyline
90
4
70
1
43
0.0
10
-161.9603740957771
20
-44.795776541520226
10
-161.9603740957771
20
-39.795776541520226
10
-156.9603740957771
20
-39.795776541520226
10
-156.9603740957771
20
-44.795776541520226
0
LWPOLYLINE
5
491
100
AcDbEntity
8
0
100
AcDbPolyline
90
4
70
1
43
0.0
10
-151.9603740957771
20
-44.795776541520226
10
-151.9603740957771
20
-39.795776541520226
10
-146.9603740957771
20
-39.795776541520226
10
-146.9603740957771
20
-44.795776541520226
0
LWPOLYLINE
5
492
100
AcDbEntity
8
0
100
AcDbPolyline
90
4
70
1
43
0.0
10
-141.9603740957771
20
-44.795776541520226
10
-141.9603740957771
20
-39.795776541520226
10
-136.9603740957771
20
-39.795776541520226
10
-136.9603740957771
20
-44.795776541520226
0
LWPOLYLINE
5
493
100
AcDbEntity
8
0
100
AcDbPolyline
90
4
70
1
43
0.0
10
-131.9603740957771
20
-44.795776541520226
10
-131.9603740957771
20
-39.795776541520226
10
-126.9603740957771
20
-39.795776541520226
10
-126.9603740957771
20
-44.795776541520226
0
LWPOLYLINE
5
494
100
AcDbEntity
8
0
100
AcDbPolyline
90
4
70
1
43
0.0
10
-121.9603740957771
20
-44.795776541520226
10
-121.9603740957771
20
-39.795776541520226
10
-116.9603740957771
20
-39.795776541520226
10
-116.9603740957771
20
-44.795776541520226
0
LWPOLYLINE
5
495
100
AcDbEntity
8
0
100
AcDbPolyline
90
4
70
1
43
0.0
10
-111.9603740957771
20
-44.795776541520226
10
-111.9603740957771
20
-39.795776541520226
10
-106.9603740957771
20
-39.795776541520226
10
-106.9603740957771
20
-44.795776541520226
0
LWPOLYLINE
5
496
100
AcDbEntity
8
0
100
AcDbPolyline
90
4
70
1
43
0.0
10
-101.9603740957771
20
-44.795776541520226
10
-101.9603740957771
20
-39.795776541520226
10
-96.960374095777098
20
-39.795776541520226
10
-96.960374095777098
20
-44.795776541520226
0
LWPOLYLINE
5
497
100
AcDbEntity
8
0
100
AcDbPolyline
90
4
70
1
43
0.0
10
-91.960374095777098
20
-44.795776541520226
10
-91.960374095777098
20
-39.795776541520226
10
-86.960374095777098
20
-39.795776541520226
10
-86.960374095777098
20
-44.795776541520226
0
LWPOLYLINE
5
498
100
AcDbEntity
8
0
100
AcDbPolyline
90
4
70
1
43
0.0
10
-81.960374095777098
20
-44.795776541520226
10
-81.960374095777098
20
-39.795776541520226
10
-76.960374095777098
20
-39.795776541520226
10
-76.960374095777098
20
-44.795776541520226
0
LWPOLYLINE
5
499
100
AcDbEntity
8
0
100
AcDbPolyline
90
4
70
1
43
0.0
10
-71.960374095777098
20
-44.795776541520226
10
-71.960374095777098
20
-39.795776541520226
10
-66.960374095777098
20
-39.795776541520226
10
-66.960374095777098
20
-44.795776541520226
0
LWPOLYLINE
5
500
100
AcDbEntity
8
0
100
AcDbPolyline
90
4
70
1
43
0.0
10
-61.960374095777091
20
-44.795776541520226
10
-61.960374095777091
20
-39.795776541520226
10
-56.960374095777091
20
-39.795776541520226
10
-56.960374095777091
20
-44.795776541520226
0
LWPOLYLINE
5
501
100
AcDbEntity
8
0
100
AcDbPolyline
90
4
70
1
43
0.0
10
-51.960374095777091
20
-44.795776541520226
10
-51.960374095777091
20
-39.795776541520226
10
-46.960374095777091
20
-39.795776541520226
10
-46.960374095777091
20
-44.795776541520226
0
LWPOLYLINE
5
502
100
AcDbEntity
8
0
100
AcDbPolyline
90
4
70
1
43
0.0
10
-41.960374095777091
20
-44.795776541520226
10
-41.960374095777091
20
-39.795776541520226
10
-36.960374095777091
20
-39.795776541520226
10
-36.960374095777091
20
-44.795776541520226
0
LWPOLYLINE
5
503
100
AcDbEntity
8
0
100
AcDbPolyline
90
4
70
1
43
0.0
10
-31.960374095777091
20
-44.795776541520226
10
-31.960374095777091
20
-39.795776541520226
10
-26.960374095777091
20
-39.795776541520226
10
-26.960374095777091
20
-44.795776541520226
0
LWPOLYLINE
5
504
100
AcDbEntity
8
0
100
AcDbPolyline
90
4
70
1
43
0.0
10
-21.960374095777091
20
-44.795776541520226
10
-21.960374095777091
20
-39.795776541520226
10
-16.960374095777091
20
-39.795776541520226
10
-16.960374095777091
20
-44.795776541520226
0
LWPOLYLINE
5
505
100
AcDbEntity
8
0
100
AcDbPolyline
90
4
70
1
43
0.0
10
-11.960374095777091
20
-44.795776541520226
10
-11.960374095777091
20
-39.795776541520226
10
-6.960374095777091
20
-39.795776541520226
10
-6.960374095777091
20
-44.795776541520226
0
LWPOLYLINE
5
506
100
AcDbEntity
8
0
100
AcDbPolyline
90
4
70
1
43
0.0
10
-1.960374095777091
20
-44.795776541520226
10
-1.960374095777091
20
-39.795776541520226
10
3.039625904222909
20
-39.795776541520226
10
3.039625904222909
20
-44.795776541520226
0
LWPOLYLINE
5
507
100
AcDbEntity
8
0
100
AcDbPolyline
90
4
70
1
43
0.0
10
8.039625904222909
20
-44.795776541520226
10
8.039625904222909
20
-39.795776541520226
10
13.039625904222909
20
-39.795776541520226
10
13.039625904222909
20
-44.795776541520226
0
LWPOLYLINE
5
508
100
AcDbEntity
8
0
100
AcDbPolyline
90
4
70
1
43
0.0
10
18.039625904222909
20
-44.795776541520226
10
18.039625904222909
20
-39.795776541520226
10
23.039625904222909
20
-39.795776541520226
10
23.039625904222909
20
-44.795776541520226
0
LWPOLYLINE
5
509
100
AcDbEntity
8
0
100
AcDbPolyline
90
4
70
1
43
0.0
10
28.039625904222909
20
-44.795776541520226
10
28.039625904222909
20
-39.795776541520226
10
33.039625904222909
20
-39.795776541520226
10
33.039625904222909
20
-44.795776541520226
0
LWPOLYLINE
5
510
100
AcDbEntity
8
0
100
AcDbPolyline
90
4
70
1
43
0.0
10
38.039625904222909
20
-44.795776541520226
10
38.039625904222909
20
-39.795776541520226
10
43.039625904222909
20
-39.795776541520226
10
43.039625904222909
20
-44.795776541520226
0
LWPOLYLINE
5
511
100
AcDbEntity
8
0
100
AcDbPolyline
90
4
70
1
43
0.0
10
48.039625904222909
20
-44.795776541520226
10
48.039625904222909
20
-39.795776541520226
10
53.039625904222909
20
-39.795776541520226
10
53.039625904222909
20
-44.795776541520226
0
LWPOLYLINE
5
512
100
AcDbEntity
8
0
100
AcDbPolyline
90
4
70
1
43
0.0
10
58.039625904222909
20
-44.795776541520226
10
58.039625904222909
20
-39.795776541520226
10
63.039625904222909
20
-39.795776541520226
10
63.039625904222909
20
-44.795776541520226
0
LWPOLYLINE
5
513
100
AcDbEntity
8
0
100
AcDbPolyline
90
4
70
1
43
0.0
10
68.039625904222902
20
-44.795776541520226
10
68.039625904222902
20
-39.795776541520226
10
73.039625904222902
20
-39.795776541520226
10
73.039625904222902
20
-44.795776541520226
0
LWPOLYLINE
5
514
100
AcDbEntity
8
0
100
AcDbPolyline
90
4
70
1
43
0.0
10
78.039625904222902
20
-44.795776541520226
10
78.039625904222902
20
-39.795776541520226
10
83.039625904222902
20
-39.795776541520226
10
83.039625904222902
20
-44.795776541520226
0
LWPOLYLINE
5
515
100
AcDbEntity
8
0
100
AcDbPolyline
90
4
70
1
43
0.0
10
88.039625904222902
20
-44.795776541520226
10
88.039625904222902
20
-39.795776541520226
10
93.039625904222902
20
-39.795776541520226
10
93.039625904222902
20
-44.795776541520226
0
LWPOLYLINE
5
516
100
AcDbEntity
8
0
100
AcDbPolyline
90
4
70
1
43
0.0
10
98.039625904222902
20
-44.795776541520226
10
98.039625904222902
20
-39.795776541520226
10
103.0396259042229
20
-39.795776541520226
10
103.0396259042229
20
-44.795776541520226
0
LWPOLYLINE
5
517
100
AcDbEntity
8
0
100
AcDbPolyline
90
4
70
1
43
0.0
10
108.0396259042229
20
-44.795776541520226
10
108.0396259042229
20
-39.795776541520226
10
113.0396259042229
20
-39.795776541520226
10
113.0396259042229
20
-44.795776541520226
0
LWPOLYLINE
5
518
100
AcDbEntity
8
0
100
AcDbPolyline
90
4
70
1
43
0.0
10
118.0396259042229
20
-44.795776541520226
10
118.0396259042229
20
-39.795776541520226
10
123.0396259042229
20
-39.795776541520226
10
123.0396259042229
20
-44.795776541520226
0
LWPOLYLINE
5
519
100
AcDbEntity
8
0
100
AcDbPolyline
90
4
70
1
43
0.0
10
128.0396259042229
20
-44.795776541520226
10
128.0396259042229
20
-39.795776541520226
10
133.0396259042229
20
-39.795776541520226
10
133.0396259042229
20
-44.795776541520226
0
LWPOLYLINE
5
520
100
AcDbEntity
8
0
100
AcDbPolyline
90
4
70
1
43
0.0
10
-161.9603740957771
20
-54.795776541520226
10
-161.9603740957771
20
-49.795776541520226
10
-156.9603740957771
20
-49.795776541520226
10
-156.9603740957771
20
-54.795776541520226
0
LWPOLYLINE
5
521
100
AcDbEntity
8
0
100
AcDbPolyline
90
4
70
1
43
0.0
10
-151.9603740957771
20
-54.795776541520226
10
-151.9603740957771
20
-49.795776541520226
10
-146.9603740957771
20
-49.795776541520226
10
-146.9603740957771
20
-54.795776541520226
0
LWPOLYLINE
5
522
100
AcDbEntity
8
0
100
AcDbPolyline
90
4
70
1
43
0.0
10
-141.9603740957771
20
-54.795776541520226
10
-141.9603740957771
20
-49.795776541520226
10
-136.9603740957771
20
-49.795776541520226
10
-136.9603740957771
20
-54.795776541520226
0
LWPOLYLINE
5
523
100
AcDbEntity
8
0
100
AcDbPolyline
90
4
70
1
43
0.0
10
-131.9603740957771
20
-54.795776541520226
10
-131.9603740957771
20
-49.795776541520226
10
-126.9603740957771
20
-49.795776541520226
10
-126.9603740957771
20
-54.795776541520226
0
LWPOLYLINE
5
524
100
AcDbEntity
8
0
100
AcDbPolyline
90
4
70
1
43
0.0
10
-121.9603740957771
20
-54.795776541520226
10
-121.9603740957771
20
-49.795776541520226
10
-116.9603740957771
20
-49.795776541520226
10
-116.9603740957771
20
-54.795776541520226
0
LWPOLYLINE
5
525
100
AcDbEntity
8
0
100
AcDbPolyline
90
4
70
1
43
0.0
10
-111.9603740957771
20
-54.795776541520226
10
-111.9603740957771
20
-49.795776541520226
10
-106.9603740957771
20
-49.795776541520226
10
-106.9603740957771
20
-54.795776541520226
0
LWPOLYLINE
5
526
100
AcDbEntity
8
0
100
AcDbPolyline
90
4
70
1
43
0.0
10
-101.9603740957771
20
-54.795776541520226
10
-101.9603740957771
20
-49.795776541520226
10
-96.960374095777098
20
-49.795776541520226
10
-96.960374095777098
20
-54.795776541520226
0
LWPOLYLINE
5
527
100
AcDbEntity
8
0
100
AcDbPolyline
90
4
70
1
43
0.0
10
-91.960374095777098
20
-54.795776541520226
10
-91.960374095777098
20
-49.795776541520226
10
-86.960374095777098
20
-49.795776541520226
10
-86.960374095777098
20
-54.795776541520226
0
LWPOLYLINE
5
528
100
AcDbEntity
8
0
100
AcDbPolyline
90
4
70
1
43
0.0
10
-81.960374095777098
20
-54.795776541520226
10
-81.960374095777098
20
-49.795776541520226
10
-76.960374095777098
20
-49.795776541520226
10
-76.960374095777098
20
-54.795776541520226
0
LWPOLYLINE
5
529
100
AcDbEntity
8
0
100
AcDbPolyline
90
4
70
1
43
0.0
10
-71.960374095777098
20
-54.795776541520226
10
-71.960374095777098
20
-49.795776541520226
10
-66.960374095777098
20
-49.795776541520226
10
-66.960374095777098
20
-54.795776541520226
0
LWPOLYLINE
5
530
100
AcDbEntity
8
0
100
AcDbPolyline
90
4
70
1
43
0.0
10
-61.960374095777091
20
-54.795776541520226
10
-61.960374095777091
20
-49.795776541520226
10
-56.960374095777091
20
-49.795776541520226
10
-56.960374095777091
20
-54.795776541520226
0
LWPOLYLINE
5
531
100
AcDbEntity
8
0
100
AcDbPolyline
90
4
70
1
43
0.0
10
-51.960374095777091
20
-54.795776541520226
10
-51.960374095777091
20
-49.795776541520226
10
-46.960374095777091
20
-49.795776541520226
10
-46.960374095777091
20
-54.795776541520226
0
LWPOLYLINE
5
532
100
AcDbEntity
8
0
100
AcDbPolyline
90
4
70
1
43
0.0
10
-41.960374095777091
20
-54.795776541520226
10
-41.960374095777091
20
-49.795776541520226
10
-36.960374095777091
20
-49.795776541520226
10
-36.960374095777091
20
-54.795776541520226
0
LWPOLYLINE
5
533
100
AcDbEntity
8
0
100
AcDbPolyline
90
4
70
1
43
0.0
10
-31.960374095777091
20
-54.795776541520226
10
-31.960374095777091
20
-49.795776541520226
10
-26.960374095777091
20
-49.795776541520226
10
-26.960374095777091
20
-54.795776541520226
0
LWPOLYLINE
5
534
100
AcDbEntity
8
0
100
AcDbPolyline
90
4
70
1
43
0.0
10
-21.960374095777091
20
-54.795776541520226
10
-21.960374095777091
20
-49.795776541520226
10
-16.960374095777091
20
-49.795776541520226
10
-16.960374095777091
20
-54.795776541520226
0
LWPOLYLINE
5
535
100
AcDbEntity
8
0
100
AcDbPolyline
90
4
70
1
43
0.0
10
-11.960374095777091
20
-54.795776541520226
10
-11.960374095777091
20
-49.795776541520226
10
-6.960374095777091
20
-49.795776541520226
10
-6.960374095777091
20
-54.795776541520226
0
LWPOLYLINE
5
536
100
AcDbEntity
8
0
100
AcDbPolyline
90
4
70
1
43
0.0
10
-1.960374095777091
20
-54.795776541520226
10
-1.960374095777091
20
-49.795776541520226
10
3.039625904222909
20
-49.795776541520226
10
3.039625904222909
20
-54.795776541520226
0
LWPOLYLINE
5
537
100
AcDbEntity
8
0
100
AcDbPolyline
90
4
70
1
43
0.0
10
8.039625904222909
20
-54.795776541520226
10
8.039625904222909
20
-49.795776541520226
10
13.039625904222909
20
-49.795776541520226
10
13.039625904222909
20
-54.795776541520226
0
LWPOLYLINE
5
538
100
AcDbEntity
8
0
100
AcDbPolyline
90
4
70
1
43
0.0
10
18.039625904222909
20
-54.795776541520226
10
18.039625904222909
20
-49.795776541520226
10
23.039625904222909
20
-49.795776541520226
10
23.039625904222909
20
-54.795776541520226
0
LWPOLYLINE
5
539
100
AcDbEntity
8
0
100
AcDbPolyline
90
4
70
1
43
0.0
10
28.039625904222909
20
-54.795776541520226
10
28.039625904222909
20
-49.795776541520226
10
33.039625904222909
20
-49.795776541520226
10
33.039625904222909
20
-54.795776541520226
0
LWPOLYLINE
5
540
100
AcDbEntity
8
0
100
AcDbPolyline
90
4
70
1
43
0.0
10
38.039625904222909
20
-54.795776541520226
10
38.039625904222909
20
-49.795776541520226
10
43.039625904222909
20
-49.795776541520226
10
43.039625904222909
20
-54.795776541520226
0
LWPOLYLINE
5
541
100
AcDbEntity
8
0
100
AcDbPolyline
90
4
70
1
43
0.0
10
48.039625904222909
20
-54.795776541520226
10
48.039625904222909
20
-49.795776541520226
10
53.039625904222909
20
-49.795776541520226
10
53.039625904222909
20
-54.795776541520226
0
LWPOLYLINE
5
542
100
AcDbEntity
8
0
100
AcDbPolyline
90
4
70
1
43
0.0
10
58.039625904222909
20
-54.795776541520226
10
58.039625904222909
20
-49.795776541520226
10
63.039625904222909
20
-49.795776541520226
10
63.039625904222909
20
-54.795776541520226
0
LWPOLYLINE
5
543
100
AcDbEntity
8
0
100
AcDbPolyline
90
4
70
1
43
0.0
10
68.039625904222902
20
-54.795776541520226
10
68.039625904222902
20
-49.795776541520226
10
73.039625904222902
20
-49.795776541520226
10
73.039625904222902
20
-54.795776541520226
0
LWPOLYLINE
5
544
100
AcDbEntity
8
0
100
AcDbPolyline
90
4
70
1
43
0.0
10
78.039625904222902
20
-54.795776541520226
10
78.039625904222902
20
-49.795776541520226
10
83.039625904222902
20
-49.795776541520226
10
83.039625904222902
20
-54.795776541520226
0
LWPOLYLINE
5
545
100
AcDbEntity
8
0
100
AcDbPolyline
90
4
70
1
43
0.0
10
88.039625904222902
20
-54.795776541520226
10
88.039625904222902
20
-49.795776541520226
10
93.039625904222902
20
-49.795776541520226
10
93.039625904222902
20
-54.795776541520226
0
LWPOLYLINE
5
546
100
AcDbEntity
8
0
100
AcDbPolyline
90
4
70
1
43
0.0
10
98.039625904222902
20
-54.795776541520226
10
98.039625904222902
20
-49.795776541520226
10
103.0396259042229
20
-49.795776541520226
10
103.0396259042229
20
-54.795776541520226
0
LWPOLYLINE
5
547
100
AcDbEntity
8
0
100
AcDbPolyline
90
4
70
1
43
0.0
10
108.0396259042229
20
-54.795776541520226
10
108.0396259042229
20
-49.795776541520226
10
113.0396259042229
20
-49.795776541520226
10
113.0396259042229
20
-54.795776541520226
0
LWPOLYLINE
5
548
100
AcDbEntity
8
0
100
AcDbPolyline
90
4
70
1
43
0.0
10
118.0396259042229
20
-54.795776541520226
10
118.0396259042229
20
-49.795776541520226
10
123.0396259042229
20
-49.795776541520226
10
123.0396259042229
20
-54.795776541520226
0
LWPOLYLINE
5
549
100
AcDbEntity
8
0
100
AcDbPolyline
90
4
70
1
43
0.0
10
128.0396259042229
20
-54.795776541520226
10
128.0396259042229
20
-49.795776541520226
10
133.0396259042229
20
-49.795776541520226
10
133.0396259042229
20
-54.795776541520226
0
LWPOLYLINE
5
550
100
AcDbEntity
8
0
100
AcDbPolyline
90
4
70
1
43
0.0
10
-161.9603740957771
20
-64.795776541520226
10
-161.9603740957771
20
-59.795776541520226
10
-156.9603740957771
20
-59.795776541520226
10
-156.9603740957771
20
-64.795776541520226
0
LWPOLYLINE
5
551
100
AcDbEntity
8
0
100
AcDbPolyline
90
4
70
1
43
0.0
10
-151.9603740957771
20
-64.795776541520226
10
-151.9603740957771
20
-59.795776541520226
10
-146.9603740957771
20
-59.795776541520226
10
-146.9603740957771
20
-64.795776541520226
0
LWPOLYLINE
5
552
100
AcDbEntity
8
0
100
AcDbPolyline
90
4
70
1
43
0.0
10
-141.9603740957771
20
-64.795776541520226
10
-141.9603740957771
20
-59.795776541520226
10
-136.9603740957771
20
-59.795776541520226
10
-136.9603740957771
20
-64.795776541520226
0
LWPOLYLINE
5
553
100
AcDbEntity
8
0
100
AcDbPolyline
90
4
70
1
43
0.0
10
-131.9603740957771
20
-64.795776541520226
10
-131.9603740957771
20
-59.795776541520226
10
-126.9603740957771
20
-59.795776541520226
10
-126.9603740957771
20
-64.795776541520226
0
LWPOLYLINE
5
554
100
AcDbEntity
8
0
100
AcDbPolyline
90
4
70
1
43
0.0
10
-121.9603740957771
20
-64.795776541520226
10
-121.9603740957771
20
-59.795776541520226
10
-116.9603740957771
20
-59.795776541520226
10
-116.9603740957771
20
-64.795776541520226
0
LWPOLYLINE
5
555
100
AcDbEntity
8
0
100
AcDbPolyline
90
4
70
1
43
0.0
10
-111.9603740957771
20
-64.795776541520226
10
-111.9603740957771
20
-59.795776541520226
10
-106.9603740957771
20
-59.795776541520226
10
-106.9603740957771
20
-64.795776541520226
0
LWPOLYLINE
5
556
100
AcDbEntity
8
0
100
AcDbPolyline
90
4
70
1
43
0.0
10
-101.9603740957771
20
-64.795776541520226
10
-101.9603740957771
20
-59.795776541520226
10
-96.960374095777098
20
-59.795776541520226
10
-96.960374095777098
20
-64.795776541520226
0
LWPOLYLINE
5
557
100
AcDbEntity
8
0
100
AcDbPolyline
90
4
70
1
43
0.0
10
-91.960374095777098
20
-64.795776541520226
10
-91.960374095777098
20
-59.795776541520226
10
-86.960374095777098
20
-59.795776541520226
10
-86.960374095777098
20
-64.795776541520226
0
LWPOLYLINE
5
558
100
AcDbEntity
8
0
100
AcDbPolyline
90
4
70
1
43
0.0
10
-81.960374095777098
20
-64.795776541520226
10
-81.960374095777098
20
-59.795776541520226
10
-76.960374095777098
20
-59.795776541520226
10
-76.960374095777098
20
-64.795776541520226
0
LWPOLYLINE
5
559
100
AcDbEntity
8
0
100
AcDbPolyline
90
4
70
1
43
0.0
10
-71.960374095777098
20
-64.795776541520226
10
-71.960374095777098
20
-59.795776541520226
10
-66.960374095777098
20
-59.795776541520226
10
-66.960374095777098
20
-64.795776541520226
0
LWPOLYLINE
5
560
100
AcDbEntity
8
0
100
AcDbPolyline
90
4
70
1
43
0.0
10
-61.960374095777091
20
-64.795776541520226
10
-61.960374095777091
20
-59.795776541520226
10
-56.960374095777091
20
-59.795776541520226
10
-56.960374095777091
20
-64.795776541520226
0
LWPOLYLINE
5
561
100
AcDbEntity
8
0
100
AcDbPolyline
90
4
70
1
43
0.0
10
-51.960374095777091
20
-64.795776541520226
10
-51.960374095777091
20
-59.795776541520226
10
-46.960374095777091
20
-59.795776541520226
10
-46.960374095777091
20
-64.795776541520226
0
LWPOLYLINE
5
562
100
AcDbEntity
8
0
100
AcDbPolyline
90
4
70
1
43
0.0
10
-41.960374095777091
20
-64.795776541520226
10
-41.960374095777091
20
-59.795776541520226
10
-36.960374095777091
20
-59.795776541520226
10
-36.960374095777091
20
-64.795776541520226
0
LWPOLYLINE
5
563
100
AcDbEntity
8
0
100
AcDbPolyline
90
4
70
1
43
0.0
10
-31.960374095777091
20
-64.795776541520226
10
-31.960374095777091
20
-59.795776541520226
10
-26.960374095777091
20
-59.795776541520226
10
-26.960374095777091
20
-64.795776541520226
0
LWPOLYLINE
5
564
100
AcDbEntity
8
0
100
AcDbPolyline
90
4
70
1
43
0.0
10
-21.960374095777091
20
-64.795776541520226
10
-21.960374095777091
20
-59.795776541520226
10
-16.960374095777091
20
-59.795776541520226
10
-16.960374095777091
20
-64.795776541520226
0
LWPOLYLINE
5
565
100
AcDbEntity
8
0
100
AcDbPolyline
90
4
70
1
43
0.0
10
-11.960374095777091
20
-64.795776541520226
10
-11.960374095777091
20
-59.795776541520226
10
-6.960374095777091
20
-59.795776541520226
10
-6.960374095777091
20
-64.795776541520226
0
LWPOLYLINE
5
566
100
AcDbEntity
8
0
100
AcDbPolyline
90
4
70
1
43
0.0
10
-1.960374095777091
20
-64.795776541520226
10
-1.960374095777091
20
-59.795776541520226
10
3.039625904222909
20
-59.795776541520226
10
3.039625904222909
20
-64.795776541520226
0
LWPOLYLINE
5
567
100
AcDbEntity
8
0
100
AcDbPolyline
90
4
70
1
43
0.0
10
8.039625904222909
20
-64.795776541520226
10
8.039625904222909
20
-59.795776541520226
10
13.039625904222909
20
-59.795776541520226
10
13.039625904222909
20
-64.795776541520226
0
LWPOLYLINE
5
568
100
AcDbEntity
8
0
100
AcDbPolyline
90
4
70
1
43
0.0
10
18.039625904222909
20
-64.795776541520226
10
18.039625904222909
20
-59.795776541520226
10
23.039625904222909
20
-59.795776541520226
10
23.039625904222909
20
-64.795776541520226
0
LWPOLYLINE
5
569
100
AcDbEntity
8
0
100
AcDbPolyline
90
4
70
1
43
0.0
10
28.039625904222909
20
-64.795776541520226
10
28.039625904222909
20
-59.795776541520226
10
33.039625904222909
20
-59.795776541520226
10
33.039625904222909
20
-64.795776541520226
0
LWPOLYLINE
5
570
100
AcDbEntity
8
0
100
AcDbPolyline
90
4
70
1
43
0.0
10
38.039625904222909
20
-64.795776541520226
10
38.039625904222909
20
-59.795776541520226
10
43.039625904222909
20
-59.795776541520226
10
43.039625904222909
20
-64.795776541520226
0
LWPOLYLINE
5
571
100
AcDbEntity
8
0
100
AcDbPolyline
90
4
70
1
43
0.0
10
48.039625904222909
20
-64.795776541520226
10
48.039625904222909
20
-59.795776541520226
10
53.039625904222909
20
-59.795776541520226
10
53.039625904222909
20
-64.795776541520226
0
LWPOLYLINE
5
572
100
AcDbEntity
8
0
100
AcDbPolyline
90
4
70
1
43
0.0
10
58.039625904222909
20
-64.795776541520226
10
58.039625904222909
20
-59.795776541520226
10
63.039625904222909
20
-59.795776541520226
10
63.039625904222909
20
-64.795776541520226
0
LWPOLYLINE
5
573
100
AcDbEntity
8
0
100
AcDbPolyline
90
4
70
1
43
0.0
10
68.039625904222902
20
-64.795776541520226
10
68.039625904222902
20
-59.795776541520226
10
73.039625904222902
20
-59.795776541520226
10
73.039625904222902
20
-64.795776541520226
0
LWPOLYLINE
5
574
100
AcDbEntity
8
0
100
AcDbPolyline
90
4
70
1
43
0.0
10
78.039625904222902
20
-64.795776541520226
10
78.039625904222902
20
-59.795776541520226
10
83.039625904222902
20
-59.795776541520226
10
83.039625904222902
20
-64.795776541520226
0
LWPOLYLINE
5
575
100
AcDbEntity
8
0
100
AcDbPolyline
90
4
70
1
43
0.0
10
88.039625904222902
20
-64.795776541520226
10
88.039625904222902
20
-59.795776541520226
10
93.039625904222902
20
-59.795776541520226
10
93.039625904222902
20
-64.795776541520226
0
LWPOLYLINE
5
576
100
AcDbEntity
8
0
100
AcDbPolyline
90
4
70
1
43
0.0
10
98.039625904222902
20
-64.795776541520226
10
98.039625904222902
20
-59.795776541520226
10
103.0396259042229
20
-59.795776541520226
10
103.0396259042229
20
-64.795776541520226
0
LWPOLYLINE
5
577
100
AcDbEntity
8
0
100
AcDbPolyline
90
4
70
1
43
0.0
10
108.0396259042229
20
-64.795776541520226
10
108.0396259042229
20
-59.795776541520226
10
113.0396259042229
20
-59.795776541520226
10
113.0396259042229
20
-64.795776541520226
0
LWPOLYLINE
5
578
100
AcDbEntity
8
0
100
AcDbPolyline
90
4
70
1
43
0.0
10
118.0396259042229
20
-64.795776541520226
10
118.0396259042229
20
-59.795776541520226
10
123.0396259042229
20
-59.795776541520226
10
123.0396259042229
20
-64.795776541520226
0
LWPOLYLINE
5
579
100
AcDbEntity
8
0
100
AcDbPolyline
90
4
70
1
43
0.0
10
128.0396259042229
20
-64.795776541520226
10
128.0396259042229
20
-59.795776541520226
10
133.0396259042229
20
-59.795776541520226
10
133.0396259042229
20
-64.795776541520226
0
LWPOLYLINE
5
580
100
AcDbEntity
8
0
100
AcDbPolyline
90
4
70
1
43
0.0
10
-161.9603740957771
20
-74.795776541520226
10
-161.9603740957771
20
-69.795776541520226
10
-156.9603740957771
20
-69.795776541520226
10
-156.9603740957771
20
-74.795776541520226
0
LWPOLYLINE
5
581
100
AcDbEntity
8
0
100
AcDbPolyline
90
4
70
1
43
0.0
10
-151.9603740957771
20
-74.795776541520226
10
-151.9603740957771
20
-69.795776541520226
10
-146.9603740957771
20
-69.795776541520226
10
-146.9603740957771
20
-74.795776541520226
0
LWPOLYLINE
5
582
100
AcDbEntity
8
0
100
AcDbPolyline
90
4
70
1
43
0.0
10
-141.9603740957771
20
-74.795776541520226
10
-141.9603740957771
20
-69.795776541520226
10
-136.9603740957771
20
-69.795776541520226
10
-136.9603740957771
20
-74.795776541520226
0
LWPOLYLINE
5
583
100
AcDbEntity
8
0
100
AcDbPolyline
90
4
70
1
43
0.0
10
-131.9603740957771
20
-74.795776541520226
10
-131.9603740957771
20
-69.795776541520226
10
-126.9603740957771
20
-69.795776541520226
10
-126.9603740957771
20
-74.795776541520226
0
LWPOLYLINE
5
584
100
AcDbEntity
8
0
100
AcDbPolyline
90
4
70
1
43
0.0
10
-121.9603740957771
20
-74.795776541520226
10
-121.9603740957771
20
-69.795776541520226
10
-116.9603740957771
20
-69.795776541520226
10
-116.9603740957771
20
-74.795776541520226
0
LWPOLYLINE
5
585
100
AcDbEntity
8
0
100
AcDbPolyline
90
4
70
1
43
0.0
10
-111.9603740957771
20
-74.795776541520226
10
-111.9603740957771
20
-69.795776541520226
10
-106.9603740957771
20
-69.795776541520226
10
-106.9603740957771
20
-74.795776541520226
0
LWPOLYLINE
5
586
100
AcDbEntity
8
0
100
AcDbPolyline
90
4
70
1
43
0.0
10
-101.9603740957771
20
-74.795776541520226
10
-101.9603740957771
20
-69.795776541520226
10
-96.960374095777098
20
-69.795776541520226
10
-96.960374095777098
20
-74.795776541520226
0
LWPOLYLINE
5
587
100
AcDbEntity
8
0
100
AcDbPolyline
90
4
70
1
43
0.0
10
-91.960374095777098
20
-74.795776541520226
10
-91.960374095777098
20
-69.795776541520226
10
-86.960374095777098
20
-69.795776541520226
10
-86.960374095777098
20
-74.795776541520226
0
LWPOLYLINE
5
588
100
AcDbEntity
8
0
100
AcDbPolyline
90
4
70
1
43
0.0
10
-81.960374095777098
20
-74.795776541520226
10
-81.960374095777098
20
-69.795776541520226
10
-76.960374095777098
20
-69.795776541520226
10
-76.960374095777098
20
-74.795776541520226
0
LWPOLYLINE
5
589
100
AcDbEntity
8
0
100
AcDbPolyline
90
4
70
1
43
0.0
10
-71.960374095777098
20
-74.795776541520226
10
-71.960374095777098
20
-69.795776541520226
10
-66.960374095777098
20
-69.795776541520226
10
-66.960374095777098
20
-74.795776541520226
0
LWPOLYLINE
5
590
100
AcDbEntity
8
0
100
AcDbPolyline
90
4
70
1
43
0.0
10
-61.960374095777091
20
-74.795776541520226
10
-61.960374095777091
20
-69.795776541520226
10
-56.960374095777091
20
-69.795776541520226
10
-56.960374095777091
20
-74.795776541520226
0
LWPOLYLINE
5
591
100
AcDbEntity
8
0
100
AcDbPolyline
90
4
70
1
43
0.0
10
-51.960374095777091
20
-74.795776541520226
10
-51.960374095777091
20
-69.795776541520226
10
-46.960374095777091
20
-69.795776541520226
10
-46.960374095777091
20
-74.795776541520226
0
LWPOLYLINE
5
592
100
AcDbEntity
8
0
100
AcDbPolyline
90
4
70
1
43
0.0
10
-41.960374095777091
20
-74.795776541520226
10
-41.960374095777091
20
-69.795776541520226
10
-36.960374095777091
20
-69.795776541520226
10
-36.960374095777091
20
-74.795776541520226
0
LWPOLYLINE
5
593
100
AcDbEntity
8
0
100
AcDbPolyline
90
4
70
1
43
0.0
10
-31.960374095777091
20
-74.795776541520226
10
-31.960374095777091
20
-69.795776541520226
10
-26.960374095777091
20
-69.795776541520226
10
-26.960374095777091
20
-74.795776541520226
0
LWPOLYLINE
5
594
100
AcDbEntity
8
0
100
AcDbPolyline
90
4
70
1
43
0.0
10
-21.960374095777091
20
-74.795776541520226
10
-21.960374095777091
20
-69.795776541520226
10
-16.960374095777091
20
-69.795776541520226
10
-16.960374095777091
20
-74.795776541520226
0
LWPOLYLINE
5
595
100
AcDbEntity
8
0
100
AcDbPolyline
90
4
70
1
43
0.0
10
-11.960374095777091
20
-74.795776541520226
10
-11.960374095777091
20
-69.795776541520226
10
-6.960374095777091
20
-69.795776541520226
10
-6.960374095777091
20
-74.795776541520226
0
LWPOLYLINE
5
596
100
AcDbEntity
8
0
100
AcDbPolyline
90
4
70
1
43
0.0
10
-1.960374095777091
20
-74.795776541520226
10
-1.960374095777091
20
-69.795776541520226
10
3.039625904222909
20
-69.795776541520226
10
3.039625904222909
20
-74.795776541520226
0
LWPOLYLINE
5
597
100
AcDbEntity
8
0
100
AcDbPolyline
90
4
70
1
43
0.0
10
8.039625904222909
20
-74.795776541520226
10
8.039625904222909
20
-69.795776541520226
10
13.039625904222909
20
-69.795776541520226
10
13.039625904222909
20
-74.795776541520226
0
LWPOLYLINE
5
598
100
AcDbEntity
8
0
100
AcDbPolyline
90
4
70
1
43
0.0
10
18.039625904222909
20
-74.795776541520226
10
18.039625904222909
20
-69.795776541520226
10
23.039625904222909
20
-69.795776541520226
10
23.039625904222909
20
-74.795776541520226
0
LWPOLYLINE
5
599
100
AcDbEntity
8
0
100
AcDbPolyline
90
4
70
1
43
0.0
10
28.039625904222909
20
-74.795776541520226
10
28.039625904222909
20
-69.795776541520226
10
33.039625904222909
20
-69.795776541520226
10
33.039625904222909
20
-74.795776541520226
0
LWPOLYLINE
5
600
100
AcDbEntity
8
0
100
AcDbPolyline
90
4
70
1
43
0.0
10
38.039625904222909
20
-74.795776541520226
10
38.039625904222909
20
-69.795776541520226
10
43.039625904222909
20
-69.795776541520226
10
43.039625904222909
20
-74.795776541520226
0
LWPOLYLINE
5
601
100
AcDbEntity
8
0
100
AcDbPolyline
90
4
70
1
43
0.0
10
48.039625904222909
20
-74.795776541520226
10
48.039625904222909
20
-69.795776541520226
10
53.039625904222909
20
-69.795776541520226
10
53.039625904222909
20
-74.795776541520226
0
LWPOLYLINE
5
602
100
AcDbEntity
8
0
100
AcDbPolyline
90
4
70
1
43
0.0
10
58.039625904222909
20
-74.795776541520226
10
58.039625904222909
20
-69.795776541520226
10
63.039625904222909
20
-69.795776541520226
10
63.039625904222909
20
-74.795776541520226
0
LWPOLYLINE
5
603
100
AcDbEntity
8
0
100
AcDbPolyline
90
4
70
1
43
0.0
10
68.039625904222902
20
-74.795776541520226
10
68.039625904222902
20
-69.795776541520226
10
73.039625904222902
20
-69.795776541520226
10
73.039625904222902
20
-74.795776541520226
0
LWPOLYLINE
5
604
100
AcDbEntity
8
0
100
AcDbPolyline
90
4
70
1
43
0.0
10
78.039625904222902
20
-74.795776541520226
10
78.039625904222902
20
-69.795776541520226
10
83.039625904222902
20
-69.795776541520226
10
83.039625904222902
20
-74.795776541520226
0
LWPOLYLINE
5
605
100
AcDbEntity
8
0
100
AcDbPolyline
90
4
70
1
43
0.0
10
88.039625904222902
20
-74.795776541520226
10
88.039625904222902
20
-69.795776541520226
10
93.039625904222902
20
-69.795776541520226
10
93.039625904222902
20
-74.795776541520226
0
LWPOLYLINE
5
606
100
AcDbEntity
8
0
100
AcDbPolyline
90
4
70
1
43
0.0
10
98.039625904222902
20
-74.795776541520226
10
98.039625904222902
20
-69.795776541520226
10
103.0396259042229
20
-69.795776541520226
10
103.0396259042229
20
-74.795776541520226
0
LWPOLYLINE
5
607
100
AcDbEntity
8
0
100
AcDbPolyline
90
4
70
1
43
0.0
10
108.0396259042229
20
-74.795776541520226
10
108.0396259042229
20
-69.795776541520226
10
113.0396259042229
20
-69.795776541520226
10
113.0396259042229
20
-74.795776541520226
0
LWPOLYLINE
5
608
100
AcDbEntity
8
0
100
AcDbPolyline
90
4
70
1
43
0.0
10
118.0396259042229
20
-74.795776541520226
10
118.0396259042229
20
-69.795776541520226
10
123.0396259042229
20
-69.795776541520226
10
123.0396259042229
20
-74.795776541520226
0
LWPOLYLINE
5
609
100
AcDbEntity
8
0
100
AcDbPolyline
90
4
70
1
43
0.0
10
128.0396259042229
20
-74.795776541520226
10
128.0396259042229
20
-69.795776541520226
10
133.0396259042229
20
-69.795776541520226
10
133.0396259042229
20
-74.795776541520226
0
LWPOLYLINE
5
610
100
AcDbEntity
8
0
100
AcDbPolyline
90
4
70
1
43
0.0
10
-161.9603740957771
20
-84.795776541520226
10
-161.9603740957771
20
-79.795776541520226
10
-156.9603740957771
20
-79.795776541520226
10
-156.9603740957771
20
-84.795776541520226
0
LWPOLYLINE
5
611
100
AcDbEntity
8
0
100
AcDbPolyline
90
4
70
1
43
0.0
10
-151.9603740957771
20
-84.795776541520226
10
-151.9603740957771
20
-79.795776541520226
10
-146.9603740957771
20
-79.795776541520226
10
-146.9603740957771
20
-84.795776541520226
0
LWPOLYLINE
5
612
100
AcDbEntity
8
0
100
AcDbPolyline
90
4
70
1
43
0.0
10
-141.9603740957771
20
-84.795776541520226
10
-141.9603740957771
20
-79.795776541520226
10
-136.9603740957771
20
-79.795776541520226
10
-136.9603740957771
20
-84.795776541520226
0
LWPOLYLINE
5
613
100
AcDbEntity
8
0
100
AcDbPolyline
90
4
70
1
43
0.0
10
-131.9603740957771
20
-84.795776541520226
10
-131.9603740957771
20
-79.795776541520226
10
-126.9603740957771
20
-79.795776541520226
10
-126.9603740957771
20
-84.795776541520226
0
LWPOLYLINE
5
614
100
AcDbEntity
8
0
100
AcDbPolyline
90
4
70
1
43
0.0
10
-121.9603740957771
20
-84.795776541520226
10
-121.9603740957771
20
-79.795776541520226
10
-116.9603740957771
20
-79.795776541520226
10
-116.9603740957771
20
-84.795776541520226
0
LWPOLYLINE
5
615
100
AcDbEntity
8
0
100
AcDbPolyline
90
4
70
1
43
0.0
10
-111.9603740957771
20
-84.795776541520226
10
-111.9603740957771
20
-79.795776541520226
10
-106.9603740957771
20
-79.795776541520226
10
-106.9603740957771
20
-84.795776541520226
0
LWPOLYLINE
5
616
100
AcDbEntity
8
0
100
AcDbPolyline
90
4
70
1
43
0.0
10
-101.9603740957771
20
-84.795776541520226
10
-101.9603740957771
20
-79.795776541520226
10
-96.960374095777098
20
-79.795776541520226
10
-96.960374095777098
20
-84.795776541520226
0
LWPOLYLINE
5
617
100
AcDbEntity
8
0
100
AcDbPolyline
90
4
70
1
43
0.0
10
-91.960374095777098
20
-84.795776541520226
10
-91.960374095777098
20
-79.795776541520226
10
-86.960374095777098
20
-79.795776541520226
10
-86.960374095777098
20
-84.795776541520226
0
LWPOLYLINE
5
618
100
AcDbEntity
8
0
100
AcDbPolyline
90
4
70
1
43
0.0
10
-81.960374095777098
20
-84.795776541520226
10
-81.960374095777098
20
-79.795776541520226
10
-76.960374095777098
20
-79.795776541520226
10
-76.960374095777098
20
-84.795776541520226
0
LWPOLYLINE
5
619
100
AcDbEntity
8
0
100
AcDbPolyline
90
4
70
1
43
0.0
10
-71.960374095777098
20
-84.795776541520226
10
-71.960374095777098
20
-79.795776541520226
10
-66.960374095777098
20
-79.795776541520226
10
-66.960374095777098
20
-84.795776541520226
0
LWPOLYLINE
5
620
100
AcDbEntity
8
0
100
AcDbPolyline
90
4
70
1
43
0.0
10
-61.960374095777091
20
-84.795776541520226
10
-61.960374095777091
20
-79.795776541520226
10
-56.960374095777091
20
-79.795776541520226
10
-56.960374095777091
20
-84.795776541520226
0
LWPOLYLINE
5
621
100
AcDbEntity
8
0
100
AcDbPolyline
90
4
70
1
43
0.0
10
-51.960374095777091
20
-84.795776541520226
10
-51.960374095777091
20
-79.795776541520226
10
-46.960374095777091
20
-79.795776541520226
10
-46.960374095777091
20
-84.795776541520226
0
LWPOLYLINE
5
622
100
AcDbEntity
8
0
100
AcDbPolyline
90
4
70
1
43
0.0
10
-41.960374095777091
20
-84.795776541520226
10
-41.960374095777091
20
-79.795776541520226
10
-36.960374095777091
20
-79.795776541520226
10
-36.960374095777091
20
-84.795776541520226
0
LWPOLYLINE
5
623
100
AcDbEntity
8
0
100
AcDbPolyline
90
4
70
1
43
0.0
10
-31.960374095777091
20
-84.795776541520226
10
-31.960374095777091
20
-79.795776541520226
10
-26.960374095777091
20
-79.795776541520226
10
-26.960374095777091
20
-84.795776541520226
0
LWPOLYLINE
5
624
100
AcDbEntity
8
0
100
AcDbPolyline
90
4
70
1
43
0.0
10
-21.960374095777091
20
-84.795776541520226
10
-21.960374095777091
20
-79.795776541520226
10
-16.960374095777091
20
-79.795776541520226
10
-16.960374095777091
20
-84.795776541520226
0
LWPOLYLINE
5
625
100
AcDbEntity
8
0
100
AcDbPolyline
90
4
70
1
43
0.0
10
-11.960374095777091
20
-84.795776541520226
10
-11.960374095777091
20
-79.795776541520226
10
-6.960374095777091
20
-79.795776541520226
10
-6.960374095777091
20
-84.795776541520226
0
LWPOLYLINE
5
626
100
AcDbEntity
8
0
100
AcDbPolyline
90
4
70
1
43
0.0
10
-1.960374095777091
20
-84.795776541520226
10
-1.960374095777091
20
-79.795776541520226
10
3.039625904222909
20
-79.795776541520226
10
3.039625904222909
20
-84.795776541520226
0
LWPOLYLINE
5
627
100
AcDbEntity
8
0
100
AcDbPolyline
90
4
70
1
43
0.0
10
8.039625904222909
20
-84.795776541520226
10
8.039625904222909
20
-79.795776541520226
10
13.039625904222909
20
-79.795776541520226
10
13.039625904222909
20
-84.795776541520226
0
LWPOLYLINE
5
628
100
AcDbEntity
8
0
100
AcDbPolyline
90
4
70
1
43
0.0
10
18.039625904222909
20
-84.795776541520226
10
18.039625904222909
20
-79.795776541520226
10
23.039625904222909
20
-79.795776541520226
10
23.039625904222909
20
-84.795776541520226
0
LWPOLYLINE
5
629
100
AcDbEntity
8
0
100
AcDbPolyline
90
4
70
1
43
0.0
10
28.039625904222909
20
-84.795776541520226
10
28.039625904222909
20
-79.795776541520226
10
33.039625904222909
20
-79.795776541520226
10
33.039625904222909
20
-84.795776541520226
0
LWPOLYLINE
5
630
100
AcDbEntity
8
0
100
AcDbPolyline
90
4
70
1
43
0.0
10
38.039625904222909
20
-84.795776541520226
10
38.039625904222909
20
-79.795776541520226
10
43.039625904222909
20
-79.795776541520226
10
43.039625904222909
20
-84.795776541520226
0
LWPOLYLINE
5
631
100
AcDbEntity
8
0
100
AcDbPolyline
90
4
70
1
43
0.0
10
48.039625904222909
20
-84.795776541520226
10
48.039625904222909
20
-79.795776541520226
10
53.039625904222909
20
-79.795776541520226
10
53.039625904222909
20
-84.795776541520226
0
LWPOLYLINE
5
632
100
AcDbEntity
8
0
100
AcDbPolyline
90
4
70
1
43
0.0
10
58.039625904222909
20
-84.795776541520226
10
58.039625904222909
20
-79.795776541520226
10
63.039625904222909
20
-79.795776541520226
10
63.039625904222909
20
-84.795776541520226
0
LWPOLYLINE
5
633
100
AcDbEntity
8
0
100
AcDbPolyline
90
4
70
1
43
0.0
10
68.039625904222902
20
-84.795776541520226
10
68.039625904222902
20
-79.795776541520226
10
73.039625904222902
20
-79.795776541520226
10
73.039625904222902
20
-84.795776541520226
0
LWPOLYLINE
5
634
100
AcDbEntity
8
0
100
AcDbPolyline
90
4
70
1
43
0.0
10
78.039625904222902
20
-84.795776541520226
10
78.039625904222902
20
-79.795776541520226
10
83.039625904222902
20
-79.795776541520226
10
83.039625904222902
20
-84.795776541520226
0
LWPOLYLINE
5
635
100
AcDbEntity
8
0
100
AcDbPolyline
90
4
70
1
43
0.0
10
88.039625904222902
20
-84.795776541520226
10
88.039625904222902
20
-79.795776541520226
10
93.039625904222902
20
-79.795776541520226
10
93.039625904222902
20
-84.795776541520226
0
LWPOLYLINE
5
636
100
AcDbEntity
8
0
100
AcDbPolyline
90
4
70
1
43
0.0
10
98.039625904222902
20
-84.795776541520226
10
98.039625904222902
20
-79.795776541520226
10
103.0396259042229
20
-79.795776541520226
10
103.0396259042229
20
-84.795776541520226
0
LWPOLYLINE
5
637
100
AcDbEntity
8
0
100
AcDbPolyline
90
4
70
1
43
0.0
10
108.0396259042229
20
-84.795776541520226
10
108.0396259042229
20
-79.795776541520226
10
113.0396259042229
20
-79.795776541520226
10
113.0396259042229
20
-84.795776541520226
0
LWPOLYLINE
5
638
100
AcDbEntity
8
0
100
AcDbPolyline
90
4
70
1
43
0.0
10
118.0396259042229
20
-84.795776541520226
10
118.0396259042229
20
-79.795776541520226
10
123.0396259042229
20
-79.795776541520226
10
123.0396259042229
20
-84.795776541520226
0
LWPOLYLINE
5
639
100
AcDbEntity
8
0
100
AcDbPolyline
90
4
70
1
43
0.0
10
128.0396259042229
20
-84.795776541520226
10
128.0396259042229
20
-79.795776541520226
10
133.0396259042229
20
-79.795776541520226
10
133.0396259042229
20
-84.795776541520226
0
LWPOLYLINE
5
640
100
AcDbEntity
8
0
100
AcDbPolyline
90
4
70
1
43
0.0
10
-161.9603740957771
20
-94.795776541520226
10
-161.9603740957771
20
-89.795776541520226
10
-156.9603740957771
20
-89.795776541520226
10
-156.9603740957771
20
-94.795776541520226
0
LWPOLYLINE
5
641
100
AcDbEntity
8
0
100
AcDbPolyline
90
4
70
1
43
0.0
10
-151.9603740957771
20
-94.795776541520226
10
-151.9603740957771
20
-89.795776541520226
10
-146.9603740957771
20
-89.795776541520226
10
-146.9603740957771
20
-94.795776541520226
0
LWPOLYLINE
5
642
100
AcDbEntity
8
0
100
AcDbPolyline
90
4
70
1
43
0.0
10
-141.9603740957771
20
-94.795776541520226
10
-141.9603740957771
20
-89.795776541520226
10
-136.9603740957771
20
-89.795776541520226
10
-136.9603740957771
20
-94.795776541520226
0
LWPOLYLINE
5
643
100
AcDbEntity
8
0
100
AcDbPolyline
90
4
70
1
43
0.0
10
-131.9603740957771
20
-94.795776541520226
10
-131.9603740957771
20
-89.795776541520226
10
-126.9603740957771
20
-89.795776541520226
10
-126.9603740957771
20
-94.795776541520226
0
LWPOLYLINE
5
644
100
AcDbEntity
8
0
100
AcDbPolyline
90
4
70
1
43
0.0
10
-121.9603740957771
20
-94.795776541520226
10
-121.9603740957771
20
-89.795776541520226
10
-116.9603740957771
20
-89.795776541520226
10
-116.9603740957771
20
-94.795776541520226
0
LWPOLYLINE
5
645
100
AcDbEntity
8
0
100
AcDbPolyline
90
4
70
1
43
0.0
10
-111.9603740957771
20
-94.795776541520226
10
-111.9603740957771
20
-89.795776541520226
10
-106.9603740957771
20
-89.795776541520226
10
-106.9603740957771
20
-94.795776541520226
0
LWPOLYLINE
5
646
100
AcDbEntity
8
0
100
AcDbPolyline
90
4
70
1
43
0.0
10
-101.9603740957771
20
-94.795776541520226
10
-101.9603740957771
20
-89.795776541520226
10
-96.960374095777098
20
-89.795776541520226
10
-96.960374095777098
20
-94.795776541520226
0
LWPOLYLINE
5
647
100
AcDbEntity
8
0
100
AcDbPolyline
90
4
70
1
43
0.0
10
-91.960374095777098
20
-94.795776541520226
10
-91.960374095777098
20
-89.795776541520226
10
-86.960374095777098
20
-89.795776541520226
10
-86.960374095777098
20
-94.795776541520226
0
LWPOLYLINE
5
648
100
AcDbEntity
8
0
100
AcDbPolyline
90
4
70
1
43
0.0
10
-81.960374095777098
20
-94.795776541520226
10
-81.960374095777098
20
-89.795776541520226
10
-76.960374095777098
20
-89.795776541520226
10
-76.960374095777098
20
-94.795776541520226
0
LWPOLYLINE
5
649
100
AcDbEntity
8
0
100
AcDbPolyline
90
4
70
1
43
0.0
10
-71.960374095777098
20
-94.795776541520226
10
-71.960374095777098
20
-89.795776541520226
10
-66.960374095777098
20
-89.795776541520226
10
-66.960374095777098
20
-94.795776541520226
0
LWPOLYLINE
5
650
100
AcDbEntity
8
0
100
AcDbPolyline
90
4
70
1
43
0.0
10
-61.960374095777091
20
-94.795776541520226
10
-61.960374095777091
20
-89.795776541520226
10
-56.960374095777091
20
-89.795776541520226
10
-56.960374095777091
20
-94.795776541520226
0
LWPOLYLINE
5
651
100
AcDbEntity
8
0
100
AcDbPolyline
90
4
70
1
43
0.0
10
-51.960374095777091
20
-94.795776541520226
10
-51.960374095777091
20
-89.795776541520226
10
-46.960374095777091
20
-89.795776541520226
10
-46.960374095777091
20
-94.795776541520226
0
LWPOLYLINE
5
652
100
AcDbEntity
8
0
100
AcDbPolyline
90
4
70
1
43
0.0
10
-41.960374095777091
20
-94.795776541520226
10
-41.960374095777091
20
-89.795776541520226
10
-36.960374095777091
20
-89.795776541520226
10
-36.960374095777091
20
-94.795776541520226
0
LWPOLYLINE
5
653
100
AcDbEntity
8
0
100
AcDbPolyline
90
4
70
1
43
0.0
10
-31.960374095777091
20
-94.795776541520226
10
-31.960374095777091
20
-89.795776541520226
10
-26.960374095777091
20
-89.795776541520226
10
-26.960374095777091
20
-94.795776541520226
0
LWPOLYLINE
5
654
100
AcDbEntity
8
0
100
AcDbPolyline
90
4
70
1
43
0.0
10
-21.960374095777091
20
-94.795776541520226
10
-21.960374095777091
20
-89.795776541520226
10
-16.960374095777091
20
-89.795776541520226
10
-16.960374095777091
20
-94.795776541520226
0
LWPOLYLINE
5
655
100
AcDbEntity
8
0
100
AcDbPolyline
90
4
70
1
43
0.0
10
-11.960374095777091
20
-94.795776541520226
10
-11.960374095777091
20
-89.795776541520226
10
-6.960374095777091
20
-89.795776541520226
10
-6.960374095777091
20
-94.795776541520226
0
LWPOLYLINE
5
656
100
AcDbEntity
8
0
100
AcDbPolyline
90
4
70
1
43
0.0
10
-1.960374095777091
20
-94.795776541520226
10
-1.960374095777091
20
-89.795776541520226
10
3.039625904222909
20
-89.795776541520226
10
3.039625904222909
20
-94.795776541520226
0
LWPOLYLINE
5
657
100
AcDbEntity
8
0
100
AcDbPolyline
90
4
70
1
43
0.0
10
8.039625904222909
20
-94.795776541520226
10
8.039625904222909
20
-89.795776541520226
10
13.039625904222909
20
-89.795776541520226
10
13.039625904222909
20
-94.795776541520226
0
LWPOLYLINE
5
658
100
AcDbEntity
8
0
100
AcDbPolyline
90
4
70
1
43
0.0
10
18.039625904222909
20
-94.795776541520226
10
18.039625904222909
20
-89.795776541520226
10
23.039625904222909
20
-89.795776541520226
10
23.039625904222909
20
-94.795776541520226
0
LWPOLYLINE
5
659
100
AcDbEntity
8
0
100
AcDbPolyline
90
4
70
1
43
0.0
10
28.039625904222909
20
-94.795776541520226
10
28.039625904222909
20
-89.795776541520226
10
33.039625904222909
20
-89.795776541520226
10
33.039625904222909
20
-94.795776541520226
0
LWPOLYLINE
5
660
100
AcDbEntity
8
0
100
AcDbPolyline
90
4
70
1
43
0.0
10
38.039625904222909
20
-94.795776541520226
10
38.039625904222909
20
-89.795776541520226
10
43.039625904222909
20
-89.795776541520226
10
43.039625904222909
20
-94.795776541520226
0
LWPOLYLINE
5
661
100
AcDbEntity
8
0
100
AcDbPolyline
90
4
70
1
43
0.0
10
48.039625904222909
20
-94.795776541520226
10
48.039625904222909
20
-89.795776541520226
10
53.039625904222909
20
-89.795776541520226
10
53.039625904222909
20
-94.795776541520226
0
LWPOLYLINE
5
662
100
AcDbEntity
8
0
100
AcDbPolyline
90
4
70
1
43
0.0
10
58.039625904222909
20
-94.795776541520226
10
58.039625904222909
20
-89.795776541520226
10
63.039625904222909
20
-89.795776541520226
10
63.039625904222909
20
-94.795776541520226
0
LWPOLYLINE
5
663
100
AcDbEntity
8
0
100
AcDbPolyline
90
4
70
1
43
0.0
10
68.039625904222902
20
-94.795776541520226
10
68.039625904222902
20
-89.795776541520226
10
73.039625904222902
20
-89.795776541520226
10
73.039625904222902
20
-94.795776541520226
0
LWPOLYLINE
5
664
100
AcDbEntity
8
0
100
AcDbPolyline
90
4
70
1
43
0.0
10
78.039625904222902
20
-94.795776541520226
10
78.039625904222902
20
-89.795776541520226
10
83.039625904222902
20
-89.795776541520226
10
83.039625904222902
20
-94.795776541520226
0
LWPOLYLINE
5
665
100
AcDbEntity
8
0
100
AcDbPolyline
90
4
70
1
43
0.0
10
88.039625904222902
20
-94.795776541520226
10
88.039625904222902
20
-89.795776541520226
10
93.039625904222902
20
-89.795776541520226
10
93.039625904222902
20
-94.795776541520226
0
LWPOLYLINE
5
666
100
AcDbEntity
8
0
100
AcDbPolyline
90
4
70
1
43
0.0
10
98.039625904222902
20
-94.795776541520226
10
98.039625904222902
20
-89.795776541520226
10
103.0396259042229
20
-89.795776541520226
10
103.0396259042229
20
-94.795776541520226
0
LWPOLYLINE
5
667
100
AcDbEntity
8
0
100
AcDbPolyline
90
4
70
1
43
0.0
10
108.0396259042229
20
-94.795776541520226
10
108.0396259042229
20
-89.795776541520226
10
113.0396259042229
20
-89.795776541520226
10
113.0396259042229
20
-94.795776541520226
0
LWPOLYLINE
5
668
100
AcDbEntity
8
0
100
AcDbPolyline
90
4
70
1
43
0.0
10
118.0396259042229
20
-94.795776541520226
10
118.0396259042229
20
-89.795776541520226
10
123.0396259042229
20
-89.795776541520226
10
123.0396259042229
20
-94.795776541520226
0
LWPOLYLINE
5
669
100
AcDbEntity
8
0
100
AcDbPolyline
90
4
70
1
43
0.0
10
128.0396259042229
20
-94.795776541520226
10
128.0396259042229
20
-89.795776541520226
10
133.0396259042229
20
-89.795776541520226
10
133.0396259042229
20
-94.795776541520226
0
LWPOLYLINE
5
670
100
AcDbEntity
8
0
100
AcDbPolyline
90
4
70
1
43
0.0
10
-161.9603740957771
20
-104.79577654152023
10
-161.9603740957771
20
-99.795776541520226
10
-156.9603740957771
20
-99.795776541520226
10
-156.9603740957771
20
-104.79577654152023
0
LWPOLYLINE
5
671
100
AcDbEntity
8
0
100
AcDbPolyline
90
4
70
1
43
0.0
10
-151.9603740957771
20
-104.79577654152023
10
-151.9603740957771
20
-99.795776541520226
10
-146.9603740957771
20
-99.795776541520226
10
-146.9603740957771
20
-104.79577654152023
0
LWPOLYLINE
5
672
100
AcDbEntity
8
0
100
AcDbPolyline
90
4
70
1
43
0.0
10
-141.9603740957771
20
-104.79577654152023
10
-141.9603740957771
20
-99.795776541520226
10
-136.9603740957771
20
-99.795776541520226
10
-136.9603740957771
20
-104.79577654152023
0
LWPOLYLINE
5
673
100
AcDbEntity
8
0
100
AcDbPolyline
90
4
70
1
43
0.0
10
-131.9603740957771
20
-104.79577654152023
10
-131.9603740957771
20
-99.795776541520226
10
-126.9603740957771
20
-99.795776541520226
10
-126.9603740957771
20
-104.79577654152023
0
LWPOLYLINE
5
674
100
AcDbEntity
8
0
100
AcDbPolyline
90
4
70
1
43
0.0
10
-121.9603740957771
20
-104.79577654152023
10
-121.9603740957771
20
-99.795776541520226
10
-116.9603740957771
20
-99.795776541520226
10
-116.9603740957771
20
-104.79577654152023
0
LWPOLYLINE
5
675
100
AcDbEntity
8
0
100
AcDbPolyline
90
4
70
1
43
0.0
10
-111.9603740957771
20
-104.79577654152023
10
-111.9603740957771
20
-99.795776541520226
10
-106.9603740957771
20
-99.795776541520226
10
-106.9603740957771
20
-104.79577654152023
0
LWPOLYLINE
5
676
100
AcDbEntity
8
0
100
AcDbPolyline
90
4
70
1
43
0.0
10
-101.9603740957771
20
-104.79577654152023
10
-101.9603740957771
20
-99.795776541520226
10
-96.960374095777098
20
-99.795776541520226
10
-96.960374095777098
20
-104.79577654152023
0
LWPOLYLINE
5
677
100
AcDbEntity
8
0
100
AcDbPolyline
90
4
70
1
43
0.0
10
-91.960374095777098
20
-104.79577654152023
10
-91.960374095777098
20
-99.795776541520226
10
-86.960374095777098
20
-99.795776541520226
10
-86.960374095777098
20
-104.79577654152023
0
LWPOLYLINE
5
678
100
AcDbEntity
8
0
100
AcDbPolyline
90
4
70
1
43
0.0
10
-81.960374095777098
20
-104.79577654152023
10
-81.960374095777098
20
-99.795776541520226
10
-76.960374095777098
20
-99.795776541520226
10
-76.960374095777098
20
-104.79577654152023
0
LWPOLYLINE
5
679
100
AcDbEntity
8
0
100
AcDbPolyline
90
4
70
1
43
0.0
10
-71.960374095777098
20
-104.79577654152023
10
-71.960374095777098
20
-99.795776541520226
10
-66.960374095777098
20
-99.795776541520226
10
-66.960374095777098
20
-104.79577654152023
0
LWPOLYLINE
5
680
100
AcDbEntity
8
0
100
AcDbPolyline
90
4
70
1
43
0.0
10
-61.960374095777091
20
-104.79577654152023
10
-61.960374095777091
20
-99.795776541520226
10
-56.960374095777091
20
-99.795776541520226
10
-56.960374095777091
20
-104.79577654152023
0
LWPOLYLINE
5
681
100
AcDbEntity
8
0
100
AcDbPolyline
90
4
70
1
43
0.0
10
-51.960374095777091
20
-104.79577654152023
10
-51.960374095777091
20
-99.795776541520226
10
-46.960374095777091
20
-99.795776541520226
10
-46.960374095777091
20
-104.79577654152023
0
LWPOLYLINE
5
682
100
AcDbEntity
8
0
100
AcDbPolyline
90
4
70
1
43
0.0
10
-41.960374095777091
20
-104.79577654152023
10
-41.960374095777091
20
-99.795776541520226
10
-36.960374095777091
20
-99.795776541520226
10
-36.960374095777091
20
-104.79577654152023
0
LWPOLYLINE
5
683
100
AcDbEntity
8
0
100
AcDbPolyline
90
4
70
1
43
0.0
10
-31.960374095777091
20
-104.79577654152023
10
-31.960374095777091
20
-99.795776541520226
10
-26.960374095777091
20
-99.795776541520226
10
-26.960374095777091
20
-104.79577654152023
0
LWPOLYLINE
5
684
100
AcDbEntity
8
0
100
AcDbPolyline
90
4
70
1
43
0.0
10
-21.960374095777091
20
-104.79577654152023
10
-21.960374095777091
20
-99.795776541520226
10
-16.960374095777091
20
-99.795776541520226
10
-16.960374095777091
20
-104.79577654152023
0
LWPOLYLINE
5
685
100
AcDbEntity
8
0
100
AcDbPolyline
90
4
70
1
43
0.0
10
-11.960374095777091
20
-104.79577654152023
10
-11.960374095777091
20
-99.795776541520226
10
-6.960374095777091
20
-99.795776541520226
10
-6.960374095777091
20
-104.79577654152023
0
LWPOLYLINE
5
686
100
AcDbEntity
8
0
100
AcDbPolyline
90
4
70
1
43
0.0
10
-1.960374095777091
20
-104.79577654152023
10
-1.960374095777091
20
-99.795776541520226
10
3.039625904222909
20
-99.795776541520226
10
3.039625904222909
20
-104.79577654152023
0
LWPOLYLINE
5
687
100
AcDbEntity
8
0
100
AcDbPolyline
90
4
70
1
43
0.0
10
8.039625904222909
20
-104.79577654152023
10
8.039625904222909
20
-99.795776541520226
10
13.039625904222909
20
-99.795776541520226
10
13.039625904222909
20
-104.79577654152023
0
LWPOLYLINE
5
688
100
AcDbEntity
8
0
100
AcDbPolyline
90
4
70
1
43
0.0
10
18.039625904222909
20
-104.79577654152023
10
18.039625904222909
20
-99.795776541520226
10
23.039625904222909
20
-99.795776541520226
10
23.039625904222909
20
-104.79577654152023
0
LWPOLYLINE
5
689
100
AcDbEntity
8
0
100
AcDbPolyline
90
4
70
1
43
0.0
10
28.039625904222909
20
-104.79577654152023
10
28.039625904222909
20
-99.795776541520226
10
33.039625904222909
20
-99.795776541520226
10
33.039625904222909
20
-104.79577654152023
0
LWPOLYLINE
5
690
100
AcDbEntity
8
0
100
AcDbPolyline
90
4
70
1
43
0.0
10
38.039625904222909
20
-104.79577654152023
10
38.039625904222909
20
-99.795776541520226
10
43.039625904222909
20
-99.795776541520226
10
43.039625904222909
20
-104.79577654152023
0
LWPOLYLINE
5
691
100
AcDbEntity
8
0
100
AcDbPolyline
90
4
70
1
43
0.0
10
48.039625904222909
20
-104.79577654152023
10
48.039625904222909
20
-99.795776541520226
10
53.039625904222909
20
-99.795776541520226
10
53.039625904222909
20
-104.79577654152023
0
LWPOLYLINE
5
692
100
AcDbEntity
8
0
100
AcDbPolyline
90
4
70
1
43
0.0
10
58.039625904222909
20
-104.79577654152023
10
58.039625904222909
20
-99.795776541520226
10
63.039625904222909
20
-99.795776541520226
10
63.039625904222909
20
-104.79577654152023
0
LWPOLYLINE
5
693
100
AcDbEntity
8
0
100
AcDbPolyline
90
4
70
1
43
0.0
10
68.039625904222902
20
-104.79577654152023
10
68.039625904222902
20
-99.795776541520226
10
73.039625904222902
20
-99.795776541520226
10
73.039625904222902
20
-104.79577654152023
0
LWPOLYLINE
5
694
100
AcDbEntity
8
0
100
AcDbPolyline
90
4
70
1
43
0.0
10
78.039625904222902
20
-104.79577654152023
10
78.039625904222902
20
-99.795776541520226
10
83.039625904222902
20
-99.795776541520226
10
83.039625904222902
20
-104.79577654152023
0
LWPOLYLINE
5
695
100
AcDbEntity
8
0
100
AcDbPolyline
90
4
70
1
43
0.0
10
88.039625904222902
20
-104.79577654152023
10
88.039625904222902
20
-99.795776541520226
10
93.039625904222902
20
-99.795776541520226
10
93.039625904222902
20
-104.79577654152023
0
LWPOLYLINE
5
696
100
AcDbEntity
8
0
100
AcDbPolyline
90
4
70
1
43
0.0
10
98.039625904222902
20
-104.79577654152023
10
98.039625904222902
20
-99.795776541520226
10
103.0396259042229
20
-99.795776541520226
10
103.0396259042229
20
-104.79577654152023
0
LWPOLYLINE
5
697
100
AcDbEntity
8
0
100
AcDbPolyline
90
4
70
1
43
0.0
10
108.0396259042229
20
-104.79577654152023
10
108.0396259042229
20
-99.795776541520226
10
113.0396259042229
20
-99.795776541520226
10
113.0396259042229
20
-104.79577654152023
0
LWPOLYLINE
5
698
100
AcDbEntity
8
0
100
AcDbPolyline
90
4
70
1
43
0.0
10
118.0396259042229
20
-104.79577654152023
10
118.0396259042229
20
-99.795776541520226
10
123.0396259042229
20
-99.795776541520226
10
123.0396259042229
20
-104.79577654152023
0
LWPOLYLINE
5
699
100
AcDbEntity
8
0
100
AcDbPolyline
90
4
70
1
43
0.0
10
128.0396259042229
20
-104.79577654152023
10
128.0396259042229
20
-99.795776541520226
10
133.0396259042229
20
-99.795776541520226
10
133.0396259042229
20
-104.79577654152023
0
LWPOLYLINE
5
700
100
AcDbEntity
8
0
100
AcDbPolyline
90
4
70
1
43
0.0
10
-161.9603740957771
20
-114.79577654152023
10
-161.9603740957771
20
-109.79577654152023
10
-156.9603740957771
20
-109.79577654152023
10
-156.9603740957771
20
-114.79577654152023
0
LWPOLYLINE
5
701
100
AcDbEntity
8
0
100
AcDbPolyline
90
4
70
1
43
0.0
10
-151.9603740957771
20
-114.79577654152023
10
-151.9603740957771
20
-109.79577654152023
10
-146.9603740957771
20
-109.79577654152023
10
-146.9603740957771
20
-114.79577654152023
0
LWPOLYLINE
5
702
100
AcDbEntity
8
0
100
AcDbPolyline
90
4
70
1
43
0.0
10
-141.9603740957771
20
-114.79577654152023
10
-141.9603740957771
20
-109.79577654152023
10
-136.9603740957771
20
-109.79577654152023
10
-136.9603740957771
20
-114.79577654152023
0
LWPOLYLINE
5
703
100
AcDbEntity
8
0
100
AcDbPolyline
90
4
70
1
43
0.0
10
-131.9603740957771
20
-114.79577654152023
10
-131.9603740957771
20
-109.79577654152023
10
-126.9603740957771
20
-109.79577654152023
10
-126.9603740957771
20
-114.79577654152023
0
LWPOLYLINE
5
704
100
AcDbEntity
8
0
100
AcDbPolyline
90
4
70
1
43
0.0
10
-121.9603740957771
20
-114.79577654152023
10
-121.9603740957771
20
-109.79577654152023
10
-116.9603740957771
20
-109.79577654152023
10
-116.9603740957771
20
-114.79577654152023
0
LWPOLYLINE
5
705
100
AcDbEntity
8
0
100
AcDbPolyline
90
4
70
1
43
0.0
10
-111.9603740957771
20
-114.79577654152023
10
-111.9603740957771
20
-109.79577654152023
10
-106.9603740957771
20
-109.79577654152023
10
-106.9603740957771
20
-114.79577654152023
0
LWPOLYLINE
5
706
100
AcDbEntity
8
0
100
AcDbPolyline
90
4
70
1
43
0.0
10
-101.9603740957771
20
-114.79577654152023
10
-101.9603740957771
20
-109.79577654152023
10
-96.960374095777098
20
-109.79577654152023
10
-96.960374095777098
20
-114.79577654152023
0
LWPOLYLINE
5
707
100
AcDbEntity
8
0
100
AcDbPolyline
90
4
70
1
43
0.0
10
-91.960374095777098
20
-114.79577654152023
10
-91.960374095777098
20
-109.79577654152023
10
-86.960374095777098
20
-109.79577654152023
10
-86.960374095777098
20
-114.79577654152023
0
LWPOLYLINE
5
708
100
AcDbEntity
8
0
100
AcDbPolyline
90
4
70
1
43
0.0
10
-81.960374095777098
20
-114.79577654152023
10
-81.960374095777098
20
-109.79577654152023
10
-76.960374095777098
20
-109.79577654152023
10
-76.960374095777098
20
-114.79577654152023
0
LWPOLYLINE
5
709
100
AcDbEntity
8
0
100
AcDbPolyline
90
4
70
1
43
0.0
10
-71.960374095777098
20
-114.79577654152023
10
-71.960374095777098
20
-109.79577654152023
10
-66.960374095777098
20
-109.79577654152023
10
-66.960374095777098
20
-114.79577654152023
0
LWPOLYLINE
5
710
100
AcDbEntity
8
0
100
AcDbPolyline
90
4
70
1
43
0.0
10
-61.960374095777091
20
-114.79577654152023
10
-61.960374095777091
20
-109.79577654152023
10
-56.960374095777091
20
-109.79577654152023
10
-56.960374095777091
20
-114.79577654152023
0
LWPOLYLINE
5
711
100
AcDbEntity
8
0
100
AcDbPolyline
90
4
70
1
43
0.0
10
-51.960374095777091
20
-114.79577654152023
10
-51.960374095777091
20
-109.79577654152023
10
-46.960374095777091
20
-109.79577654152023
10
-46.960374095777091
20
-114.79577654152023
0
LWPOLYLINE
5
712
100
AcDbEntity
8
0
100
AcDbPolyline
90
4
70
1
43
0.0
10
-41.960374095777091
20
-114.79577654152023
10
-41.960374095777091
20
-109.79577654152023
10
-36.960374095777091
20
-109.79577654152023
10
-36.960374095777091
20
-114.79577654152023
0
LWPOLYLINE
5
713
100
AcDbEntity
8
0
100
AcDbPolyline
90
4
70
1
43
0.0
10
-31.960374095777091
20
-114.79577654152023
10
-31.960374095777091
20
-109.79577654152023
10
-26.960374095777091
20
-109.79577654152023
10
-26.960374095777091
20
-114.79577654152023
0
LWPOLYLINE
5
714
100
AcDbEntity
8
0
100
AcDbPolyline
90
4
70
1
43
0.0
10
-21.960374095777091
20
-114.79577654152023
10
-21.960374095777091
20
-109.79577654152023
10
-16.960374095777091
20
-109.79577654152023
10
-16.960374095777091
20
-114.79577654152023
0
LWPOLYLINE
5
715
100
AcDbEntity
8
0
100
AcDbPolyline
90
4
70
1
43
0.0
10
-11.960374095777091
20
-114.79577654152023
10
-11.960374095777091
20
-109.79577654152023
10
-6.960374095777091
20
-109.79577654152023
10
-6.960374095777091
20
-114.79577654152023
0
LWPOLYLINE
5
716
100
AcDbEntity
8
0
100
AcDbPolyline
90
4
70
1
43
0.0
10
-1.960374095777091
20
-114.79577654152023
10
-1.960374095777091
20
-109.79577654152023
10
3.039625904222909
20
-109.79577654152023
10
3.039625904222909
20
-114.79577654152023
0
LWPOLYLINE
5
717
100
AcDbEntity
8
0
100
AcDbPolyline
90
4
70
1
43
0.0
10
8.039625904222909
20
-114.79577654152023
10
8.039625904222909
20
-109.79577654152023
10
13.039625904222909
20
-109.79577654152023
10
13.039625904222909
20
-114.79577654152023
0
LWPOLYLINE
5
718
100
AcDbEntity
8
0
100
AcDbPolyline
90
4
70
1
43
0.0
10
18.039625904222909
20
-114.79577654152023
10
18.039625904222909
20
-109.79577654152023
10
23.039625904222909
20
-109.79577654152023
10
23.039625904222909
20
-114.79577654152023
0
LWPOLYLINE
5
719
100
AcDbEntity
8
0
100
AcDbPolyline
90
4
70
1
43
0.0
10
28.039625904222909
20
-114.79577654152023
10
28.039625904222909
20
-109.79577654152023
10
33.039625904222909
20
-109.79577654152023
10
33.039625904222909
20
-114.79577654152023
0
LWPOLYLINE
5
720
100
AcDbEntity
8
0
100
AcDbPolyline
90
4
70
1
43
0.0
10
38.039625904222909
20
-114.79577654152023
10
38.039625904222909
20
-109.79577654152023
10
43.039625904222909
20
-109.79577654152023
10
43.039625904222909
20
-114.79577654152023
0
LWPOLYLINE
5
721
100
AcDbEntity
8
0
100
AcDbPolyline
90
4
70
1
43
0.0
10
48.039625904222909
20
-114.79577654152023
10
48.039625904222909
20
-109.79577654152023
10
53.039625904222909
20
-109.79577654152023
10
53.039625904222909
20
-114.79577654152023
0
LWPOLYLINE
5
722
100
AcDbEntity
8
0
100
AcDbPolyline
90
4
70
1
43
0.0
10
58.039625904222909
20
-114.79577654152023
10
58.039625904222909
20
-109.79577654152023
10
63.039625904222909
20
-109.79577654152023
10
63.039625904222909
20
-114.79577654152023
0
LWPOLYLINE
5
723
100
AcDbEntity
8
0
100
AcDbPolyline
90
4
70
1
43
0.0
10
68.039625904222902
20
-114.79577654152023
10
68.039625904222902
20
-109.79577654152023
10
73.039625904222902
20
-109.79577654152023
10
73.039625904222902
20
-114.79577654152023
0
LWPOLYLINE
5
724
100
AcDbEntity
8
0
100
AcDbPolyline
90
4
70
1
43
0.0
10
78.039625904222902
20
-114.79577654152023
10
78.039625904222902
20
-109.79577654152023
10
83.039625904222902
20
-109.79577654152023
10
83.039625904222902
20
-114.79577654152023
0
LWPOLYLINE
5
725
100
AcDbEntity
8
0
100
AcDbPolyline
90
4
70
1
43
0.0
10
88.039625904222902
20
-114.79577654152023
10
88.039625904222902
20
-109.79577654152023
10
93.039625904222902
20
-109.79577654152023
10
93.039625904222902
20
-114.79577654152023
0
LWPOLYLINE
5
726
100
AcDbEntity
8
0
100
AcDbPolyline
90
4
70
1
43
0.0
10
98.039625904222902
20
-114.79577654152023
10
98.039625904222902
20
-109.79577654152023
10
103.0396259042229
20
-109.79577654152023
10
103.0396259042229
20
-114.79577654152023
0
LWPOLYLINE
5
727
100
AcDbEntity
8
0
100
AcDbPolyline
90
4
70
1
43
0.0
10
108.0396259042229
20
-114.79577654152023
10
108.0396259042229
20
-109.79577654152023
10
113.0396259042229
20
-109.79577654152023
10
113.0396259042229
20
-114.79577654152023
0
LWPOLYLINE
5
728
100
AcDbEntity
8
0
100
AcDbPolyline
90
4
70
1
43
0.0
10
118.0396259042229
20
-114.79577654152023
10
118.0396259042229
20
-109.79577654152023
10
123.0396259042229
20
-109.79577654152023
10
123.0396259042229
20
-114.79577654152023
0
LWPOLYLINE
5
729
100
AcDbEntity
8
0
100
AcDbPolyline
90
4
70
1
43
0.0
10
128.0396259042229
20
-114.79577654152023
10
128.0396259042229
20
-109.79577654152023
10
133.0396259042229
20
-109.79577654152023
10
133.0396259042229
20
-114.79577654152023
0
LWPOLYLINE
5
730
100
AcDbEntity
8
0
100
AcDbPolyline
90
4
70
1
43
0.0
10
-161.9603740957771
20
-124.79577654152023
10
-161.9603740957771
20
-119.79577654152023
10
-156.9603740957771
20
-119.79577654152023
10
-156.9603740957771
20
-124.79577654152023
0
LWPOLYLINE
5
731
100
AcDbEntity
8
0
100
AcDbPolyline
90
4
70
1
43
0.0
10
-151.9603740957771
20
-124.79577654152023
10
-151.9603740957771
20
-119.79577654152023
10
-146.9603740957771
20
-119.79577654152023
10
-146.9603740957771
20
-124.79577654152023
0
LWPOLYLINE
5
732
100
AcDbEntity
8
0
100
AcDbPolyline
90
4
70
1
43
0.0
10
-141.9603740957771
20
-124.79577654152023
10
-141.9603740957771
20
-119.79577654152023
10
-136.9603740957771
20
-119.79577654152023
10
-136.9603740957771
20
-124.79577654152023
0
LWPOLYLINE
5
733
100
AcDbEntity
8
0
100
AcDbPolyline
90
4
70
1
43
0.0
10
-131.9603740957771
20
-124.79577654152023
10
-131.9603740957771
20
-119.79577654152023
10
-126.9603740957771
20
-119.79577654152023
10
-126.9603740957771
20
-124.79577654152023
0
LWPOLYLINE
5
734
100
AcDbEntity
8
0
100
AcDbPolyline
90
4
70
1
43
0.0
10
-121.9603740957771
20
-124.79577654152023
10
-121.9603740957771
20
-119.79577654152023
10
-116.9603740957771
20
-119.79577654152023
10
-116.9603740957771
20
-124.79577654152023
0
LWPOLYLINE
5
735
100
AcDbEntity
8
0
100
AcDbPolyline
90
4
70
1
43
0.0
10
-111.9603740957771
20
-124.79577654152023
10
-111.9603740957771
20
-119.79577654152023
10
-106.9603740957771
20
-119.79577654152023
10
-106.9603740957771
20
-124.79577654152023
0
LWPOLYLINE
5
736
100
AcDbEntity
8
0
100
AcDbPolyline
90
4
70
1
43
0.0
10
-101.9603740957771
20
-124.79577654152023
10
-101.9603740957771
20
-119.79577654152023
10
-96.960374095777098
20
-119.79577654152023
10
-96.960374095777098
20
-124.79577654152023
0
LWPOLYLINE
5
737
100
AcDbEntity
8
0
100
AcDbPolyline
90
4
70
1
43
0.0
10
-91.960374095777098
20
-124.79577654152023
10
-91.960374095777098
20
-119.79577654152023
10
-86.960374095777098
20
-119.79577654152023
10
-86.960374095777098
20
-124.79577654152023
0
LWPOLYLINE
5
738
100
AcDbEntity
8
0
100
AcDbPolyline
90
4
70
1
43
0.0
10
-81.960374095777098
20
-124.79577654152023
10
-81.960374095777098
20
-119.79577654152023
10
-76.960374095777098
20
-119.79577654152023
10
-76.960374095777098
20
-124.79577654152023
0
LWPOLYLINE
5
739
100
AcDbEntity
8
0
100
AcDbPolyline
90
4
70
1
43
0.0
10
-71.960374095777098
20
-124.79577654152023
10
-71.960374095777098
20
-119.79577654152023
10
-66.960374095777098
20
-119.79577654152023
10
-66.960374095777098
20
-124.79577654152023
0
LWPOLYLINE
5
740
100
AcDbEntity
8
0
100
AcDbPolyline
90
4
70
1
43
0.0
10
-61.960374095777091
20
-124.79577654152023
10
-61.960374095777091
20
-119.79577654152023
10
-56.960374095777091
20
-119.79577654152023
10
-56.960374095777091
20
-124.79577654152023
0
LWPOLYLINE
5
741
100
AcDbEntity
8
0
100
AcDbPolyline
90
4
70
1
43
0.0
10
-51.960374095777091
20
-124.79577654152023
10
-51.960374095777091
20
-119.79577654152023
10
-46.960374095777091
20
-119.79577654152023
10
-46.960374095777091
20
-124.79577654152023
0
LWPOLYLINE
5
742
100
AcDbEntity
8
0
100
AcDbPolyline
90
4
70
1
43
0.0
10
-41.960374095777091
20
-124.79577654152023
10
-41.960374095777091
20
-119.79577654152023
10
-36.960374095777091
20
-119.79577654152023
10
-36.960374095777091
20
-124.79577654152023
0
LWPOLYLINE
5
743
100
AcDbEntity
8
0
100
AcDbPolyline
90
4
70
1
43
0.0
10
-31.960374095777091
20
-124.79577654152023
10
-31.960374095777091
20
-119.79577654152023
10
-26.960374095777091
20
-119.79577654152023
10
-26.960374095777091
20
-124.79577654152023
0
LWPOLYLINE
5
744
100
AcDbEntity
8
0
100
AcDbPolyline
90
4
70
1
43
0.0
10
-21.960374095777091
20
-124.79577654152023
10
-21.960374095777091
20
-119.79577654152023
10
-16.960374095777091
20
-119.79577654152023
10
-16.960374095777091
20
-124.79577654152023
0
LWPOLYLINE
5
745
100
AcDbEntity
8
0
100
AcDbPolyline
90
4
70
1
43
0.0
10
-11.960374095777091
20
-124.79577654152023
10
-11.960374095777091
20
-119.79577654152023
10
-6.960374095777091
20
-119.79577654152023
10
-6.960374095777091
20
-124.79577654152023
0
LWPOLYLINE
5
746
100
AcDbEntity
8
0
100
AcDbPolyline
90
4
70
1
43
0.0
10
-1.960374095777091
20
-124.79577654152023
10
-1.960374095777091
20
-119.79577654152023
10
3.039625904222909
20
-119.79577654152023
10
3.039625904222909
20
-124.79577654152023
0
LWPOLYLINE
5
747
100
AcDbEntity
8
0
100
AcDbPolyline
90
4
70
1
43
0.0
10
8.039625904222909
20
-124.79577654152023
10
8.039625904222909
20
-119.79577654152023
10
13.039625904222909
20
-119.79577654152023
10
13.039625904222909
20
-124.79577654152023
0
LWPOLYLINE
5
748
100
AcDbEntity
8
0
100
AcDbPolyline
90
4
70
1
43
0.0
10
18.039625904222909
20
-124.79577654152023
10
18.039625904222909
20
-119.79577654152023
10
23.039625904222909
20
-119.79577654152023
10
23.039625904222909
20
-124.79577654152023
0
LWPOLYLINE
5
749
100
AcDbEntity
8
0
100
AcDbPolyline
90
4
70
1
43
0.0
10
28.039625904222909
20
-124.79577654152023
10
28.039625904222909
20
-119.79577654152023
10
33.039625904222909
20
-119.79577654152023
10
33.039625904222909
20
-124.79577654152023
0
LWPOLYLINE
5
750
100
AcDbEntity
8
0
100
AcDbPolyline
90
4
70
1
43
0.0
10
38.039625904222909
20
-124.79577654152023
10
38.039625904222909
20
-119.79577654152023
10
43.039625904222909
20
-119.79577654152023
10
43.039625904222909
20
-124.79577654152023
0
LWPOLYLINE
5
751
100
AcDbEntity
8
0
100
AcDbPolyline
90
4
70
1
43
0.0
10
48.039625904222909
20
-124.79577654152023
10
48.039625904222909
20
-119.79577654152023
10
53.039625904222909
20
-119.79577654152023
10
53.039625904222909
20
-124.79577654152023
0
LWPOLYLINE
5
752
100
AcDbEntity
8
0
100
AcDbPolyline
90
4
70
1
43
0.0
10
58.039625904222909
20
-124.79577654152023
10
58.039625904222909
20
-119.79577654152023
10
63.039625904222909
20
-119.79577654152023
10
63.039625904222909
20
-124.79577654152023
0
LWPOLYLINE
5
753
100
AcDbEntity
8
0
100
AcDbPolyline
90
4
70
1
43
0.0
10
68.039625904222902
20
-124.79577654152023
10
68.039625904222902
20
-119.79577654152023
10
73.039625904222902
20
-119.79577654152023
10
73.039625904222902
20
-124.79577654152023
0
LWPOLYLINE
5
754
100
AcDbEntity
8
0
100
AcDbPolyline
90
4
70
1
43
0.0
10
78.039625904222902
20
-124.79577654152023
10
78.039625904222902
20
-119.79577654152023
10
83.039625904222902
20
-119.79577654152023
10
83.039625904222902
20
-124.79577654152023
0
LWPOLYLINE
5
755
100
AcDbEntity
8
0
100
AcDbPolyline
90
4
70
1
43
0.0
10
88.039625904222902
20
-124.79577654152023
10
88.039625904222902
20
-119.79577654152023
10
93.039625904222902
20
-119.79577654152023
10
93.039625904222902
20
-124.79577654152023
0
LWPOLYLINE
5
756
100
AcDbEntity
8
0
100
AcDbPolyline
90
4
70
1
43
0.0
10
98.039625904222902
20
-124.79577654152023
10
98.039625904222902
20
-119.79577654152023
10
103.0396259042229
20
-119.79577654152023
10
103.0396259042229
20
-124.79577654152023
0
LWPOLYLINE
5
757
100
AcDbEntity
8
0
100
AcDbPolyline
90
4
70
1
43
0.0
10
108.0396259042229
20
-124.79577654152023
10
108.0396259042229
20
-119.79577654152023
10
113.0396259042229
20
-119.79577654152023
10
113.0396259042229
20
-124.79577654152023
0
LWPOLYLINE
5
758
100
AcDbEntity
8
0
100
AcDbPolyline
90
4
70
1
43
0.0
10
118.0396259042229
20
-124.79577654152023
10
118.0396259042229
20
-119.79577654152023
10
123.0396259042229
20
-119.79577654152023
10
123.0396259042229
20
-124.79577654152023
0
LWPOLYLINE
5
759
100
AcDbEntity
8
0
100
AcDbPolyline
90
4
70
1
43
0.0
10
128.0396259042229
20
-124.79577654152023
10
128.0396259042229
20
-119.79577654152023
10
133.0396259042229
20
-119.79577654152023
10
133.0396259042229
20
-124.79577654152023
0
ENDSEC
0
SECTION
2
OBJECTS
0
DICTIONARY
5
C
100
AcDbDictionary
3
ACAD_GROUP
350
D
3
ACAD_MLINESTYLE
350
17
0
DICTIONARY
5
D
100
AcDbDictionary
0
DICTIONARY
5
1A
330
C
100
AcDbDictionary
0
DICTIONARY
5
17
100
AcDbDictionary
0
ENDSEC
0
EOF
